<svg version="1.1" id="Layer_1" xmlns="http://www.w3.org/2000/svg" x="0" y="0" width="512" height="512" xml:space="preserve"><style>.st0{fill:#1e1d25}</style><path class="st0" d="M459.8 271.7c-2.3 0-4.5.2-6.8.5l-1.9.3-.8-1.8c-13.2-30.5-34.6-56.6-62-75.7-29.9-20.8-65.1-31.9-101.7-31.9h-61.4c-36.6 0-71.8 11-101.7 31.9-27.4 19-48.8 45.2-62 75.7l-.8 1.8-1.9-.3c-2.2-.3-4.5-.5-6.8-.5-26.4 0-47.8 21.5-47.8 47.8V350h5.2c6.4 0 9.4 3.5 13.6 8.5 1 1.1 2.2 2.6 3.5 3.9l2.2 2.3-.6.4 60 100.8h-30v43.6H454v-43.6h-30.3l60.1-100.8-.6-.3 2.1-2.3c1.3-1.3 2.4-2.6 3.5-3.9 4.2-4.9 7.2-8.5 13.6-8.5h5.2v-30.5c0-26.4-21.4-47.9-47.8-47.9zm-16.3 204.6V499h-375v-22.7h375zm-32-10.4h-311l-56.6-95 3.8-.4c9.3-1.1 14.5-7.1 18.6-11.9 4.2-4.9 7.3-8.5 13.6-8.5 6.4 0 9.4 3.5 13.6 8.5 4.6 5.4 10.4 12.1 21.6 12.1s16.9-6.7 21.5-12.1c4.2-4.9 7.3-8.5 13.7-8.5s9.4 3.5 13.6 8.5c4.6 5.4 10.4 12.1 21.6 12.1s17-6.7 21.6-12.1c4.2-4.9 7.2-8.5 13.6-8.5 6.4 0 9.4 3.5 13.6 8.5 4.6 5.4 10.4 12.1 21.5 12.1 11.2 0 17-6.7 21.6-12.1 4.2-4.9 7.2-8.5 13.6-8.5s9.4 3.5 13.7 8.5c4.6 5.4 10.4 12.1 21.6 12.1s16.9-6.7 21.6-12.1c4.2-4.9 7.2-8.5 13.6-8.5s9.4 3.5 13.6 8.5c4.6 5.4 10.4 12.1 21.6 12.1s16.9-6.7 21.6-12.1c4.2-4.9 7.2-8.5 13.6-8.5s9.5 3.5 13.7 8.5c4.1 4.8 9.3 10.8 18.6 11.9l3.8.4-56.5 95zm85.7-125.8l-1.8.5c-6.8 2.1-11.1 7.1-14.6 11.1-4.2 4.9-7.3 8.5-13.7 8.5-6.4 0-9.4-3.5-13.6-8.5-4.6-5.4-10.4-12.1-21.6-12.1s-17 6.7-21.6 12.1c-4.2 4.9-7.3 8.5-13.7 8.5-6.4 0-9.4-3.5-13.6-8.5-4.6-5.4-10.4-12.1-21.6-12.1s-16.9 6.7-21.6 12.1c-4.2 4.9-7.3 8.5-13.6 8.5-6.4 0-9.4-3.5-13.6-8.5-4.6-5.4-10.4-12.1-21.6-12.1s-16.9 6.7-21.6 12.1c-4.2 4.9-7.2 8.5-13.6 8.5s-9.4-3.5-13.6-8.5c-4.6-5.4-10.4-12.1-21.6-12.1-11.2 0-16.9 6.7-21.6 12.1-4.2 4.9-7.3 8.5-13.6 8.5-6.4 0-9.4-3.5-13.6-8.5-4.6-5.4-10.4-12.1-21.6-12.1s-16.9 6.7-21.6 12.1c-4.2 4.9-7.2 8.5-13.6 8.5s-9.4-3.5-13.6-8.5c-4.6-5.4-10.4-12.1-21.6-12.1s-16.9 6.7-21.6 12.1c-4.2 4.9-7.2 8.5-13.6 8.5s-9.4-3.5-13.6-8.5c-3.5-4-7.7-9-14.6-11.1l-1.8-.5v-20.5c0-1.4 1-10.2 5.7-18.6 4.6-8.2 13.8-18.1 31.6-18.8 3.2-.1 6.6.3 10.4 1.5l4.6 1.3 1.7-4.4c25.3-64.9 86.8-106.9 156.5-106.9h61.4c69.7 0 131.1 42 156.5 106.9l1.7 4.4 4.6-1.3c3.4-1 6.9-1.5 10.4-1.5 20.6 0 37.4 16.8 37.4 37.4v20.5h.1zM271.3 121.3h-10.7c-1-2.9-3.6-4.9-7.7-7.8-5.6-3.9-12.5-8.8-12.5-18.8s6.9-14.8 12.5-18.8c5.2-3.6 8.1-5.9 8.1-10.3s-2.9-6.6-8.1-10.3c-5.6-3.9-12.5-8.8-12.5-18.8s6.9-14.8 12.5-18.8c4.1-2.9 6.7-4.9 7.7-7.8h10.7c-1.1 8.3-7.3 12.7-12.3 16.3-5.2 3.6-8.1 5.9-8.1 10.3 0 4.3 2.9 6.6 8.1 10.3 5.6 3.9 12.5 8.8 12.5 18.8 0 9.9-6.9 14.8-12.5 18.8-5.2 3.6-8.1 5.9-8.1 10.3s2.9 6.6 8.1 10.3c5.1 3.6 11.3 8 12.3 16.3zM353.7 141.9H343c-.9-2.9-3.6-4.9-7.7-7.8-5.6-3.9-12.5-8.8-12.5-18.8 0-9.9 6.9-14.8 12.5-18.8 5.2-3.6 8.1-5.9 8.1-10.3 0-4.3-2.9-6.6-8.1-10.3-5.6-3.9-12.5-8.8-12.5-18.8s6.9-14.8 12.5-18.8c4.1-2.9 6.7-4.9 7.7-7.8h10.7c-1.1 8.3-7.3 12.7-12.3 16.3-5.2 3.6-8.1 5.9-8.1 10.3s2.9 6.6 8.1 10.3c5.6 3.9 12.5 8.8 12.5 18.8 0 5-1.7 8.7-4.2 11.6-2.4 3-5.5 5.2-8.3 7.1-5.2 3.6-8.1 5.9-8.1 10.3s2.9 6.6 8.1 10.3c5 3.7 11.2 8.1 12.3 16.4zM191.6 140.8H181c-.9-2.9-3.6-4.9-7.7-7.8-5.6-3.9-12.5-8.8-12.5-18.8s6.9-14.8 12.5-18.8c5.2-3.6 8.1-5.9 8.1-10.3 0-4.3-2.9-6.6-8.1-10.3-5.6-3.9-12.5-8.8-12.5-18.8 0-9.9 6.9-14.8 12.5-18.8 4.1-2.9 6.8-4.9 7.7-7.8h10.7c-1 8.3-7.3 12.7-12.3 16.3-5.2 3.6-8.1 5.9-8.1 10.3 0 4.3 2.9 6.6 8.1 10.3 5.6 3.9 12.5 8.8 12.5 18.8 0 5-1.7 8.7-4.2 11.7-2.4 3-5.5 5.2-8.3 7.1-5.2 3.6-8.1 5.9-8.1 10.3 0 4.3 2.9 6.6 8.1 10.3 5 3.6 11.2 8 12.2 16.3zM413.3 149.6h11V160h-11zM443.4 69.1h11v10.4h-11zM393 27.2h11v10.4h-11zM113.3 69.1h11v10.4h-11zM70.7 142.6h11V153h-11zM101.5 2.5h11v10.4h-11z"/><path class="st0" d="M258.6 435.1h109.9v10.4H258.6zM388.9 435.1h10.5v10.4h-10.5zM256 201c-12.8 0-22.4 15.3-22.4 35.6s9.6 35.6 22.4 35.6 22.4-15.3 22.4-35.6S268.8 201 256 201zm0 60.7c-5.7 0-12-10.8-12-25.2s6.3-25.2 12-25.2 12 10.8 12 25.2c0 14.5-6.3 25.2-12 25.2zM206.1 211.4c-1.6-1.6-3.4-2.7-5.5-3.5s-4.5-1.2-7-1.2c-2.4 0-4.9.4-7.5 1.1-7.2 2-14.7 6.6-21 13-6.4 6.4-11 13.8-13 21-2.3 8.1-.9 15.4 3.6 20 3.1 3.1 7.4 4.7 12.5 4.7 2.4 0 4.9-.4 7.5-1.1 7.2-2 14.7-6.6 21-13 6.4-6.4 11-13.8 13-21 2.3-8.2 1-15.5-3.6-20zm-6.4 17.2c-.8 2.7-2.1 5.6-3.8 8.4s-4 5.6-6.5 8.1c-5 5-11 8.8-16.5 10.3-1.1.3-2.9.7-4.8.7-1.8 0-3.7-.4-5-1.7-2.6-2.6-1.5-7.7-1-9.8 1.5-5.4 5.3-11.4 10.3-16.5 5-5 11-8.8 16.5-10.3 1.7-.5 3.3-.7 4.8-.7 2.2 0 3.9.6 5 1.7 2.6 2.6 1.6 7.7 1 9.8zM357.8 241.8c-1-3.6-2.6-7.3-4.8-10.8-2.2-3.6-4.9-7-8.1-10.2-9.2-9.2-19.7-14.1-28.5-14.1-4.9 0-9.3 1.6-12.5 4.8-4.6 4.6-5.9 11.8-3.6 20 2 7.2 6.6 14.7 13 21 6.4 6.4 13.8 11 21 13 2.6.7 5.1 1.1 7.5 1.1 5.1 0 9.4-1.6 12.5-4.7 4.4-4.7 5.7-12 3.5-20.1zm-11 12.5c-.6.6-1.4 1.1-2.3 1.3-.9.3-1.8.4-2.7.4-1.9 0-3.7-.4-4.8-.7-5.4-1.5-11.4-5.3-16.5-10.3-5-5-8.8-11-10.3-16.5-.6-2.1-1.6-7.2 1-9.8 1.1-1.1 2.8-1.7 5-1.7 4.7 0 13.1 2.9 21.3 11 5 5 8.8 11 10.3 16.5.5 2.1 1.6 7.2-1 9.8z"/></svg>