<svg version="1.1" id="Capa_1" xmlns="http://www.w3.org/2000/svg" x="0" y="0" width="512" height="512" xml:space="preserve"><style>.st0{fill:#1e1d25}</style><path class="st0" d="M342.4 131.7c-9.7.3-19.4 1.6-28.8 3.8-4 .8-8.4 1.7-11.9 2.2h-.6c-4.2-.4-9.5-1.3-14.6-2.2-11.4-2.2-22.9-3.5-34.4-3.8-3.8 0-8 .1-13 .4l-1.1.1-.8-.7c-5.9-5.5-12.7-9.8-20.2-12.7l-1.1-.4-7.2-22.8C205 84.2 196 75 184.7 71l-1.2-.4-6.2-19.4 2-1c1.5-.7 2.9-1.6 4.3-2.6 7.1-5.3 11.1-13.7 10.5-22.6-.5-8.1-4.7-15.4-11.4-20C176.1.5 167.6-.8 160 1.6c-5.4 2.1-10.1 6-13.2 11-1.9 3.1-5.8 4.2-9 2.6-5.3-2.5-11.4-2.9-17-1.2-7.6 2.4-13.8 8.3-16.6 15.8-2.9 7.7-2 16.1 2.3 23 4.7 7.6 12.7 12.2 21.6 12.4 1.7 0 3.4-.1 5-.4l2.1-.3 6.2 19.4-.7 1c-7 9.8-9 22.4-5.4 33.9l7 22-18.6-18.6c-9.3-9.3-22.6-13.2-35.4-10.3l-1.4.3-10.8-11.1 1.3-1.7c1-1.3 1.8-2.7 2.6-4.1 4.1-7.9 3.9-17.3-.6-25-4-6.8-11-11.4-18.8-12.3-8.2-1-16.5 1.9-22.3 7.7-3.9 4.4-6.3 10.1-6.9 15.9-.4 3.7-3.4 6.6-7.1 6.8-6 .3-11.6 2.8-15.8 7-5.9 5.8-8.8 14.2-7.8 22.4 1 7.8 5.6 14.8 12.3 18.8 7.7 4.5 17 4.7 25 .6 1.5-.7 2.8-1.7 4.1-2.8l1.8-1.6 14.3 14.3v1.1c-.3 10.5 3.7 20.8 11.2 28.3l16.9 16.9-.1 1.2c-.6 5.4-.4 10.9.4 16.4l.2 1-.6.8c-27.7 38.2-43 83-44.5 129.8l-.1 2.2-2.2.2c-10 .8-19.3 5.2-26.3 12.3C5.3 365 .9 375.3.6 386.2c-.3 11.2 4.1 22.1 12 30.1C21 425 32.8 430 44.8 430.1h87.7v-11.4H44.8c-9.1 0-17.8-3.8-24.1-10.3-5.7-5.7-8.9-13.6-8.8-21.7.2-8.1 3.5-15.6 9.2-21.3 5.8-5.9 13.5-9.1 21.8-9.1h4.3c3.1 0 5.7-2.6 5.7-5.7C53 307.7 65.1 266 88 229.8l2.4-3.8 2 4c3 6.1 7 11.6 11.7 16.4l23.2 23.2c24.6 24.5 64.6 24.5 89.2-.1 24.6-24.6 24.6-64.6.1-89.2l-23.2-23.2c-.1-.1-.2-.2-.4-.3l-.6-.6-3-2.9 4-1.3c19.1-6 38.9-9 58.9-9 10.9.4 21.8 1.6 32.5 3.7 5.6.9 11.5 1.9 16.3 2.4h1.1c3.9-.4 8.5-1.4 13.4-2.3h.3c8.6-2 17.6-3.3 26.5-3.6h.1c73.6.1 133.6 60 133.7 133.7 0 5.5-.3 11-.8 16.5l8.1 21.5c2.8-12.5 4.2-25.2 4.2-38-.3-80-65.4-145.1-145.3-145.2zm-201.5-80c-1.6-.6-3.4-.5-4.9.3-2.3 1.3-4.8 1.9-7.5 1.9h-.2c-5-.1-9.4-2.7-12-6.8-2.4-3.8-3-8.7-1.4-13 1.5-4.3 5.1-7.7 9.4-9.1 3.2-1 6.6-.6 9.5 1 8.4 3.5 18 .5 22.8-7.3 1.6-2.5 3.8-4.6 6.4-6l.4-.2c4.3-1.4 9.2-.6 12.9 2 3.8 2.6 6.1 6.9 6.4 11.5.3 4.9-1.9 9.5-5.8 12.5-2.2 1.6-4.7 2.6-7.4 2.9-1.7.2-3.2 1.1-4.2 2.6-1 1.4-1.2 3.2-.7 4.9l6.3 19.8-3.1.3h-.1c-.3.1-.5.1-.8.1h-.2c-.1 0-.7.1-.9.1l-2.6.4c-.2 0-.5.1-.8.2l-1.2.4c-.3.1-.6.1-.9.2h-.1-.1c-.3.1-.5.2-.8.3-.1 0-.2.1-.3.1l-.7.3c-.2.1-.5.2-.8.3-.3.1-.6.2-.7.3-.6.2-1.2.5-1.8.8l-.2.1c-.1 0-.1.1-.2.1h-.1c-.2.1-.4.2-.7.4l-.2.1-.6.3-2.6 1.5-6.3-19.8c-.4-1.5-1.6-2.8-3.2-3.5zm-71.6 70.7c-2.6 2.6-4.7 5.7-6.5 9l-1.6 3-7.7-7.7c-4.9-4.9-12.8-5.3-18.3-1-.8.6-1.6 1.1-2.5 1.6-4.4 2.3-9.6 2.2-13.9-.2-3.8-2.2-6.4-6.1-7-10.5-.6-4.8 1.1-9.6 4.6-12.9 2.5-2.4 5.7-3.7 9.1-3.8 9-1 16.2-8.1 17.1-17.1.3-3.1 1.5-6 3.3-8.5l.2-.3c3.3-3.4 8.2-5.1 12.9-4.6 4.4.5 8.3 3.1 10.5 6.9 2.4 4.3 2.5 9.5.2 13.9-.5.9-1 1.7-1.6 2.5-4.3 5.5-3.9 13.4 1 18.3l6.4 6.4-2.4 1.7c-1.2 1-2.5 2.1-3.8 3.3zm139.2 66c9.8 9.8 15.1 22.8 15.1 36.6s-5.4 26.8-15.1 36.6c-9.8 9.8-22.8 15.1-36.6 15.1s-26.8-5.4-36.6-15.1l-23.2-23.2c-11.9-12-17.3-29.2-14.2-45.9l.6-3.1-2.4-2.1c-.3-.3-.7-.5-1-.8l-.4-.3-17.4-17.4c-10.5-10.6-10.5-27.8 0-38.3 5.1-5.1 11.9-7.9 19.2-7.9 7.2 0 14 2.8 19.2 7.9l17.6 17.7c.3.3.5.7.8 1l2.1 2.4 3.2-.6c16.7-3 33.8 2.3 45.8 14.2l23.3 23.2zm6.1-53.3c-12.4 2.2-24.6 5.6-36.4 10.1l-1 .4-1-.5c-6.6-3.2-13.7-5.2-21-5.9l-1.6-.2-7.5-23.5c-2.9-9.1-.7-19.2 5.7-26.3l.8-1h.1c1.3-1.3 2.8-2.6 4.4-3.6l.2-.2.3-.2c1.7-1.1 3.5-2 5.4-2.6.2-.1.3-.1.5-.2l.8-.3c2.1-.6 4.1-1 6.2-1.1h.4c2.2-.1 4.5.2 6.7.7h.3c9.4 2 17 9 19.9 18.2l7.5 23.8c.1.4.1.9.3 1.3.5 1.9 2 3.5 3.8 4.1 1.9.6 3.8 1.3 5.7 2.2l7.4 3.3-7.9 1.5z"/><path class="st0" d="M450.6 266.5c-1.1 1.2-2.5 2-4.1 2.1h-.5c-3.1 0-5.8-2.5-6-5.6-2.8-34.8-20.6-60.3-54.2-78-2.9-1.5-4.1-5.2-2.5-8.1 1.1-2.1 3.2-3.2 5.4-3.2.9 0 1.9.2 2.7.7 37.1 19.5 57.5 49 60.7 87.8.1 1.5-.5 3.1-1.5 4.3zM369.5 169c-.2 3.1-2.9 5.6-6 5.6-.3 0-.6 0-.9-.1-5.3-.8-10.8-1.2-16.1-1.2-3.3 0-6-2.7-6-6s2.7-6 6-6c6 0 12.1.5 18 1.4 3 .3 5.2 3.1 5 6.3z"/><g><path class="st0" d="M486.9 384H480v-2.5c-.1-19.8-6.2-41.8-16.4-58.9-11.1-18.6-25.4-29.4-40.5-30.4l-1.3-.1-.7-1.1c-11.5-19.1-27-30-42.5-30s-31 10.9-42.5 29.9l-.8 1.3h-4.8l-.8-1.3c-11.5-19-27-29.9-42.5-29.9s-31 10.9-42.5 30l-.7 1.1-1.3.1c-15 1-29.4 11.8-40.4 30.4-10.2 17.1-16.3 39.1-16.4 58.9v2.5H179c-13.8 0-25.1 11.3-25.1 25.1s11.3 25.1 25.1 25.1h11V476c0 19.6 16 35.6 35.6 35.6h32.3c10.6 0 20.9-4.9 27.6-13.2l1.9-2.4 1.9 2.4c6.7 8.2 17 13.2 27.6 13.2h32.3c10.6 0 20.9-4.9 27.6-13.2l1.9-2.4 1.9 2.4c6.7 8.2 17 13.2 27.6 13.2h32.3c19.6 0 35.6-16 35.6-35.6v-41.8h10.8c13.8 0 25.1-11.3 25.1-25.1S500.7 384 486.9 384zm-75.8-77.6l.4.9-.4-.9.2-.1c.3-.1.6-.3.9-.4l.5-.2c.3-.1.5-.2.7-.2.3-.1.5-.2.8-.3l.4-.1c.3-.1.6-.2 1-.3l.2-.1c.4-.1.7-.2 1-.2h.3c.3-.1.7-.1 1-.2h.3c.8-.1 1.6-.1 2.4-.1 25.8 0 46.9 42.3 47.1 77.2v2.5h-75.7v-2.5c0-1 0-1.9-.1-2.9v-.9c0-1-.1-2-.2-3.1v-.4c-.1-1.2-.2-2.4-.3-3.7v-.1c-.1-1.3-.3-2.5-.5-3.8-1.3-9.4-3.8-18.7-7.3-27.6l-.4-1 .8-1.8c.3-.5.5-1 .7-1.5l.1-.3c7.3-13.7 16.5-23.8 26.1-27.9zm-61.8-13.5c8.8-12.7 19.2-19.7 29.3-19.7 9.8 0 19.9 6.6 28.5 18.5l1.8 2.5-2.8 1.2c-10 4.4-19.4 13.2-27 25.5l-2.1 3.4-2.1-3.4c-3.1-5.1-6.6-9.6-10.3-13.4-.3-.3-.6-.7-1-1l-.4-.4c-4.1-4.1-8.4-7.3-12.9-9.6l-2.5-1.3 1.5-2.3zm-20.6 11.8c2.9-.5 5.8-.5 8.7 0h.2c12.1 2.4 24.4 15 32.8 33.7l.5 1.1c4.9 11.2 8.1 23.9 9 35.6l.1 1c0 .4 0 .8.1 1.2 0 .6.1 1.3.1 1.9v4.9h-94.3v-2.5-2.4c0-.6 0-1.3.1-1.9 0-.4.1-.8.1-1.2l.1-1c.9-11.8 4.1-24.4 9-35.6l.5-1.1c8.5-18.7 20.8-31.3 32.9-33.7h.1zM259 291.6c8.6-11.9 18.7-18.5 28.5-18.5 10.2 0 20.6 7 29.3 19.7l1.6 2.3-2.5 1.3c-4.5 2.3-8.8 5.5-12.9 9.5l-.5.5-.9.9c-3.7 3.9-7.2 8.4-10.3 13.5l-2.1 3.4-2.1-3.4c-7.6-12.3-17-21.1-27-25.5l-2.8-1.2 1.7-2.5zm-60.8 89.9c.2-35 21.3-77.2 47.1-77.2.8 0 1.6 0 2.4.1h.3c.3 0 .7.1 1 .2h.2c.4.1.7.1 1.1.2l.3.1c.3.1.6.1.9.2l.4.1c.3.1.5.2.8.2.2.1.4.2.7.2l.5.2c.3.1.7.3 1 .4l.2.1c9.7 4.2 18.9 14.3 26 28.3l.1.3c.2.5.5 1 .7 1.4l.8 1.8-.4 1c-3.5 8.9-5.9 18.1-7.2 27.5v.2c-.2 1.2-.3 2.4-.5 3.6v.2c-.1 1.2-.2 2.5-.3 3.7v.3c-.1 1-.1 2.1-.2 3.1v.9c0 1-.1 1.9-.1 2.9v2.5h-75.7l-.1-2.5zm288.7 40.7H470c-3.3 0-6 2.7-6 6V476c0 13-10.5 23.5-23.5 23.5h-32.3c-13 0-23.5-10.5-23.5-23.5 0-3.3-2.7-6-6-6s-6 2.7-6 6c0 13-10.5 23.5-23.5 23.5h-32.3c-13 0-23.5-10.5-23.5-23.5 0-3.3-2.7-6-6-6s-6 2.7-6 6c0 13-10.5 23.5-23.5 23.5h-32.3c-13 0-23.5-10.5-23.5-23.5v-41.8h219.6c3.3 0 6-2.7 6-6s-2.7-6-6-6H179.2c-7.2 0-13-5.9-13-13 0-7.2 5.9-13.1 13-13.1h307.7c7.2 0 13.1 5.9 13.1 13.1 0 7.1-5.9 13-13.1 13z"/><path class="st0" d="M441.8 418.8c0 .8-.3 1.5-.9 2.1-.1.1-.3.3-.4.3-.2.1-.4.2-.5.3-.2.1-.4.1-.5.2-.4.1-.8.1-1.2 0-.2 0-.4-.1-.5-.2-.2-.1-.4-.2-.5-.3-.2-.1-.3-.2-.5-.4-.1-.1-.3-.3-.4-.5-.1-.2-.2-.3-.3-.5-.1-.2-.1-.4-.2-.5 0-.2-.1-.4-.1-.6s0-.4.1-.6c0-.2.1-.4.2-.6.1-.2.2-.3.3-.5.1-.2.2-.3.4-.5l.4-.4c.2-.1.4-.2.5-.3.2-.1.4-.1.6-.2h.6c.2 0 .4 0 .6.1.2 0 .3.1.5.2s.4.2.5.3c.2.1.3.2.4.4l.4.4c.1.2.2.3.3.5.1.2.1.4.2.6v.7z"/></g></svg>