<svg id="Слой_1" xmlns="http://www.w3.org/2000/svg" viewBox="0 0 639.4 639.4"><style>.st0{fill:#1e1d25}</style><path class="st0" d="M344.7 479.5H326v-18.7h18.7v18.7zm-31.3 0h-18.7v-18.7h18.7v18.7z"/><path class="st0" d="M319.7 64C178.7 64 64 178.7 64 319.7s114.7 255.7 255.7 255.7 255.7-114.7 255.7-255.7S460.7 64 319.7 64zm236.8 265.1c-2.3 58.3-25.7 111.2-62.8 151.4l-16.9-16.9-13.2 13.2 16.9 16.9c-40.1 37.1-93.1 60.5-151.4 62.8v-24h-18.7v24c-58.3-2.3-111.2-25.7-151.4-62.8l16.9-16.9-13.2-13.2-16.9 16.9c-37.1-40.1-60.5-93.1-62.8-151.4h24v-18.7H83c2.3-58.3 25.7-111.2 62.8-151.4l16.9 16.9 13.2-13.2-16.9-16.9c40.1-37.1 93.1-60.5 151.4-62.8v24h18.7V83c58.3 2.3 111.2 25.7 151.4 62.8l-16.9 16.9 13.2 13.2 16.9-16.9c37.1 40.1 60.5 93.1 62.8 151.4h-24v18.7h24z"/><path class="st0" d="M304.1 143l-12.5 12.5v108h18.7V163.3l1.6-1.6h15.6l1.6 1.6v100.2h18.7v-108L335.3 143h-31.2zM375.9 291.6v18.7h71.5l1.6 1.6v15.6l-1.6 1.6h-71.5v18.7h79.3l12.5-12.5v-31.1l-12.5-12.5h-79.3zM291.6 347.8h56.2v-56.2h-56.2v56.2zm18.7-37.5H329V329h-18.7v-18.7z"/><path class="st0" d="M545.7 93.6C485.3 33.3 405.1 0 319.7 0S154 33.3 93.6 93.6C33.3 154 0 234.3 0 319.7s33.3 165.7 93.6 226.1c60.4 60.4 140.7 93.6 226.1 93.6 75.9 0 149.4-27.1 207.1-76.2l-12.1-14.3c-54.3 46.2-123.6 71.7-195 71.7-165.9 0-301-135-301-300.9 0-165.9 135-301 301-301 165.9 0 300.9 135 300.9 301 0 71.4-25.5 140.7-71.7 195l14.3 12.1C669.7 401.7 665.1 213 545.7 93.6z"/></svg>