<svg id="Layer_1" xmlns="http://www.w3.org/2000/svg" width="633.8" height="634.4" viewBox="0 0 633.8 634.4"><style>.st0{fill:#1e1d25}</style><path class="st0" d="M325.9 460.8v13.7h13.7v-13.7h-13.7zm-31.2 0v13.7h13.7v-13.7h-13.7z"/><path class="st0" d="M317.2 64C177.5 64 63.9 177.6 63.9 317.2s113.6 253.2 253.3 253.2 253.2-113.6 253.2-253.2S456.8 64 317.2 64zm239.3 262.7c-2.2 56.8-24.8 111.1-63.5 153l-1.8 1.9-16.9-17-9.7 9.7 17 17-1.9 1.8c-41.9 38.7-96.2 61.3-153 63.5l-2.6.1v-24.1h-13.7v24.1l-2.6-.1c-56.8-2.2-111.1-24.8-153-63.5l-1.9-1.8 17-17-9.7-9.7-17 17-1.8-1.9c-38.7-41.9-61.3-96.2-63.5-153l-.1-2.6h24.1v-13.7H77.8l.1-2.6c2.2-56.8 24.8-111.1 63.5-153l1.8-1.9 17 17 9.7-9.7-17-16.9 1.9-1.8c41.9-38.7 96.2-61.3 153-63.5l2.6-.1v24h13.7V77.8l2.6.1c56.8 2.2 111.1 24.8 153 63.5l1.9 1.8-17 16.9 9.7 9.7 16.9-17 1.8 1.9c38.7 41.9 61.3 96.2 63.5 153l.1 2.6h-24.1V324h24v2.7z"/><path class="st0" d="M342.8 154.1v104.4H329v-98.7l-3-3.1h-17.7l-3 3.1v98.7h-13.7V154.1l11-11.1h29.1zM462.6 302.7v29.1l-11 11h-75.7v-13.7h70l3-3v-17.7l-3-3h-70v-13.8h75.7zM291.6 291.6v51.2h51.2v-51.2h-51.2zm37.4 37.5h-23.7v-23.7H329v23.7z"/><path class="st0" d="M560.4 520.8l-10.5-8.9c45.6-54.5 70.7-123.5 70.7-194.7 0-167.3-136.1-303.4-303.4-303.4-167.4 0-303.5 136.1-303.5 303.4s136.1 303.4 303.4 303.4c71.2 0 140.2-25.1 194.7-70.7l8.9 10.5c-57 47.7-129.2 74-203.6 74-84.7 0-164.4-33-224.3-92.9C33 481.6 0 401.9 0 317.2S33 152.8 92.9 92.9 232.5 0 317.2 0s164.3 33 224.3 92.9c115.4 115.5 123.5 303 18.9 427.9z"/></svg>