<svg id="Layer_1" xmlns="http://www.w3.org/2000/svg" width="512" height="512" viewBox="0 0 512 512"><style>.st0{fill:#1e1d25}</style><path class="st0" d="M507 208.6c0-11.1-4.3-21.5-12.1-29.3L332.8 17.1C324.9 9.3 314.5 5 303.4 5s-21.5 4.3-29.3 12.1l-257 257C9.3 281.9 5 292.3 5 303.4s4.3 21.5 12.1 29.3l19.4 19.4.2.1.5.6L180 495.7h-30.7c-3.1 0-5.7 2.5-5.7 5.7 0 3.1 2.6 5.7 5.7 5.7h213.3c3.1 0 5.7-2.5 5.7-5.7 0-3.1-2.5-5.7-5.7-5.7H237.1l257.8-257.8c7.8-7.8 12.1-18.2 12.1-29.3zM229.9 486.9c-5.7 5.7-13.2 8.8-21.3 8.8-8.2 0-15.7-3.1-21.4-8.8L49.1 348.7 299.5 98.4c2.2-2.2 2.2-5.8 0-8s-5.8-2.2-8 0L41.1 340.7l-16-16c-5.7-5.7-8.8-13.2-8.8-21.3s3.1-15.7 8.8-21.3l257-257c5.7-5.7 13.2-8.8 21.3-8.8 8.1 0 15.7 3.1 21.3 8.8L386 86.4 135.6 336.7c-2.2 2.2-2.2 5.8 0 8 1.1 1.1 2.5 1.7 4 1.7s2.9-.6 4-1.7L394 94.4l92.9 92.9c11.8 11.8 11.8 30.9 0 42.6l-257 257z"/><path class="st0" d="M259.3 319.6l-83.9 83.9c-1.1 1.1-2.5 1.7-4 1.7s-2.9-.6-4-1.7c-2.2-2.2-2.2-5.8 0-8l83.9-83.9c1.1-1.1 2.6-1.7 4-1.7s2.9.5 4 1.6c2.2 2.3 2.2 5.9 0 8.1zM239.9 399.3l-34.4 34.4c-1.1 1.1-2.5 1.7-4 1.7s-2.9-.6-4-1.7c-2.2-2.2-2.2-5.8 0-8l34.4-34.4c2.2-2.2 5.8-2.2 8 0s2.2 5.8 0 8zM271.6 367.6l-4.5 4.5c-1.1 1.1-2.5 1.7-4 1.7s-2.9-.6-4-1.7c-2.2-2.2-2.2-5.8 0-8l4.5-4.5c1.1-1.1 2.5-1.6 4-1.6s2.9.6 4 1.7c2.2 2.1 2.2 5.7 0 7.9zM433.7 197.5l-30.2-30.2c-1.1-1.1-2.5-1.7-4-1.7s-2.9.6-4 1.7l-45.3 45.3c-1.1 1.1-1.7 2.5-1.7 4s.6 2.9 1.7 4l30.2 30.2c1.1 1.1 2.5 1.7 4 1.7s2.9-.6 4-1.7l45.3-45.3c2.2-2.2 2.2-5.8 0-8zm-49.2 41.2l-22.2-22.2 37.2-37.2 22.2 22.2-37.2 37.2zM330.5 65c0 1.5-.6 2.9-1.7 4l-4.5 4.5c-1.1 1.1-2.5 1.7-4 1.7s-2.9-.6-4-1.7c-2.2-2.2-2.2-5.8 0-8l4.5-4.5c1.1-1.1 2.5-1.7 4-1.7s2.9.6 4 1.7 1.7 2.5 1.7 4zM118.8 369.6l-4.5 4.5c-1.1 1.1-2.5 1.6-4 1.6s-2.9-.6-4-1.6c-2.2-2.2-2.2-5.8 0-8l4.5-4.5c2.2-2.2 5.8-2.2 8 0s2.2 5.8 0 8z"/></svg>