<svg id="Layer_1" xmlns="http://www.w3.org/2000/svg" width="444.8" height="412" viewBox="0 0 444.8 412"><style>.st0{fill:#1e1d25}</style><path class="st0" d="M443.4 173.3l-59.6-39.5V3.5c0-1.9-1.6-3.5-3.5-3.5H64.8c-1.9 0-3.5 1.6-3.5 3.5v130.3L2.9 172.5l-1.3.8C.6 174 0 175 0 176.2v232.3c0 1.9 1.6 3.5 3.5 3.5h437.8c1.9 0 3.5-1.6 3.5-3.5V176.2c.1-1.1-.4-2.2-1.4-2.9zm-59.6-31.1l46.1 30.5h-46.1v-30.5zm0 37.5h43.6l-43.6 23.1v-23.1zM68.3 7h308.5v199.6L247 275.4l-22.6-15c-1.2-.8-2.7-.8-3.9 0l-22.5 15-129.7-68.8V7zm-7 135.2v30.5H15.2l46.1-30.5zm0 37.5v23.1l-43.6-23.1h43.6zm-54.2 2.4l184.3 97.8L7.1 402V182.1zM15.2 405l207.3-137.4L429.8 405H15.2zm422.7-3L253.6 279.8 437.9 182v220z"/><path class="st0" d="M219.8 90.4c-15.7 0-28.4 12.7-28.4 28.4s12.7 28.4 28.4 28.4c6.9 0 13.5-2.5 18.7-7.1l3.6-3.1 2.5 4c4.1 6.6 11.2 10.6 19 10.6 12.3 0 22.3-10 22.3-22.3v-5.5c0-34.9-28.4-63.3-63.3-63.3s-63.3 28.4-63.3 63.3v2.2c0 34.9 28.4 63.3 63.3 63.3h59.8c1.9 0 3.5-1.6 3.5-3.5s-1.6-3.5-3.5-3.5h-59.8c-31 0-56.3-25.2-56.3-56.3v-2.2c0-31 25.2-56.3 56.3-56.3 31 0 56.3 25.2 56.3 56.3v5.5c0 8.4-6.9 15.3-15.3 15.3-8.5 0-15.3-6.9-15.3-15.3v-10.5c-.2-15.6-12.9-28.4-28.5-28.4zm0 49.8c-11.8 0-21.4-9.6-21.4-21.4s9.6-21.4 21.4-21.4c11.8 0 21.4 9.6 21.4 21.4-.1 11.8-9.6 21.4-21.4 21.4z"/></svg>