<svg xmlns="http://www.w3.org/2000/svg" width="512" height="512"><path d="M454.8 53.5c-34.1-33.4-79-51.5-126.6-51-47.5.5-92.1 19.7-125.5 53.9-39.9 40.9-57.6 96.6-48.5 152.8l.5 2.9h-3.2c-62.6 0-116 37.6-139.3 98.1-27 75.1 11.4 159.8 85.9 188.8.3.1.8.3 1.6.6 13.9 5.3 28.4 8.4 43.3 9.3 26.5 1.6 49.8-16.2 55.3-42.4l2.7-12.7-3.6-12.6c-6.2-21.9-25.5-37.5-48-38.9-13.7-.8-25.8-8-33-19.7-7.3-11.8-8.3-25.8-2.9-38.5 8.6-19.8 31.3-30 51.7-23 .1 0 .3.1.5.2 8 2.8 15.2 2.9 19.9 2.4l2.2-.2.5 2.2c6 26.2 11.7 68.1 12.2 80.5.9 11.2 1.6 22.8 1.9 34.4l.5 20-1.4-5 1.8 11.2c1 6 3.5 12.1 4.3 14l.4.7c9 18.2 27.1 29 47.2 28.1 8.8-.4 17.1-4.7 22.7-11.5 5.7-7 8.2-16.2 6.9-25.2l-10.3-67.3 4.2 2c3.3 1.5 6.8 3 10.4 4.5 5.2 2.1 9.7 0 12.1-2.6 2.3-2.5 3.9-6.8 1.6-11.5l-21.6-43.7 6 2.3c11.2 4.4 25 8.4 41.1 12 4 .9 8-.6 10.5-3.8 2.8-3.5 3-7.6.6-12-.1-.2-.2-.3-.2-.5-9.1-18.2-26.2-52-69.2-73.3l-2.4-1.2 1.3-2.3c12.7-22.4 35.5-35.7 61.1-35.7h1.4c26.2.5 49.1 14.8 61.3 38.3 7.4 14.2 9.6 30.6 6.3 46.3-3.7 17.6-22.7 147.2-22.9 148.5-1.4 9.2 1.3 18.5 7.3 25.6 5.9 6.8 14 10.7 23.7 11 12.6.5 26.3-5.1 35.8-14.6 15.2-15.2 14.8-33 14.6-39.6v-2.6c0-27.4 2.2-70.2 12.8-119.2.3-1.3.5-2.3.5-2.6v-.2c6.3-29.1 15-58.4 25.9-87.2 25-66 8.5-140.6-41.9-190zM163 415.7c11.9 5 20.8 15 24.6 27.5 3.7 12.2 1.8 25.4-5.3 36.2-8.1 12.4-21.4 19.5-35.9 19.5-.9 0-1.8 0-2.7-.1-7.8-.5-15.6-1.6-23.3-3.4l-6.1-1.4 5.4-3.1c26.9-15.7 41.1-41.5 39.9-72.6l-.1-3.9 3.5 1.3zm-42.3-11.1l1.4-1.5 1.7 1.1c2.9 1.9 6.1 3.5 9.4 4.8 5.6 2.2 9.6 2.7 12.3 3.1.6.1 1.1.2 1.6.2l1.9.3.2 1.9c3.2 33.5-14.3 60.5-48.1 74.1l-.9.4-.9-.4c-34.7-14.3-52.4-37.7-58.2-45.4-.7-.9-1.3-1.7-1.5-1.9l-5.1-5.5 7.4 1.3c25.9 4.5 54.6-7.3 78.8-32.5zm27.8-97.4l-.4 1.7-1.8.2c-12.7 1.4-24.4 7.4-33 16.9l-1.7 1.8-1.9-1.7c-7.7-6.8-20.6-16-38.9-20.7-1.3-.3-2.7-.2-3.8.5-1.2.7-2 1.8-2.3 3.1-.7 2.7.9 5.4 3.6 6.1 18.1 4.8 30.5 14.5 36.3 19.9l1.4 1.3-.8 1.7c-6.5 12.9-6.9 28.9-1.1 42.6 2.8 6.6 5.8 10.3 7.8 12.8.5.6.8 1 1.2 1.5l1.3 1.7-1.5 1.5c-19.1 19.5-39.9 29.7-59.7 29.7-8.3 0-16.5-1.8-24.2-5.4l-.8-.4-.4-.8c-16-32.8-18.5-69.8-7.1-104.2l.4-1.3 1.3-.3c6-1.5 12-2.4 17.8-2.8 1.3-.1 2.6-.7 3.5-1.7.9-1 1.3-2.3 1.2-3.6-.1-1.3-.7-2.6-1.7-3.5-1-.9-2.3-1.3-3.7-1.2-3.1.2-6.3.6-9.3 1l-4.7.8 2.1-4.3C54 245.8 104 230 118.7 226.5c.2 0 .3-.1.4-.1l1.6-.8 1.3 1.6c10.4 13.3 33.8 47.9 26.5 80zm32.7 6.5c-5.5 0-10-1.3-12.4-2.1l-.3-.1c-3.2-1.1-5.4-1.5-6.9-1.8-.3-.1-.6-.1-.8-.2l-2.3-.5.4-2.4c5.6-31.9-12.8-63.5-24.3-79.5l-3-4.2 5.1.3c.2 0 .6-.1 1-.1 28.3-3.2 57.8 3 83.3 17.6 7.6 4.4 12.6 11.9 13.6 20.7 1 8.9-2.2 17.6-8.8 23.7-6.9 6.3-11.6 10.7-15 13.9-6.4 6.1-8.6 8.1-12.7 10.4-6 3.3-11.8 4.3-16.9 4.3zm27.8 75.2c-1.6-15.1-3.9-30.4-6.7-45.3l-3.5-18.9L207 342c5.4 11.3 12.9 22 22.5 31.7l2 2.1-2.4 1.7c-5.6 4-11 8.3-16 12.9l-3.6 3.3-.5-4.8zm8.4 78.3l-1.8 1.5-2.4-2.4v-.8c-.6-3.5-.6-7.6-.7-13.7 0-8.6-.1-21.6-1.9-43.7v-1.2l.7-.7c8.1-8.4 16.9-15.8 26.2-22.2l1.6-1.1 1.4 1.2c6.6 5.4 13.8 10.4 21.6 14.9l1 .6 5.7 37.1-1.9.7c-17.8 7.1-34.6 17.1-49.5 29.8zm57.4 7.1c1 6.3-.8 12.7-4.9 17.5-4.1 4.8-10 7.5-16.8 7.7h-.6c-13.1 0-25.3-6.7-32.8-18l-1.2-1.8 1.6-1.5c14.2-12.8 30.2-23 47.6-30.2l2.9-1.2 4.2 27.5zm54-120.3l2.4 4.8-5.2-1.2c-39.3-9.2-51.8-18.6-53.1-19.6l-.2-.2c-2.2-2.1-4.7-1.5-6.3-.3-1.7 1.2-2.9 3.5-1.5 6.4.6 1.2 14.1 28.4 21.5 43.5l7.8 15.8-6.2-2.7c-41.7-17.8-70.1-46.9-77.9-79.8l-.3-1.3.9-1c13.1-13.8 28.8-25.5 45.3-33.9l1.1-.5 1.1.5c31.2 13.4 53 34.9 70.6 69.5zm-3.7-124.2l-2.3.2c-26.5 2.4-50 17.8-63 41.1l-.4.7-2.7 1.3-1-.4c-2.9-1.1-6.1-2.2-9.3-3.2l-1.9-.6.1-2c.9-14.4-6.3-27.8-18.7-34.9-2.6-1.5-5.4-3-8.2-4.4l-3.2-1.6 2.6-2.5c28.8-27.2 66.3-43.3 105.4-45.1l2.6-.1v51.5zm0-61.5l-2.4.1c-44.1 1.9-85.7 20.5-117.1 52.3l-1.1 1.2-1.5-.6c-9.8-3.6-20.1-6.2-30.5-7.7l-2.9-.4.8-2.8c10.4-34 30.2-63.3 57.4-84.9 27.3-21.6 60-33.9 94.6-35.5l2.6-.1v78.4zm0-88.5l-2.4.1c-68.6 3-128.2 45.2-155.6 110.3l-4.3 10.1-.5-11c-2.2-45 13.2-88.1 43.5-121.4 30.1-33.1 72.6-53.2 116.6-55.2l2.6-.1v67.2zm115.7 401.9c-6.7 9.9-18.9 17.1-30.4 17.8h-1.7c-7.1 0-13.3-2.7-17.5-7.6-4.1-4.9-6-11.2-5-17.5l4.1-27.3 3 1.2c17.3 7.2 33.2 17.4 47.3 30.2l1.6 1.5-1.4 1.7zm8.5-73.8c-1.7 20.8-1.7 34.8-1.7 44 0 6.3 0 10.5-.5 13.6v5.2l-4.1-3.5c-14.8-12.6-31.5-22.6-49.4-29.7l-1.9-.7.3-2c1.1-7.5 7.8-52.4 8.9-59.9l.5-3.4 3.1 1.6c16.3 8.4 31.2 19.4 44.1 32.8l.8.8-.1 1.2zm11-75.6c-5 23.8-7.1 40.6-8.4 50.7-.3 2.2-.5 4.2-.8 5.9l-.6 4.7-3.5-3.2c-12.7-11.5-27-21-42.3-28.4l-1.7-.8.5-3.2c1.6-10.5 3.1-20.5 5.4-31.7 2.4-11.6 2.3-23.3-.4-34.8l-1.3-5.7 5 2.9c18.3 10.7 34.3 24.6 47.6 41.4l.7.9-.2 1.3zm37-132.1l-4.2-10.1c-18.3-43.7-53.4-79-96.1-97a5 5 0 0 0-3.8 0c-1.2.5-2.2 1.5-2.7 2.7-1.1 2.6.1 5.5 2.7 6.6 49.7 20.9 87 65.4 99.7 119.1l.1.6-.2.6c-2.1 8.2-4 13.2-6.3 19.5-.9 2.5-2 5.3-3.1 8.6l-1.7 4.9-2.8-4.4c-3.4-5.4-7.1-10.6-10.9-15.4-.8-1.1-2-1.7-3.4-1.9-1.3-.1-2.6.2-3.7 1-2.2 1.7-2.6 4.9-.8 7.1 6.3 8 11.9 16.6 16.7 25.6l.5.9-.3 1c-4.8 14.8-9 29.7-12.5 44.3l-.1.3-1.8 3.5-2.5-2.7c-16.4-18.2-36.6-33-58.5-43l-.8-.3-.4-.7c-2.4-4.3-5-8.1-8-11.8-22-27.1-51.6-29.2-54.9-29.4-.2 0-.4 0-.7-.1l-1.8-.5v-51.5l3.1.7c.1 0 .8.1 1.4.1 37 2.2 72.7 17.2 100.5 42.2 1 .9 2.3 1.3 3.6 1.3 1.3-.1 2.6-.7 3.5-1.7 1.8-2.1 1.7-5.3-.4-7.1-30.3-27.3-69.1-43.2-109.2-44.9H335V89.8l2.7.3c.3 0 .9.1 1.5.1 4 .2 13.5.8 25.9 3.5 1.3.3 2.7 0 3.8-.7 1.1-.7 1.9-1.8 2.2-3.2.6-2.7-1.1-5.4-3.8-6-12.5-2.8-21.5-3.3-27-3.7-1.2-.1-2.2-.1-3.1-.2l-2.3-.2V12.1l3 .7h.1c.3 0 .9 0 1.5.1C380 15 418.3 32 447.6 60.6c34.5 33.8 52.7 80.7 50.2 128.7l-.5 10.9z" fill="#1e1d25"/></svg>