<svg version="1.1" id="Capa_1" xmlns="http://www.w3.org/2000/svg" x="0" y="0" width="512" height="512" xml:space="preserve"><style>.st0{fill:#1e1d25;stroke:#1e1d25;stroke-width:2;stroke-miterlimit:10}</style><path class="st0" d="M388.8 464.2v-.2h-7v.2c0 5.5 1.7 10.5 4.8 14 2.3 2.6 3.4 5.8 3.1 9.3-.5 6.5-6.4 11.5-13.5 11.5H25.6c-7 0-13-5.1-13.5-11.5-.3-3.4.8-6.7 3.2-9.3 3.1-3.5 4.8-8.4 4.8-14V302.1c0-49.5 19.6-95.8 55.3-130.2 31.9-30.8 73.8-48.7 117.9-50.5l4.2-.2v12.5c0 1.9 1.6 3.5 3.5 3.5s3.5-1.6 3.5-3.5v-12.5l4.2.2c46.7 2 90.3 22.2 122.8 57 26.9 28.9 43.8 64.7 48.8 103.7h7c-5.1-40.8-22.6-78.2-50.8-108.4-25.5-27.3-57.7-46.2-93.2-54.5l-5.8-1.3 3.4-4.8c2.3-3.3 3.6-7.2 3.6-11.2 0-4.7-1.7-9.3-4.8-12.8l-2.3-2.6 2.3-2.6c28.5-32.5 28.9-76.3 28.9-78.1 0-1.9-1.6-3.5-3.5-3.5-8.9 0-13.5 2.3-17.6 4.4-3.9 1.9-7.3 3.6-14.5 3.6s-10.6-1.7-14.5-3.6c-4.1-2.1-8.8-4.4-17.6-4.4-8.9 0-13.5 2.3-17.6 4.4-3.9 1.9-7.3 3.6-14.5 3.6s-10.5-1.7-14.5-3.6c-4.1-2.1-8.8-4.4-17.6-4.4-1.9 0-3.5 1.6-3.5 3.5 0 1.8.3 45.6 28.9 78.1l2.3 2.6-2.3 2.6c-3.1 3.5-4.8 8.1-4.8 12.8 0 4 1.2 7.8 3.5 11.1l3.4 4.9-5.8 1.3c-32.9 7.6-63.3 24.1-88 47.9-37 35.7-57.4 83.7-57.4 135.2v162.1c0 3.8-1.1 7.1-3 9.3-3.6 4-5.3 9.1-4.9 14.5.8 10.1 9.8 18 20.5 18h350.7c10.7 0 19.7-7.9 20.5-18 .4-5.3-1.3-10.5-4.9-14.5-2-2.4-3.1-5.7-3.1-9.5zM141 14.6l-.7-6.4 6 2.1c1.8.7 3.4 1.5 5 2.2 4.1 2.1 8.8 4.4 17.6 4.4s13.5-2.3 17.6-4.4c3.9-2 7.3-3.6 14.5-3.6s10.5 1.7 14.4 3.6c4.1 2.1 8.8 4.4 17.7 4.4 8.9 0 13.5-2.3 17.6-4.4l.2-.1c1.6-.8 3.1-1.5 4.9-2.2l6-2.1-.7 6.3c-1.7 15.4-7.7 44.5-28.6 66.7l-1.5 1.6-2.2-.4c-1.2-.2-2.5-.3-3.7-.3h-10l1.3-5c1.7-6.8 3.2-14.6 4.2-23.2.2-1.9-1.1-3.7-3-3.9-1.9-.2-3.7 1.1-3.9 3-1.3 10-3 18.8-5.1 26.1l-.8 2.9h-13.2l-.8-2.9c-2.1-7.3-3.9-16.1-5.1-26.1-.1-.9-.6-1.8-1.3-2.3-.7-.6-1.7-.8-2.6-.7-1.9.2-3.3 2-3 3.9 1.1 8.5 2.5 16.3 4.2 23.1l1.3 5h-10c-1.2 0-2.5.1-3.7.3l-2.2.4-1.5-1.6c-21.1-21.7-27.1-50.9-28.9-66.4zm35.9 74.6H225c6.9 0 12.5 5.6 12.5 12.5s-5.6 12.5-12.5 12.5h-48.1c-6.9 0-12.5-5.6-12.5-12.5s5.6-12.5 12.5-12.5z"/><path class="st0" d="M76.2 470.4c0 2.5 2 4.5 4.5 4.5h240.5c2.5 0 4.5-2 4.5-4.5s-2-4.5-4.5-4.5H80.7c-2.4 0-4.5 2.1-4.5 4.5zM266.8 308.3c-1.5-6.1-5.4-10.7-10.9-12.8l-.8-.3-.1-.9c-.6-3.9-2.7-7.8-5.8-10.8-3.3-3.2-7.5-5-11.9-5.3l-.9-.1-.4-.8c-1.8-3.8-5-6.9-8.9-8.7-4.2-1.9-8.6-2-12.9-.4l-.9.3-.7-.7c-2.1-2.1-5.9-4.6-11.6-4.6-5.7 0-9.5 2.5-11.6 4.6l-.7.7-.9-.3c-2-.7-3.9-1.1-5.9-1.1-2.4 0-4.7.5-7 1.5-3.9 1.8-7.2 4.9-8.9 8.7l-.4.8-.9.1c-4.4.2-8.5 2-11.9 5.3-3.1 3-5.2 6.9-5.8 10.8l-.1.9-.8.3c-5.5 2.1-9.4 6.6-10.9 12.8-1.4 5.6-.7 12.2 1.8 16.4l.4.7-.3.7c-1.5 3.2-2.5 8.3-.7 13.4 1.2 3.3 4.6 9.1 14.3 10 3.7.3 9.3-.4 17-1.5 9.5-1.3 21.3-2.9 33.4-2.9 12.2 0 23.9 1.6 33.4 2.9h.1c7.7 1 13.3 1.8 16.9 1.5 9.7-.9 13.1-6.6 14.3-10 1.8-5 .8-10.2-.7-13.3l-.4-.7.4-.7c2.4-4.4 3.1-10.9 1.7-16.5zm-8 19c1.3 1.3 2.7 6.2 1.2 10.3-1.3 3.5-4.4 5.5-9.2 5.9-.4 0-.9.1-1.4.1-3.2 0-8.3-.7-14.1-1.5h-.3c-9.6-1.3-21.6-2.9-34-2.9-12.4 0-24.4 1.6-34 2.9h-.3c-6.7.9-12.6 1.7-15.5 1.4-4.8-.4-7.9-2.4-9.2-6-1.5-4.1-.1-9 1.2-10.3l2.4-2.3-2.6-2.1c-1.9-1.5-3.6-7.4-2.2-13.2 1.3-5.1 4.6-8.4 9.5-9.3l2.6-.5-.2-2.6c-.3-3.1 1.3-6.8 4.2-9.5 1.4-1.4 4.5-3.7 8.8-3.7.6 0 1.1 0 1.7.1l2.8.4.5-2.8c.6-3.1 3.3-6.3 6.7-7.8 2.4-1.1 6.3-1.9 10.8.8l2.8 1.8 1.4-3c.4-.8 2.9-4.5 8.7-4.5 5.8 0 8.3 3.8 8.7 4.5l.1.1 1.3 2.8 2.8-1.7c4.5-2.7 8.3-2 10.8-.8 3.4 1.5 6.1 4.7 6.6 7.8l.5 2.8 2.8-.4c5.2-.7 8.8 1.9 10.5 3.5 2.8 2.7 4.5 6.4 4.2 9.5l-.2 2.6 2.6.5c4.9.9 8.2 4.2 9.5 9.3 1.5 5.8-.3 11.7-2.2 13.2l-2.6 2.1 2.3 2.5z"/><path class="st0" d="M234.5 302.1l-.9-1c-5.8-6-16.1-13.1-32.6-13.1-17.2 0-27.7 7.6-33.5 14.1-2.7 2.9-5 6.4-6.8 10.1l-1.6 3.2 6.6 2.1 1.1-2.3c1.6-3.1 3.5-5.9 5.7-8.4 7.1-7.7 16.9-11.8 28.3-11.8h.1c11.7 0 21.1 3.9 28.2 11.5 3 3.2 4.9 6.5 6 8.7l1.1 2.3 6.6-2.1-1.5-3.1c-1.2-2.6-3.4-6.4-6.8-10.2zM501.8 438.7l1.4-1.9c3.8-5.2 6-12.3 5.8-19.4-.2-7.6-2.8-14.5-7.7-19.9l-1.6-1.8.8-2.3c2.3-6.4 2.2-13.8-.3-20.5-2.6-7-7.6-12.3-14.4-15.4l-2.3-1.1v-2.6c0-4.9-1.4-12.1-8-18.8s-13.9-8-18.7-8h-2.6l-1.1-2.3c-3.1-6.8-8.5-11.8-15.4-14.4-6.6-2.5-14.1-2.6-20.5-.3l-2.3.8-1.8-1.6c-5.4-4.9-12.3-7.5-19.9-7.7-7.1-.2-14.2 2-19.4 5.8l-1.9 1.4-2.1-1c-3.7-1.7-7.6-2.5-11.5-2.5-5.4 0-10.8 1.6-16 4.7-8.2 4.9-15 13.5-17.1 21.4l-.5 2-2 .7c-5.4 1.9-12.5 6.8-16.3 14.7-3.1 6.3-4.7 16.3 5 28 .6.7 1.3 1.5 2.1 2.3 4.3 4.3 11.3 9.6 20 16.3 13.2 10 29.5 22.5 44.3 37.3 14.8 14.8 27.3 31.1 37.2 44.3 8.1 10.6 13.9 18.3 18.6 22.2 11.6 9.7 21.6 8.1 28 5 7.9-3.8 12.8-10.9 14.7-16.3l.7-2 2-.5c7.9-2 16.5-8.9 21.4-17.1 5.4-8.9 6.1-18.7 2.2-27.5l-.8-2zm-7-3.4l-2.5 2.1 1.9 2.7c5.2 7.7 5.3 16.1.3 24.5-5.2 8.7-14.9 14.7-20.1 14.1l-4.1-.4.1 4.2c0 3.3-4.2 11.7-11.9 15.3-2.2 1-4.4 1.5-6.6 1.5-4.3 0-8.8-1.9-13.3-5.7-4.1-3.4-10-11.2-17.5-21-10.1-13.3-22.7-29.9-37.9-45-15.2-15.2-31.7-27.8-45-37.9-9.9-7.5-17.6-13.4-21-17.5-5.7-6.9-7.1-13.6-4.2-20 3.5-7.6 11.9-11.8 15.3-11.9h.1l4.1.1-.4-4.1c-.5-5.2 5.4-14.8 14.1-20.1 8.3-5 16.8-4.9 24.4.3l2.7 1.8 2.1-2.5c3.6-4.4 10.6-7.1 17.7-7 3.6.1 10.5 1 16.1 6.7.7.7 1.4 1.5 2 2.3l2.1 2.8 2.8-2c4.9-3.4 12.5-4 18.9-1.5 6.6 2.5 11.2 7.9 13 15.2v.1l.8 3.9 4-1.5c1.6-.4 9.9-2.2 17.5 5.4 7.6 7.6 5.8 15.9 5.4 17.5l-.1.3-1.3 3.5 4 1c7.3 1.8 12.6 6.4 15.1 13 2.4 6.4 1.8 14-1.5 18.9l-2 2.9 2.8 2.1c7.6 5.8 8.9 13.9 9 18.2.2 7-2.6 14-6.9 17.7z"/><path class="st0" d="M393.8 464.2v-5.1h-4.1l1.7 2.1c.2.3.4.5.6.8l1.8 2.2zM388.5 341.9c-10.8.5-19.3 3.4-23.5 5l-1 .4 4.4 8.2.8-.3c4.3-1.6 11.2-3.7 19.8-4.1 18.5-.9 35.3 6 49.9 20.6 14.4 14.4 21.4 31 20.6 49.3-.4 9.3-2.8 16.8-4.1 20.4l-.3.8 8.2 4.3.4-1c1.7-4.2 4.5-12.8 5.1-23.4.7-14.6-2.7-36.3-23.3-56.9-20.7-20.6-42.4-24-57-23.3z"/></svg>