<svg version="1.1" id="Layer_1" xmlns="http://www.w3.org/2000/svg" x="0" y="0" width="410.8" height="507.2" xml:space="preserve"><style>.st0{fill:#1e1d25}</style><path class="st0" d="M173.8 478c0-1.6.5-3.1 1.3-4.3-.2 2.2-.5 4.3-1.1 6.3-.1-.6-.2-1.3-.2-2zM410.8 413.9V478c0 2.8-2.3 5-5 5H181.4c-2.8 0-5-2.3-5-5 0-2.8 2.3-5 5-5h219.4v-59.1c0-2.8 2.3-5 5-5 2.8 0 5 2.2 5 5z"/><path class="st0" d="M172.7 473c-.9 1.5-1.4 3.2-1.4 5.1 0 .7.1 1.4.2 2 .3 1.3.8 2.5 1.5 3.6.4-1.2.8-2.4 1-3.6.5-2.1.9-4.2 1.1-6.3.1-1.2.2-2.5.2-3.7-1 .7-1.9 1.7-2.6 2.9zM408 217c-.7-.4-1.5-.5-2.3-.5-1.1 0-2.1.3-3 1l-29 21.8-29.1-21.8c-1.8-1.3-4.2-1.3-6 0l-15.8 11.8-.8-3.8c-1.2-5.4-3-10.8-5.5-15.9-2.2-4.5-4.7-9-7.6-13.4l-3.6-5.5 32.2 8.8c1.3.3 2.7.1 3.9-.6 1.2-.7 2-1.8 2.3-3.2.6-2.6-1-5.3-3.6-6l-43.4-11.8c-.4-.1-.8-.2-1.3-.2h-1l-.7-.8c-6.1-6.3-12.5-11.7-19.1-15.9l-1.7-1.1.7-1.9c5.5-15.3 11.4-30.1 17.6-43.9l.9-2.1 2.3.8c.1 0 .1 0 .2.1l54.2 14.7c1.3.4 2.7.2 3.9-.6 1.2-.7 2-1.8 2.3-3.1.6-2.6-1-5.3-3.6-6l-55.1-15 1.3-2.7c10-21 20.2-38.9 30.3-53.3 18.8-26.7 36.1-39.6 48.5-36.3 12.8 3.5 21.4 25.2 23.7 59.6 2.4 36.3-2.2 84.8-13.1 136.5-.5 2.6 1.1 5.3 3.7 5.9 1.3.3 2.7.1 3.9-.6 1.2-.7 2-1.9 2.3-3.2 10.7-51.2 15.5-99.8 13.4-136.8-1.6-29-8.4-64.9-31.2-71.1-17.1-4.6-37.6 9.3-59.4 40.3-18.9 26.9-38.4 66.6-54.8 111.6l-.9 2.4-2.4-.9c-6.2-2.4-12.2-3.7-18-3.9-10.5-.3-25.8 3.2-39.4 20.9l-2.5 3.2-19.7-40.8 5.4 1.6c6.9 2.1 14.6 1.5 21-1.7 9.3-4.5 15.6-13.7 16.3-24 .1-1.8-.7-3.5-2.2-4.5-8.6-5.8-19.7-6.6-29-2.1-6.5 3.1-11.6 8.6-14.3 15.5l-2.1 5.3-4.8-10c-1.2-2.5-4.2-3.5-6.7-2.3s-3.5 4.2-2.3 6.7l29.3 60.7-4.1-.1H186c-1.3 0-2.6.6-3.5 1.5-.9 1-1.4 2.2-1.4 3.6 0 2.7 2.3 4.9 5 4.9h.1c4.4-.1 9.1.3 14.1 1.2 2.1.4 4.2-.7 5.3-2.5 10-18.3 22.7-27.4 37.7-27.1 6.6.2 13.6 2.2 20.7 5.9l.2.1.6.3.2.1c16.3 8.9 33 27.4 42.5 47 3.2 6.7 5.2 13.6 5.8 20.5.1 1 0 2.1-1.3 3l-2.4 1.8-29-21.8c-1.8-1.3-4.3-1.3-6 0l-29 21.8-29.2-21.6c-1.8-1.3-4.2-1.3-6 0l-27.2 20.4c-1.1.8-1.8 2-2 3.3s.2 2.6 1 3.7 2 1.8 3.3 2 2.7-.2 3.7-1l24.2-18.1 29.1 21.8c1.8 1.3 4.2 1.3 6 0l29-21.8 29 21.8c1.8 1.3 4.3 1.3 6 0l29.1-21.8 29 21.8c1.8 1.3 4.3 1.3 6 0l24-18v150.3c0 2.8 2.3 5 5 5 2.8 0 5-2.3 5-5V221.5c.2-1.9-.9-3.6-2.6-4.5zm-219.5-94.4c1.8-4.6 5.1-8.2 9.5-10.3 2.6-1.3 5.4-1.9 8.3-1.9 1.9 0 3.9.3 5.7.9l2.5.8-1 2.5c-1.8 4.6-5.1 8.2-9.5 10.3-2.6 1.3-5.4 1.9-8.3 1.9-1.9 0-3.9-.3-5.8-.9l-2.5-.8 1.1-2.5zM266.5 317.7c0 2.8-2.3 5-5 5h-56.1c-2.8 0-5-2.3-5-5 0-2.8 2.3-5 5-5h56.1c2.8 0 5 2.3 5 5zM314.6 365.8c0 2.8-2.3 5-5 5H205.4c-2.8 0-5-2.3-5-5s2.3-5 5-5h104.2c2.8 0 5 2.3 5 5z"/><g><path class="st0" d="M314.6 413.9c0 2.8-2.3 5-5 5H205.4c-2.8 0-5-2.3-5-5 0-2.8 2.3-5 5-5h104.2c2.8 0 5 2.2 5 5z"/></g><g><path class="st0" d="M171.3 478c0 .7.1 1.4.2 2 .6-2.3 1-4.7 1.2-7.1-.9 1.5-1.4 3.3-1.4 5.1zm-13.9-318l-43.2-37V82.3h11c2.8 0 5-2.3 5-5 0-2.8-2.3-5-5-5h-3V29.2c0-2.8-2.3-5-5-5H53.1c-2.8 0-5 2.3-5 5v43.1h-3c-2.8 0-5 2.3-5 5 0 2.8 2.3 5 5 5h11v40.8l-43.2 37C4.7 167.1 0 177.4 0 188.3v281.8c0 20.4 16.6 37.1 37.1 37.1h96.2c20.4 0 37.1-16.6 37.1-37.1V188.2c-.1-10.9-4.8-21.1-13-28.2zM58.1 34.2h54.1v38.1H58.1V34.2zM10 299.2l2.3-.2c3-.2 5.9-.3 8.7-.3 41.5 0 67.1 18.2 67.1 35.1S62.4 368.9 21 368.9c-2.8 0-5.7-.1-8.7-.3l-2.3-.2v-69.2zm0 79.2l2.7.2c2.8.2 5.6.3 8.4.3 43.3 0 77.1-19.8 77.1-45.1s-33.9-45.1-77.1-45.1c-2.7 0-5.5.1-8.4.3l-2.7.2v-38.6h110.2v166.3H10v-38.5zM160.3 470c0 14.9-12.1 27-27 27H37.1c-14.9 0-27-12.1-27-27v-43.1h115.2c2.8 0 5-2.3 5-5V245.6c0-2.8-2.2-5-5-5H10v-52.4c0-7.9 3.4-15.4 9.4-20.5l44.9-38.5c1.1-1 1.8-2.3 1.8-3.8V82.3h38.1v43.1c0 1.5.6 2.9 1.8 3.8l44.9 38.5c6 5.2 9.4 12.6 9.4 20.5V470z"/><path class="st0" d="M172.7 473c-.9 1.5-1.4 3.2-1.4 5.1 0 .7.1 1.4.2 2 .3 1.3.8 2.5 1.5 3.6.4-1.2.8-2.4 1-3.6.5-2.1.9-4.2 1.1-6.3.1-1.2.2-2.5.2-3.7-1 .7-1.9 1.7-2.6 2.9z"/></g></svg>