<svg xmlns="http://www.w3.org/2000/svg" width="511" height="511"><path d="M508.3 292.2c1.9-36.1-9.7-69.4-31.6-91.5-20-20.1-31.9-51.9-31.9-84.9 0-45.6-29.8-82.8-66.4-82.8s-66.5 37.1-66.5 82.8c0 10.8-1.3 21.5-3.7 31.8l-1.1 4.7-3.2-3.7c-32.9-37.9-87-46.1-126-19l-3.9 2.7V31.7c0-2.8-2.3-5-5-5-2.8 0-5 2.3-5 5v39.2l-4.7-8.5C133.5 16 87.1 14.6 52.7 21.5c-1.5.3-2.7 1.2-3.4 2.6-.7 1.3-.8 2.9-.2 4.3.4 1 10.4 25.1 29.7 46.1 24.3 26.6 52.7 36.3 82 28.2l3.2-.9v30.6l-3.9-2.7c-21.9-15.2-51.1-19.7-78.2-12-29.6 8.3-53.3 30-66.9 61.2-1.1 2.5.1 5.5 2.6 6.6s5.5-.1 6.6-2.6c12.8-29.4 35-49.4 62.6-56.3 24.9-6.3 52-.9 70.9 13.9 6.5 5.5 15.8 5.5 22.2.1 20.2-15.9 47.5-20.8 73.3-13.2 29.4 8.7 52.9 32.6 64.2 65.7 13.6 39.5 9.5 79.4-12.2 118.7-7.9 14.2-15.2 27.2-22.1 39.9l-.9 1.6-1.8-.4c-15.7-3.4-27.1-6.1-35.4-8.1-16.7-4-23-5.5-33.2-5.3-1.3 0-2.6.6-3.5 1.5-.9 1-1.4 2.2-1.4 3.6s.6 2.6 1.5 3.5c1 .9 2.2 1.4 3.6 1.4 3-.1 6.2.1 9.5.5l2.5.3-4.8 43c-.2 1.3.2 2.7 1.1 3.7.8 1 2 1.7 3.4 1.8 2.8.3 5.2-1.7 5.5-4.4l4.7-42 2.7.6c30.1 6.9 49.6 11.3 73 16.7l2.2.5-2.4 21.5c-.1 1.3.2 2.7 1.1 3.7.8 1.1 2 1.7 3.4 1.9 2.8.3 5.3-1.7 5.6-4.4l2.3-20.4 2.7.6c2.3.5 29.7 6.8 56.9 13 27.7 6.3 55.3 12.6 56 12.8l2.2.5-6.1 54.4c-.3 2.8 1.7 5.2 4.4 5.5 2.8.3 5.3-1.7 5.6-4.4l5.9-53.3 17.3 4c19.3 4.4 32.1 22.5 29.9 42.1s-18.7 34.5-38.5 34.5l-79.8.1 3-27.3c.3-2.8-1.7-5.3-4.4-5.5-2.8-.3-5.3 1.7-5.6 4.4l-3.2 28.5-78.9.2 2.9-25.9c.1-1.3-.2-2.6-1.1-3.7-.8-1.1-2-1.7-3.4-1.9-1.3-.1-2.6.2-3.7 1.1-1.1.8-1.7 2-1.9 3.4l-1 8.6c-.8 7-1.8 15.7-1.8 16.1l-.2 2.2-40.4.1 4.8-43c.2-1.3-.2-2.6-1.1-3.7-.8-1-2-1.7-3.4-1.9-1.3-.1-2.6.2-3.7 1.1-1 .8-1.7 2-1.9 3.4l-4.9 44.1h-15c-30.4 0-56.9-20.5-64.5-49.9-8-30.9 7.1-63.2 36-76.9 1.2-.6 2.1-1.6 2.6-2.8.5-1.3.4-2.6-.2-3.8-.6-1.2-1.6-2.1-2.9-2.6-1.3-.5-2.6-.4-3.8.2-14 6.7-25.6 17.2-33.3 30.4l-1.2 2-2.1-1c-20.6-10.3-35.1-23.1-43-38.2-6-11.3-17.2-13.1-25-11.2s-17 8.7-17.1 21.6v9.6l-28.2-51.3C13.9 277.9 8.6 244 15.5 210.6c.3-1.3 0-2.7-.7-3.8s-1.9-1.9-3.2-2.2-2.7 0-3.8.7-1.9 1.9-2.2 3.2c-7.4 35.8-1.8 72.1 16.3 105l34.5 62.7-28.2-3.2c-5.9-.7-11.8 1-16.4 4.8-4.7 3.7-7.6 9-8.2 15-1.5 12.2 7.4 23.3 19.6 24.6l44.6 5-4.2 3.7c-9.7 8.7-16.5 15.7-15.7 26.8.7 9.1 6.6 16.6 15.4 19.4 8.8 2.9 17.9.3 23.9-6.7 13.8-16.1 35-24 50.4-27.8l2.3-.6.7 2.2c10.2 31.9 39.5 53.3 73 53.3 6.7 0 84.8-.2 151-.3l93.5-.2c26.9 0 48.8-22 48.8-48.9 0-22.9-15.6-42.5-38-47.6l-10.5-2.4 4-3.2c26.7-21.9 43.9-58.5 45.9-97.9zM157.5 93.1c-5.8 1.6-11.5 2.3-16.8 2.3-41.1 0-67.9-42.1-78.2-62l-1.6-3.1 3.5-.5C113.3 23 147.9 45 159.3 90l.6 2.4-2.4.7zm-16.1 297.3c-4 11.1-5.3 23.2-3.9 34.8l.3 2.2-2.2.5c-23.9 5.8-43.8 16.9-56 31.3-2.4 2.8-5.9 4.3-9.3 4.3-2.8 0-5.7-1-8-2.9-2.5-2.1-4-5.1-4.3-8.4s.8-6.4 2.9-8.9c6.5-7.5 14.5-14.5 23.3-20.2 2.2-1.4 2.5-3.7 2.2-5.4-.4-1.7-1.7-3.5-4.3-3.8-6.5-.7-52.8-5.9-57.7-6.4-6.7-.8-11.6-6.8-10.8-13.5s6.8-11.5 13.5-10.9h.4c.8.1 3.4.4 11 1.2 7.6.9 20.2 2.3 41 4.6.7 0 1.5.1 2.4.3 3.8.6 6.5.8 8.1-2.5.9-1.9.5-4.2-.9-5.7-7.5-7.6-13.6-16-18.3-24.8-3.2-6-.9-13.4 5.1-16.6l.6-.3c5.9-2.7 12.9-.4 16 5.4 11.1 21.1 32.2 34.8 47.8 42.6l2 1-.9 2.1zm304.1-.6l-.9.5-152.1-34.8 1.6-2.9c5.2-9.5 9.8-17.8 14.3-26l2.1-3.9 2.2 3.8c14 24 39.8 39 67.5 39 37 0 69.2-26.3 76.4-62.6.3-1.3 0-2.7-.8-3.8-.7-1.1-1.9-1.9-3.2-2.1-2.7-.5-5.4 1.2-5.9 3.9-6.3 31.6-34.3 54.5-66.6 54.5-27.9 0-52.7-16.8-63.1-42.7l-.4-1.1.5-1c12.1-23.1 18.2-47.6 18-72.7v-1.2l.9-.8c18.3-15.6 42.8-20.4 65.6-12.7 23 7.7 39.7 26.4 44.8 49.8.6 2.7 3.3 4.4 6 3.9 1.3-.3 2.4-1.1 3.2-2.2.7-1.1 1-2.5.7-3.8-3.7-17.1-13.3-32.7-26.9-43.8-26.3-21.5-63.1-23.5-91.5-5l-3.3 2.2-.5-4c-2.6-20.4-9.4-40.5-19.2-56.6l-.6-1 .4-1.1c4.8-14.5 7.3-30 7.3-46 0-17.9 5.6-36 15.3-49.6 10.7-14.9 25.3-23.1 41.1-23.1 15.7 0 30.3 8.1 40.9 22.9 9.8 13.6 15.5 31.8 15.5 49.8 0 36.2 12.7 69.7 34.8 92 19 19.1 29.2 46.9 28.9 78.3-.3 29.8-10.3 59.2-27.3 80.8-7.7 9.7-16.3 17.4-25.7 23.1z" fill="#1e1d25"/></svg>