<svg id="Capa_1" xmlns="http://www.w3.org/2000/svg" width="512" height="512" viewBox="0 0 512 512"><style>.st0{fill:#1e1d25}</style><path class="st0" d="M504.7 222.4l-.1-.3c-.8-3.3-3.3-6-6.6-7.1-1.2-.4-30.6-9.9-72.4-7-38.6 2.7-95.5 17-148.1 69.5-52.6 52.6-66.8 109.6-69.5 148.1-2.9 41.9 6.6 71.2 7 72.4 1 3 3.3 5.3 6.3 6.3 1.1.4 23.3 7.6 56.4 7.6 5.1 0 10.4-.2 16-.6 38.6-2.7 95.5-17 148.1-69.5 93.1-92.9 68.7-199 62.9-219.4zM402 231.2c7.9-1.5 16-2.6 24.2-3.2 20.3-1.5 37.4.3 49.1 2.2-.5.3-1 .7-1.4 1.2L402 303.3v-72.1zm-20 5v87.1l-67 67V272.1v-1c20.7-16 43.1-27.7 67-34.9zM227.9 427c3.6-51.1 25-96.7 63.7-135.4l3.3-3.3V410.1l-64.8 64.8c-1.9-11.3-3.6-28-2.2-47.9zm65.3 64.4c-20.1 1.5-37.2-.2-48.9-2.2l31.2-31.2H391c-29.6 19.6-62.4 30.8-97.8 33.4zm134.5-63.6c-3.5 3.5-7.2 7-10.8 10.2H295.6l58-58h111.1c-9.2 15.9-21.2 32-37 47.8zm47.2-67.9H373.6L488 245.6c.4-.4.8-.9 1.1-1.4 4.2 24.2 6.8 68-14.2 115.7z"/><path class="st0" d="M234.5 277.5C181.9 225 124.9 210.7 86.4 208c-41.9-2.9-71.2 6.6-72.4 7-3.3 1.1-5.8 3.8-6.6 7.1l-.1.3c-5.8 20.3-30.2 126.5 62.8 219.5 29.5 29.5 63.3 50 100.4 61 .9.3 1.9.4 2.8.4 4.3 0 8.3-2.8 9.6-7.2 1.6-5.3-1.5-10.9-6.8-12.4-33.9-10-64.8-28.8-92-55.9-23.6-23.6-39-48.1-48.8-71.6h99.1l48.3 48.3c2 2 4.5 2.9 7.1 2.9s5.1-1 7.1-2.9c3.9-3.9 3.9-10.2 0-14.1l-11-11V263.1c12 8.2 23.4 17.7 34.4 28.6 3.9 3.9 10.2 3.9 14.1 0s4-10.2.1-14.2zM85 228c4.4.3 8.7.8 13 1.3v62l-60.4-60.4c-.2-.2-.5-.4-.7-.6 11.5-2 28.2-3.7 48.1-2.3zM28.4 336.2c-11.3-38.1-9-71.7-5.5-91.8l.6.6 91.2 91.2H28.4zM166 359.3l-48-48V233c16.7 3.9 32.7 10 48 18.1v108.2z"/><path class="st0" d="M188.9 449.6c-19.3-5.7-37.7-14.8-54.5-27.1-4.5-3.3-10.7-2.3-14 2.2-3.3 4.5-2.3 10.7 2.2 14 18.7 13.7 39.1 23.8 60.7 30.1.9.3 1.9.4 2.8.4 4.3 0 8.3-2.8 9.6-7.2 1.5-5.3-1.5-10.8-6.8-12.4zM110.3 401.8c-3.9-3.9-10.3-3.9-14.2 0-3.9 3.9-3.9 10.3 0 14.2 2 2 4.5 2.9 7.1 2.9s5.1-1 7.1-2.9c3.9-3.9 3.9-10.3 0-14.2zM128.2 127H74V83.5h37.3c5.5 0 10-4.5 10-10s-4.5-10-10-10H74V20h54.1c5.5 0 10-4.5 10-10s-4.5-10-10-10H64c-5.5 0-10 4.5-10 10v127c0 5.5 4.5 10 10 10h64.1c5.5 0 10-4.5 10-10 .1-5.5-4.4-10-9.9-10zM384 0c-40.5 0-73.5 33-73.5 73.5s33 73.5 73.5 73.5 73.5-33 73.5-73.5S424.5 0 384 0zm0 127c-29.5 0-53.5-24-53.5-53.5S354.5 20 384 20s53.5 24 53.5 53.5-24 53.5-53.5 53.5zM271.5 111.3c-20.9 20.9-54.8 20.9-75.7 0-20.9-20.9-20.9-54.8 0-75.7 20.9-20.9 54.8-20.9 75.7 0 3.9 3.9 10.2 3.9 14.1 0 3.9-3.9 3.9-10.2 0-14.1-28.7-28.7-75.3-28.7-103.9 0-28.7 28.7-28.7 75.3 0 103.9 14.3 14.3 33.1 21.5 52 21.5s37.6-7.2 52-21.5c3.9-3.9 3.9-10.2 0-14.1-3.9-3.9-10.3-3.9-14.2 0zM256.1 170.4c-5.5 0-10 4.5-10 10v28.3c0 5.5 4.5 10 10 10s10-4.5 10-10v-28.3c0-5.6-4.5-10-10-10zM314.4 197.9c-3.9-3.9-10.2-3.9-14.1 0l-20.4 20.4c-3.9 3.9-3.9 10.2 0 14.1 2 2 4.5 2.9 7.1 2.9 2.6 0 5.1-1 7.1-2.9l20.4-20.4c3.8-3.9 3.8-10.2-.1-14.1zM232.1 218l-20.4-20.4c-3.9-3.9-10.2-3.9-14.1 0-3.9 3.9-3.9 10.2 0 14.1l20.4 20.4c2 2 4.5 2.9 7.1 2.9s5.1-1 7.1-2.9c3.8-3.9 3.8-10.2-.1-14.1z"/></svg>