<svg id="Layer_1" xmlns="http://www.w3.org/2000/svg" width="512" height="512" viewBox="0 0 512 512"><style>.st0{fill:#1e1d25}</style><path class="st0" d="M16 501.5c0 3-2.4 5.5-5.4 5.5h-.1c-3 0-5.5-2.5-5.5-5.5s2.4-5.5 5.5-5.5h.1c3 .1 5.4 2.5 5.4 5.5zM507 501.5c0 3-2.5 5.5-5.5 5.5h-.1c-3 0-5.4-2.5-5.4-5.5s2.4-5.5 5.4-5.5h.1c3 .1 5.5 2.5 5.5 5.5zM94.8 55.4c0 3-2.4 5.5-5.5 5.5-11.8 0-22.6 8.2-29 21.9-.9 1.9-2.8 3.2-4.9 3.2-2.1 0-4-1.2-4.9-3.2-6.4-13.7-17.3-21.9-29-21.9-3 0-5.4-2.5-5.4-5.5s2.4-5.4 5.4-5.4c11.3 0 22 5.2 30.2 14.6l3.8 4.3 3.8-4.3c8.2-9.4 19-14.6 30.2-14.6 2.9 0 5.3 2.4 5.3 5.4zM127.7 255.3c0 3-2.4 5.5-5.5 5.5-11.8 0-22.6 8.2-29 21.9-.9 1.9-2.8 3.2-4.9 3.2s-4.1-1.2-4.9-3.1c-6.4-13.7-17.3-21.9-29-21.9-3 0-5.5-2.4-5.5-5.5 0-3 2.5-5.4 5.5-5.4 11.2 0 22 5.2 30.2 14.6l3.8 4.3 3.8-4.3c8.2-9.4 18.9-14.6 30.2-14.6 2.9-.2 5.3 2.3 5.3 5.3zM507 10.5c0 3-2.5 5.5-5.5 5.5-11.8 0-22.6 8.2-29 21.9-.9 1.9-2.8 3.1-4.9 3.1s-4-1.2-4.9-3.1c-6.4-13.7-17.3-21.9-29-21.9-3 0-5.5-2.4-5.5-5.5s2.4-5.5 5.5-5.5c11.3 0 22 5.2 30.2 14.7l3.8 4.3 3.8-4.3c8.1-9.5 18.8-14.7 30-14.7 3 0 5.5 2.5 5.5 5.5zM469 267.5v22.8c0 3-2.5 5.5-5.5 5.5s-5.4-2.5-5.4-5.5v-22.8c0-3 2.4-5.5 5.4-5.5s5.5 2.5 5.5 5.5zM494.3 256.1v22.8c0 3-2.5 5.4-5.5 5.4s-5.4-2.4-5.4-5.4v-22.8c0-3 2.4-5.4 5.4-5.4s5.5 2.4 5.5 5.4zM443.8 256v22.8c0 3-2.5 5.5-5.5 5.5s-5.5-2.4-5.5-5.5V256c0-3 2.5-5.4 5.5-5.4s5.5 2.4 5.5 5.4z"/><path class="st0" d="M497.2 401.8c11.7-11.7 9.8-31.7 9.6-34-.3-2.6-2.4-4.6-4.9-4.9-.8-.1-2.5-.3-5-.3l-15.1-.1 12.2-8.9c1.2-.9 2.3-1.8 3.3-2.8 11.7-11.7 9.8-31.7 9.6-34-.3-2.6-2.4-4.7-4.9-4.9-2.3-.3-22.4-2.2-34 9.4l-.5.5-3.7 4-3.7-4c-.2-.2-.3-.4-.5-.5-11.6-11.5-31.6-9.6-33.9-9.4-2.6.3-4.8 2.4-5 4.9-.3 2.3-2.1 22.4 9.6 34 1 1 2.1 1.9 3.3 2.8l12.3 8.9-15.1.2c-2.8 0-4.6.2-5 .3h-.1c-2.5.2-4.6 2.3-4.9 4.9-.3 2.3-2.1 22.4 9.6 34 1 1 2.1 1.9 3.3 2.8l12.3 8.9-15.2.1c-2.5 0-4.3.2-5 .3h-.1c-2.5.2-4.6 2.3-4.9 4.9-.3 2.3-2.1 22.4 9.6 34 6.9 6.9 16.6 9 23.5 9.5l4.6.4v33.4h-53.6v-75.6c0-18.4-11-35.9-26.8-42.4l-67.2-28c-4.3-1.8-7-5.9-7-10.5v-19.2l29.8-17.1c.1 0 .2-.1.3-.2 12.4-8.2 20.6-22.8 21.8-39.2V251.3l3.5-1.1c11.9-3.9 19.9-14.9 19.9-27.4 0-5.5-1.6-10.9-4.5-15.5l-3.8-6 6.9-1.6c11.6-2.7 21.5-5.8 29.4-9.1 15.9-6.7 23.9-14.7 23.9-23.6 0-13.5-18.2-24.4-54-32.6-6.5-1.5-13.4-2.8-20.6-4l-4.2-.7v-44c0-2.3-1.4-4.3-3.5-5.1-1.9-.7-48.1-18.1-92.4-18.1S166 79.9 164 80.6c-2.1.8-3.5 2.9-3.5 5.1v43.6l-4.2.7c-7.7 1.2-15.2 2.7-22.1 4.2-35.9 8.1-54 19.1-54 32.6s18.6 21.1 24.7 23.6c8.1 3.4 18.2 6.4 30.1 9.1l6.9 1.6-3.8 6c-3 4.6-4.5 10-4.5 15.5 0 12.5 8 23.6 19.9 27.4l3.5 1.1V263.8c1.3 16.4 9.3 31.1 21.6 39.2.1.1.2.1.2.1l30.1 17.2v19.1c0 4.6-2.8 8.7-7 10.5l-67.3 28c-15.8 6.6-26.8 24-26.8 42.4v75.6H75.5v-81.3l2.7-1.4c17-8.7 27.5-25.9 27.5-44.8v-31.1c0-3-2.4-5.5-5.4-5.5s-5.5 2.4-5.5 5.5v31.1c0 16.6-10.5 31.6-26.2 37.1l-1.3.4-6.5 2v-71.6c0-3-2.4-5.5-5.5-5.5-3 0-5.4 2.5-5.4 5.5v71.8l-6.6-2.2c-.1 0-.4-.1-.6-.2l-.5-.2c-15.6-5.4-26.2-20.3-26.2-37v-31.1c0-3-2.4-5.5-5.5-5.5S5 334.3 5 337.4v31.1c0 19 10.6 36.2 27.6 44.8l2.7 1.4v86.7c0 3 2.4 5.5 5.5 5.5h426.8c3 0 5.5-2.5 5.5-5.5 0-1.7-.8-3.2-2-4.3l-1.9-1.5v-33.1l4.6-.4c6.9-.5 16.5-2.6 23.4-9.5l.1-.1c11.6-11.7 9.8-31.6 9.6-33.9-.3-2.5-2.4-4.6-4.9-4.9-.8-.1-2.5-.3-5.1-.3l-15.2-.2 12.3-8.9c1.1-.6 2.2-1.5 3.2-2.5zM64.6 496.1H46.3v-77.8l5.4.4c1.5.1 2.7.2 3.8.2 1.2 0 2.4 0 3.8-.2l5.4-.4-.1 77.8zM171 89.5l3.4-1.1c13.5-4.5 48.6-15 81.6-15 32.9 0 68 10.5 81.6 15l3.4 1.1v38.4l-5.6-.7c-24.5-2.9-52.2-4.5-80.1-4.5-27.4 0-54.6 1.5-78.7 4.3l-5.6.6V89.5zm-31.2 94.6l-.9 5.4-5.3-1.3c-22.7-5.5-38.5-12.6-42.2-18.9l-1.5-2.6 1.6-2.6c3.3-5.5 18.1-13.8 49.3-20.3s71.8-10.1 114.4-10.1 83.2 3.6 114.4 10.1c31.5 6.6 46.1 14.9 49.4 20.5l1.5 2.5-1.5 2.5c-2.9 5.1-15.6 12.8-42.2 19.2l-5.3 1.3-.8-5.4c-1.9-13.4-27.9-19.3-36.4-21.2-21.2-4.8-49.3-7.4-79.1-7.4s-57.9 2.6-79.1 7.4c-8.4 1.8-34.1 7.6-36.3 20.9zm44 109.6c-9.2-6.2-15.4-17.5-16.4-30.3V246c0-3-2.4-5.5-5.5-5.5-9.9 0-18-8.1-18-18s8-18 18-18c3 0 5.5-2.4 5.5-5.5v-22.5l3.7-1c4.3-1.2 8.9-2.3 13.8-3.2 19.6-3.8 44.6-5.9 70.4-5.9 25.8 0 50.9 2.1 70.4 5.9 5.6 1.1 10.7 2.3 15.2 3.6l3.6 1.1v22.1c0 3 2.4 5.5 5.5 5.5 9.9 0 18 8 18 18 0 9.9-8.1 18-18 18-3 0-5.5 2.4-5.5 5.4v17.5c-1.1 12.5-7.4 24.1-16.6 30.3l-.3.2-56.1 32.2c-.1 0-.2.1-.3.2-4.8 3.2-10.1 4.7-15.3 4.7s-10.5-1.6-15.3-4.7c-.1 0-.2-.1-.3-.2l-56.5-32.5zm108.8 32.9V377c0 20.1-16.4 36.5-36.6 36.5-20.3 0-36.7-16.4-36.7-36.5v-50.4l15.7 9c6.4 4.2 13.6 6.3 21 6.3 7.3 0 14.6-2.2 21-6.4l.2-.1 15.4-8.8zM153.4 496.1h-35.2v-75.6c0-13.9 8.5-27.5 20.1-32.4l9.3-3.9 2 4.3c2.5 5.3 3.7 11 3.7 17l.1 90.6zm164 0H194.9v-34h122.6v34h-.1zm34.7-111.5c-2.9 6.6-4.4 13.6-4.4 20.9v90.6h-19.3v-39.5c0-3-2.5-5.5-5.5-5.5H189.4c-3 0-5.4 2.5-5.4 5.5v39.5h-19.7v-90.6c0-7.3-1.5-14.3-4.4-20.9l-2.1-4.7 50.6-21.1V377c0 26.1 21.4 47.4 47.6 47.4s47.5-21.3 47.5-47.4v-18.1l50.6 21.1-2 4.6zm41.6 111.5h-35.2v-90.6c0-5.9 1.3-11.6 3.7-17l2-4.3 9.3 3.9c11.7 4.8 20.1 18.5 20.1 32.4v75.6h.1zm75.6-152.5c.9-6.4 3-11.3 6.2-14.5s8.1-5.3 14.5-6.1l6.5-.8-.9 6.5c-.9 6.4-3 11.3-6.2 14.5-3.2 3.2-8.1 5.3-14.5 6.1l-6.5.9.9-6.6zm-35.4-6.5c-1-2.4-1.8-5.2-2.2-8.4l-.9-6.5 6.5.8c6.4.8 11.3 2.9 14.5 6.1s5.3 8.1 6.2 14.5l.9 6.5-6.5-.9c-6.4-.9-11.3-2.9-14.5-6.1-1.6-1.6-3-3.6-4-6zm10.1 23.6l15.1-.2c1.9 0 3.4-.1 4.1-.2h1c1.4.1 2.8.2 4.1.2l15.1.2-12.3 8.9c-1.2.8-2.3 1.8-3.3 2.8l-.2.2c-.1.2-.3.3-.4.5l-3.6 3.6-3.8-4-.3-.3c-1-1-2.1-1.9-3.2-2.8l-12.3-8.9zM433.9 388c-1-2.4-1.8-5.3-2.2-8.5l-.9-6.5 6.5.9c6.4.8 11.3 2.9 14.5 6.1s5.3 8.1 6.2 14.5l.9 6.5-6.5-.9c-6.4-.9-11.3-2.9-14.5-6.1-1.6-1.5-3-3.6-4-6zm18.5 63.1c-6.4-.8-11.3-2.9-14.5-6.1-1.6-1.6-3-3.6-4-6s-1.8-5.3-2.2-8.5l-.9-6.5 6.5.9c6.4.8 11.3 2.9 14.5 6.1s5.3 8.1 6.2 14.5l.9 6.5-6.5-.9zm37.7-26.2l6.5-.9-.9 6.5c-.9 6.4-3 11.3-6.2 14.5-1.6 1.6-3.7 2.9-6.1 4-2.4 1-5.3 1.7-8.5 2.2l-6.5.9.9-6.5c.9-6.4 3-11.3 6.2-14.5 3.3-3.3 8.2-5.4 14.6-6.2zm-19-4.4c-1.2.8-2.3 1.8-3.3 2.8-.1.1-.1.2-.2.2-.1.2-.3.3-.4.5l-3.6 3.6-3.8-4-.3-.3c-1-1-2.1-1.9-3.3-2.8l-12.3-8.8 15.1-.3c2 0 3.5-.1 4.2-.2h.9c.7.1 2.1.2 4.2.2l15.1.3-12.3 8.8zm12.3-22.5c-2.4 1-5.3 1.7-8.5 2.2l-6.5.9.9-6.5c.9-6.4 3-11.3 6.2-14.5s8.1-5.3 14.5-6.1l6.5-.9-.9 6.5c-.9 6.4-3 11.3-6.2 14.5-1.6 1.6-3.6 2.9-6 3.9z"/><circle class="st0" cx="294.1" cy="223.8" r="6.7"/><circle class="st0" cx="217.9" cy="223.8" r="6.7"/><path class="st0" d="M271.7 271.8c0 8.6-7 15.7-15.7 15.7-8.6 0-15.7-7-15.7-15.7 0-3 2.4-5.5 5.5-5.5h20.4c3 0 5.5 2.5 5.5 5.5z"/></svg>