<svg id="Capa_1" xmlns="http://www.w3.org/2000/svg" width="512" height="512" viewBox="0 0 512 512"><style>.st0{fill:#1e1d25}</style><path class="st0" d="M180.7 331.7c-.2-2.6-1.4-5.1-3.6-6.9-1.7-1.4-3.7-2.1-5.7-2.3-3.6-.3-26.8-1.7-41.3 12.6-1.1 1.1-2.2 2.3-3.1 3.5-.9-1.2-2-2.4-3.1-3.5-14.6-14.3-37.7-12.9-41.3-12.6-2 .1-4 .9-5.7 2.3-2.1 1.8-3.4 4.3-3.6 6.8-.5 5-2.1 28.2 12.4 42.3 9.3 9.2 22.2 11.7 31.3 12.3V405c0 5.5 4.5 10 10 10s10-4.5 10-10v-18.9c9.2-.5 22-3.1 31.3-12.3 14.4-14 13-36.8 12.4-42.1zm-81 27.9c-4.4-4.3-6-11.3-6.5-17 5.7.7 12.4 2.5 16.7 6.7 4.3 4.2 6.1 11 6.8 16.7-5.8-.5-12.7-2.2-17-6.4zm54.6 0c-4.3 4.2-11.2 5.9-17 6.4.7-5.7 2.5-12.5 6.8-16.7 4.3-4.2 11-6 16.7-6.7-.5 5.7-2 12.7-6.5 17zM107.7 255.3c-.2-2.4-1.3-4.8-3.2-6.6-1.7-1.6-3.8-2.4-5.9-2.6-3.1-.3-26.7-1.9-41.5 12.6-1.1 1.1-2.1 2.3-3.1 3.5-.9-1.2-2-2.4-3.1-3.5-14.6-14.3-37.6-12.9-41.3-12.6-2.4.2-4.8 1.2-6.6 3.1-1.6 1.7-2.5 3.8-2.7 6-.5 5.1-2 28.1 12.4 42.3 9.3 9.2 22.2 11.7 31.3 12.3v19.1c0 5.5 4.5 10 10 10s10-4.5 10-10v-19.1c9.2-.5 22-3.1 31.3-12.3 14.4-14 13-36.8 12.4-42.2zm-81 28c-4.2-4.1-5.9-11.1-6.4-17 5.7.7 12.4 2.5 16.7 6.7 4.3 4.2 6.1 11 6.8 16.7-5.9-.6-12.8-2.2-17.1-6.4zm54.6 0c-4.3 4.2-11.2 5.9-17 6.4.7-5.7 2.5-12.5 6.8-16.7 4.3-4.2 11-6 16.7-6.7-.5 5.9-2.2 12.8-6.5 17zM12.7 297.5zM107.7 428.6c-.2-2.4-1.2-4.7-3.1-6.5-1.7-1.6-3.9-2.5-6.1-2.7-3.4-.3-26.8-1.7-41.4 12.6-1.1 1.1-2.2 2.3-3.1 3.5-.9-1.2-2-2.4-3.1-3.5-14.6-14.4-38-12.9-41.3-12.6-2.2.2-4.4 1.1-6.2 2.7-1.9 1.8-2.9 4.1-3.1 6.4-.5 5.1-2.1 28.1 12.4 42.3C22 480 34.9 482.5 44 483.1V502c0 5.5 4.5 10 10 10s10-4.5 10-10v-18.9c9.2-.5 22-3.1 31.3-12.3 14.4-14 13-36.9 12.4-42.2zm-81 27.9c-4.4-4.3-6-11.3-6.5-17 5.7.7 12.4 2.5 16.7 6.7 4.3 4.2 6.1 11 6.8 16.7-5.8-.5-12.7-2.2-17-6.4zm54.7 0c-4.3 4.2-11.2 5.9-17 6.4.7-5.7 2.5-12.5 6.8-16.7 4.3-4.2 11-6 16.7-6.7-.6 5.7-2.1 12.7-6.5 17zM447.9 428.6c-.2-2.4-1.2-4.7-3.1-6.5-1.7-1.6-3.9-2.5-6.1-2.7-3.4-.3-26.8-1.7-41.4 12.6-1.1 1.1-2.1 2.3-3.1 3.5-.9-1.2-2-2.4-3.1-3.5-14.6-14.4-38-12.9-41.3-12.6-2.2.2-4.4 1.1-6.2 2.7-1.9 1.8-2.9 4.1-3.1 6.4-.5 5.1-2.1 28.1 12.4 42.3 9.3 9.2 22.2 11.7 31.3 12.3V502c0 5.5 4.5 10 10 10s10-4.5 10-10v-18.9c9.2-.5 22-3.1 31.3-12.3 14.4-14 13-36.9 12.4-42.2zm-81 27.9c-4.4-4.3-6-11.3-6.5-17 5.7.7 12.4 2.5 16.7 6.7 4.3 4.2 6.1 11 6.8 16.7-5.8-.5-12.7-2.2-17-6.4zm54.7 0c-4.3 4.2-11.2 5.9-17 6.4.7-5.7 2.5-12.5 6.8-16.7 4.3-4.2 11-6 16.7-6.7-.6 5.7-2.1 12.7-6.5 17zM511.7 301.7c-.2-2.2-1.1-4.4-2.7-6.1-1.8-1.9-4.1-3-6.5-3.1-3.4-.3-26.7-1.8-41.4 12.6-1.1 1.1-2.1 2.3-3.1 3.5-.9-1.2-2-2.4-3.1-3.5-14.6-14.3-37.7-12.9-41.3-12.6-2.2.1-4.4 1-6.1 2.6-1.9 1.8-3 4.1-3.2 6.5-.5 5.2-2 28.1 12.4 42.2 9.3 9.2 22.2 11.7 31.3 12.3V375c0 5.5 4.5 10 10 10s10-4.5 10-10v-18.9c9.2-.5 22-3.1 31.3-12.3 14.3-14 12.9-36.8 12.4-42.1zm-81.1 27.9c-4.2-4.1-5.9-11.1-6.5-17 5.7.7 12.4 2.5 16.7 6.7 4.3 4.2 6.1 11 6.8 16.7-5.8-.5-12.7-2.2-17-6.4zm54.7 0c-4.3 4.2-11.2 5.9-17 6.4.7-5.7 2.5-12.5 6.8-16.7 4.3-4.2 11-6 16.7-6.7-.6 5.9-2.3 12.9-6.5 17zM220 419c-18.7 0-34 15.3-34 34 0 15.3 10.1 28.2 24 32.5V502c0 5.5 4.5 10 10 10s10-4.5 10-10v-16.5c13.9-4.3 24-17.2 24-32.5 0-18.8-15.3-34-34-34zm.6 47.9h-1.2c-7.4-.3-13.4-6.5-13.4-14 0-7.7 6.3-14 14-14s14 6.3 14 14c0 7.6-6 13.7-13.4 14zM267.9 330.5c-18.7 0-34 15.3-34 34 0 15.3 10.1 28.2 24 32.5v16.5c0 5.5 4.5 10 10 10s10-4.5 10-10V397c13.9-4.3 24-17.2 24-32.5 0-18.8-15.2-34-34-34zm.7 47.9h-1.2c-7.4-.3-13.4-6.5-13.4-14 0-7.7 6.3-14 14-14s14 6.3 14 14c-.1 7.6-6 13.7-13.4 14zM316 241.7c-18.7 0-34 15.3-34 34 0 15.3 10.1 28.2 24 32.5v16.5c0 5.5 4.5 10 10 10s10-4.5 10-10v-16.5c13.9-4.3 24-17.2 24-32.5 0-18.8-15.3-34-34-34zm.6 48h-1.2c-7.4-.3-13.4-6.5-13.4-14 0-7.7 6.3-14 14-14s14 6.3 14 14c0 7.5-6 13.6-13.4 14z"/><path class="st0" d="M318.4 192.4H266v-28.8c14-.1 38.4-2.8 54.7-18.9 22.2-21.8 19.4-59.5 18.8-65.5-.1-2.3-1.1-4.5-2.8-6.3-1.8-1.9-4.1-2.9-6.5-3.1-3.2-.3-19.5-1.4-36.6 3.7.8-3.7 1.3-7.5 1.4-11.5.3-31.2-28.3-55.8-33-59.6-1.7-1.4-4.1-2.4-6.6-2.4s-4.8.9-6.5 2.4C245 5.7 217.3 29.9 217 61.6c0 4.1.4 8.1 1.2 12-17-5-33.1-4-36.5-3.7-2.4.2-4.8 1.2-6.6 3.1-1.7 1.7-2.6 3.9-2.7 6.1-.6 5.5-3.7 43.6 18.8 65.6 16.3 16 40.7 18.8 54.7 18.9v28.8H94v-28.8c14-.1 38.4-2.8 54.8-18.9 22.3-21.8 19.4-59.5 18.8-65.5-.2-2.4-1.2-4.8-3.1-6.6-1.7-1.6-3.8-2.5-6-2.7-2.9-.3-19.3-1.5-36.8 3.7.8-3.7 1.3-7.5 1.4-11.5C123.3 31 94.7 6.4 90 2.5 88.3 1 86 0 83.4 0c-2.5 0-4.8.9-6.5 2.4C73 5.7 45.4 29.9 45.1 61.6c0 4.1.4 8.1 1.3 12-17-5-33.1-4-36.5-3.7C7.4 70 5 71.1 3.2 73 1.5 74.7.6 76.9.5 79.2c-.6 5.6-3.6 43.6 18.8 65.6 16.3 16 40.7 18.8 54.7 18.9v28.8H10c-5.5 0-10 4.5-10 10s4.5 10 10 10h260.5L106.2 497c-2.8 4.8-1.1 10.9 3.7 13.7 1.6.9 3.3 1.3 5 1.3 3.5 0 6.8-1.8 8.7-5l170.1-294.6h24.8c5.5 0 10-4.5 10-10-.1-5.6-4.6-10-10.1-10zM148 89.7c0 10.9-1.9 29.7-13.3 40.8-11.3 11.1-29.9 13-40.7 13.1.4-11.7 3.3-29.6 13.9-40.1C119.3 92.3 137.4 90 148 89.7zM33.3 130.4c-10.4-10.2-13.2-28-13.3-40.7 10.6.3 28.7 2.6 40 13.8 10.7 10.5 13.6 28.4 13.9 40.1-10.7-.1-29.3-2-40.6-13.2zM65 61.8c.2-15.9 11.3-30.3 18.6-38 7.7 7.8 19.6 22.3 19.4 38.2-.1 15.9-11.9 30.4-19.5 38.1-8-8.7-18.6-23.4-18.5-38.3zm255 27.9c0 10.9-1.9 29.7-13.3 40.8-11.3 11.1-29.9 13-40.7 13.1.4-11.7 3.3-29.6 13.9-40.1C291.3 92.3 309.4 90 320 89.7zm-114.7 40.7c-11.3-11.1-13.2-29.8-13.3-40.8 10.6.3 28.7 2.7 40 13.8.7.7 1.3 1.3 1.9 2l.9 1.2c8.4 10.7 10.8 26.3 11.1 36.9-10.7 0-29.3-1.9-40.6-13.1zM237 61.8c.2-15.8 11.3-30.3 18.6-38 7.7 7.8 19.6 22.3 19.4 38.2-.1 15.9-11.9 30.4-19.5 38.1-8-8.7-18.6-23.4-18.5-38.3zM353 192.4h-.1c-5.5 0-10 4.5-10 10s4.5 10 10 10h.1c5.5 0 10-4.5 10-10 0-5.6-4.4-10-10-10z"/><path class="st0" d="M502 192.4h-64v-28.8c14-.1 38.4-2.8 54.7-18.9 22.2-21.8 19.4-59.4 18.8-65.5-.1-2.3-1.1-4.5-2.8-6.3-1.8-1.9-4.1-2.9-6.5-3.1-3.2-.3-19.5-1.4-36.6 3.7.8-3.7 1.3-7.5 1.4-11.5.3-31.2-28.3-55.7-33-59.6-1.8-1.4-4.1-2.4-6.6-2.4s-4.8.9-6.5 2.4c-3.9 3.3-31.5 27.5-31.8 59.1 0 4.1.4 8.1 1.3 12-17-5-33-4-36.5-3.7-2.3.1-4.5 1.1-6.3 2.7-1.9 1.8-2.9 4.1-3.1 6.5-.6 5.7-3.6 43.6 18.8 65.6 16.3 16 40.7 18.8 54.8 18.9v28.8h-31c-5.5 0-10 4.5-10 10s4.5 10 10 10h34.7L257.4 497c-2.8 4.8-1.1 10.9 3.7 13.7 1.6.9 3.3 1.3 5 1.3 3.5 0 6.8-1.8 8.7-5l170.1-294.6H502c5.5 0 10-4.5 10-10s-4.5-10-10-10zM492 89.7c-.1 12.7-2.9 30.6-13.3 40.8-11.3 11.1-29.9 13-40.7 13.1.4-11.7 3.3-29.6 13.9-40.1C463.3 92.3 481.4 90 492 89.7zm-114.8 40.7c-11.3-11.1-13.2-29.8-13.3-40.8 10.6.3 28.7 2.7 40 13.8 10.7 10.5 13.6 28.3 13.9 40.1-10.7-.1-29.3-2-40.6-13.1zM409 61.8c.2-15.8 11.3-30.3 18.6-38 7.7 7.8 19.6 22.3 19.4 38.2-.1 15.9-11.9 30.4-19.5 38.1-8-8.7-18.6-23.4-18.5-38.3z"/></svg>