<svg id="Capa_1" xmlns="http://www.w3.org/2000/svg" width="512" height="512" viewBox="0 0 512 512"><style>.st1{fill:#1e1d25}</style><path d="M12.7 297.5z" fill="#1e1d25" stroke="#fff" stroke-width="10" stroke-miterlimit="10"/><path class="st1" d="M102.8 429.1c-.1-1.4-.7-2.5-1.6-3.4-1.1-1-2.3-1.3-3-1.3-2.5-.2-24.4-1.7-37.5 11.2-.9.9-1.8 1.9-2.7 3l-3.9 5-3.9-5c-.9-1.1-1.7-2.1-2.7-3-10.2-10-25.6-11.4-33.2-11.4-2.2 0-3.7.1-4.2.2-.9.1-2.1.4-3.2 1.4-.9.8-1.4 2-1.5 3.2-.5 4.3-2 25.7 10.9 38.3 8.2 8.1 19.8 10.4 28.1 10.8l4.7.3V502c0 2.8 2.3 5 5 5 2.8 0 5-2.2 5-5v-23.6l4.7-.3c8.3-.5 19.9-2.8 28.1-10.8 12.8-12.6 11.3-34 10.9-38.2zM43.2 468c-6.1-.6-14.5-2.4-20-7.9-2.3-2.2-4-5-5.4-8.4-1.3-3.4-2.2-7.3-2.6-11.8l-.5-6.1 6.1.7c5.9.7 14.1 2.7 19.6 8.1s7.5 13.7 8.2 19.7l.7 6.1-6.1-.4zm49.6-28c-.8 8.9-3.4 15.7-7.9 20.1-5.5 5.5-14 7.3-20 7.9l-6.2.6.7-6.1c.7-6 2.7-14.3 8.2-19.7s13.7-7.4 19.6-8.1l6.1-.7-.5 6zM443 429.1c-.1-1.4-.7-2.5-1.5-3.4-1.1-1-2.3-1.3-3.1-1.3-2.5-.2-24.4-1.7-37.5 11.2-.9.9-1.8 1.9-2.7 3l-3.9 5-3.9-5c-.9-1.1-1.7-2.1-2.7-3-10.2-10-25.6-11.4-33.2-11.4-2.2 0-3.7.1-4.2.2-.9.1-2.1.4-3.2 1.4-.9.8-1.5 2-1.5 3.2-.5 4.3-2 25.7 10.9 38.3 8.2 8.1 19.8 10.4 28.1 10.8l4.7.3V502c0 2.8 2.2 5 5 5s5-2.2 5-5v-23.6l4.7-.3c8.3-.5 19.9-2.8 28.1-10.8 12.8-12.6 11.3-34 10.9-38.2zM383.4 468c-6.1-.6-14.5-2.4-20-7.9-2.3-2.2-4-5-5.4-8.4-1.3-3.4-2.2-7.3-2.6-11.8l-.5-6.1 6.1.7c5.9.7 14.1 2.7 19.6 8.1s7.5 13.7 8.2 19.7l.7 6.1-6.1-.4zm49.6-28c-.8 8.9-3.4 15.7-7.9 20.1-2.8 2.7-6.3 4.5-9.8 5.8-3.5 1.2-7.2 1.8-10.2 2.1l-6.1.6.7-6.1c.7-6 2.7-14.3 8.2-19.7s13.7-7.4 19.6-8.1l6.1-.7-.6 6zM175.7 332.2v-.1c-.1-1.3-.7-2.4-1.5-3.3-1.1-1-2.3-1.3-3.1-1.3-2.5-.2-24.4-1.7-37.5 11.2-.9.9-1.8 1.9-2.7 3l-3.9 5-3.9-5c-.9-1.1-1.7-2.1-2.7-3-10.2-10-25.6-11.4-33.2-11.4-2.2 0-3.7.1-4.2.2-.9.1-2.1.4-3.2 1.4-.9.8-1.5 2-1.5 3.2-.5 4.3-2 25.7 10.9 38.3 8.2 8.1 19.8 10.4 28.1 10.8l4.7.3V405c0 2.8 2.2 5 5 5s5-2.2 5-5v-23.6l4.7-.3c8.3-.5 19.9-2.8 28.1-10.8 12.9-12.5 11.4-33.9 10.9-38.1zM116.2 371c-6.1-.6-14.5-2.4-20-7.9-2.3-2.2-4-5-5.4-8.4-1.3-3.4-2.2-7.3-2.6-11.8l-.5-6.1 6.1.7c5.9.7 14.1 2.7 19.6 8.1s7.5 13.7 8.2 19.7l.7 6.1-6.1-.4zm49.6-27.9c-.8 8.9-3.4 15.7-7.9 20.1-2.8 2.7-6.3 4.5-9.8 5.8-3.5 1.2-7.2 1.8-10.2 2.1l-6.1.6.7-6.1c.7-6 2.7-14.3 8.2-19.7 5.5-5.4 13.7-7.4 19.6-8.1l6.1-.7-.6 6zM102.8 256v-.1c-.1-1.3-.7-2.4-1.5-3.3-1.1-1-2.3-1.3-3.1-1.3-2.5-.2-24.4-1.7-37.5 11.2-.9.9-1.8 1.9-2.7 3l-3.9 5-3.9-5c-.9-1.1-1.7-2.1-2.7-3-10.2-10-25.6-11.4-33.2-11.4-2.2 0-3.7.1-4.2.2-.9.1-2.1.4-3.2 1.4-.9.8-1.5 2-1.5 3.2-.5 4.3-2 25.7 10.9 38.3 8.2 8.1 19.8 10.4 28.1 10.8l4.7.3v23.6c0 2.8 2.2 5 5 5s5-2.2 5-5v-23.6l4.7-.3c8.3-.5 19.9-2.8 28.1-10.8 12.8-12.7 11.3-34.1 10.9-38.2zm-59.6 38.8c-6.1-.6-14.5-2.4-20-7.9-2.3-2.2-4-5-5.4-8.4-1.3-3.4-2.2-7.3-2.6-11.8l-.5-6.1 6.1.7c5.9.7 14.1 2.7 19.6 8.1s7.5 13.7 8.2 19.7l.7 6.1-6.1-.4zm49.6-28c-.8 8.9-3.4 15.7-7.9 20.1-2.8 2.7-6.3 4.5-9.8 5.8-3.5 1.2-7.2 1.8-10.2 2.1l-6.1.6.7-6.1c.7-6 2.7-14.3 8.2-19.7 5.5-5.4 13.7-7.4 19.6-8.1l6.1-.7-.6 6zM506.7 302.2v-.2c-.1-.8-.3-2-1.3-3-.8-.9-2-1.5-3.3-1.6-2.5-.2-24.3-1.8-37.5 11.2-.9.9-1.8 1.9-2.7 3l-3.9 5-3.9-5c-.9-1.1-1.8-2.1-2.7-3-10.2-10-25.6-11.4-33.2-11.4-2.2 0-3.7.1-4.2.2-.9.1-2.1.3-3.2 1.3-.9.8-1.5 2-1.6 3.3v.1c-.4 4.2-2 25.5 10.9 38.2 8.2 8.1 19.8 10.3 28.1 10.8l4.7.3V375c0 2.8 2.2 5 5 5s5-2.2 5-5v-23.6l4.7-.3c8.3-.5 19.9-2.8 28.1-10.8 12.9-12.6 11.4-33.9 11-38.1zM447.2 341c-6.1-.6-14.5-2.4-20-7.9-2.8-2.7-4.6-6.2-5.8-9.8-1.2-3.6-1.8-7.2-2.1-10.3l-.6-6.2 6.1.7c5.9.7 14.1 2.7 19.6 8.1s7.5 13.7 8.2 19.7l.7 6.1-6.1-.4zm49.5-27.9c-.6 6.2-2.4 14.7-7.9 20.1-5.5 5.5-14 7.3-20 7.9l-6.2.6.7-6.1c.7-6 2.7-14.3 8.2-19.7 5.5-5.4 13.7-7.4 19.6-8.1l6.2-.7-.6 6zM240.5 432.5C235 427 227.7 424 220 424c-16 0-29 13-29 29 0 12.6 8.4 24 20.5 27.7l3.5 1.1V502c0 2.8 2.2 5 5 5s5-2.2 5-5v-20.2l3.5-1.1c12-3.7 20.5-15.1 20.5-27.7 0-7.8-3-15-8.5-20.5zm-19.7 39.4H219c-10.2-.5-18.1-8.8-18.1-19 0-10.5 8.5-19 19-19s19 8.5 19 19c.1 10.2-7.9 18.6-18.1 19zM267.9 335.5c-16 0-29 13-29 29 0 12.6 8.4 24 20.5 27.7l3.5 1.1v20.2c0 2.8 2.2 5 5 5s5-2.2 5-5v-20.2l3.5-1.1c12-3.7 20.5-15.1 20.5-27.7 0-16-13-29-29-29zm.9 47.9H267c-10.2-.5-18.1-8.8-18.1-19 0-10.5 8.5-19 19-19s19 8.5 19 19c0 10.2-7.9 18.6-18.1 19zM316 246.7c-16 0-29 13-29 29 0 12.6 8.4 24 20.5 27.7l3.5 1.1v20.2c0 2.8 2.3 5 5 5 2.8 0 5-2.3 5-5v-20.2l3.5-1.1c12-3.7 20.5-15.1 20.5-27.7 0-16-13-29-29-29zm.8 48H315c-10.2-.5-18.1-8.8-18.1-19 0-10.5 8.5-19 19-19s19 8.5 19 19c.1 10.2-7.9 18.5-18.1 19z"/><path class="st1" d="M318.4 197.4H261v-38.8h5c12.6-.1 36-2.4 51.3-17.4 20.8-20.4 17.7-57.3 17.3-61.4v-.2c0-.8-.3-2-1.4-3.1-.8-.9-2-1.4-3.2-1.5-3-.3-18.5-1.4-34.8 3.5l-8.2 2.4 1.9-8.3c.8-3.5 1.2-7 1.2-10.4.3-29.2-28-53-31.2-55.7l-.1-.1c-.7-.7-1.8-1.4-3.4-1.4-1.5 0-2.6.7-3.3 1.2C249 8.8 222.3 32 222 61.6c0 3.5.3 7.2 1.1 10.9l1.7 8.2-8-2.4c-16.3-4.8-31.7-3.7-34.6-3.5h-.1c-1.3.1-2.4.6-3.3 1.5-1 1.1-1.3 2.3-1.4 3.1v.1c-.4 4.1-3.6 41 17.3 61.5 15.2 15 38.7 17.3 51.3 17.4h5v38.8H89v-38.8h5c12.6-.1 36-2.4 51.3-17.4 20.8-20.5 17.7-57.3 17.3-61.4v-.2c-.1-1.3-.6-2.4-1.5-3.3-1.1-1-2.2-1.3-3-1.4-3-.3-18.4-1.4-34.9 3.5l-8.2 2.4 1.9-8.3c.8-3.5 1.2-7 1.2-10.4.3-29.2-28-53-31.2-55.7l-.1-.1c-1-.6-2.1-1.1-3.4-1.1-1.5 0-2.6.7-3.3 1.2C77.1 8.8 50.3 32 50 61.6c0 3.5.4 7.2 1.2 10.9l1.8 8.2-8.1-2.4c-16.3-4.8-31.7-3.8-34.6-3.5h-.1c-1.3.1-2.4.6-3.3 1.5-1 1.1-1.3 2.3-1.4 3.1v.1c-.4 4.1-3.6 41 17.3 61.5 15.3 15 38.7 17.3 51.3 17.4h5v38.8H10c-2.8 0-5 2.3-5 5 0 2.8 2.3 5 5 5h269.1L110.5 499.5c-.7 1.2-.8 2.5-.5 3.8s1.2 2.4 2.3 3c.8.4 1.6.7 2.5.7 1.8 0 3.5-1 4.3-2.5l171.5-297.1h27.7c2.8 0 5-2.2 5-5 .1-2.8-2.2-5-4.9-5zM74 148.5c-11.1 0-31.5-2-44.2-14.5C16.6 121.1 15.1 98.7 15 89.7v-5.2l5.2.2c10.7.3 30.6 2.7 43.4 15.2 13.1 12.8 15.1 34.7 15.4 43.5l.2 5.1H74zm9.5-41.3l-3.6-3.8c-6-6.4-20-23.3-19.9-41.7.1-8.9 3.3-17.3 7.3-24.4 4.1-7.2 9-13.1 12.7-17l3.6-3.8 3.6 3.7c7.8 7.9 21.1 24 20.9 41.8s-13.2 33.6-21 41.5l-3.6 3.7zm5.5 36.2c.3-8.8 2.4-30.6 15.5-43.5C117.1 87.5 137 85 147.8 84.7l5.2-.2v5.2c0 11.2-2 31.8-14.8 44.4-12.8 12.4-33.2 14.4-44.2 14.5h-5.2l.2-5.2zm162 5h-5.2c-11.1 0-31.5-2-44.2-14.5-6.3-6.2-10-14.5-12.1-22.6-2.1-8.2-2.6-16.1-2.6-21.7v-5.2l5.2.2c10.8.3 30.7 2.8 43.4 15.2.7.8 1.5 1.6 2.2 2.4l.2.2c.3.3.6.7.9 1.1 9.9 12.7 11.9 30.4 12.2 39.9v5zm4.5-41.2l-3.6-3.8c-6.1-6.4-20.1-23.3-19.9-41.7.1-8.9 3.3-17.2 7.3-24.4 4.1-7.2 9-13.1 12.7-17l3.5-3.8 3.7 3.7c7.8 7.9 21 23.9 20.8 41.8-.1 17.8-13.1 33.6-20.9 41.5l-3.6 3.7zm5.5 36.2c.2-8.8 2.3-30.6 15.4-43.5C289.1 87.5 309 85 319.8 84.7l5.2-.2v5.2c0 11.2-2 31.8-14.8 44.4-12.7 12.4-33.2 14.4-44.2 14.5h-5.2l.2-5.2zM358 202.4c0 2.8-2.2 5-5 5h-.1c-2.8 0-5-2.2-5-5s2.2-5 5-5h.1c2.8 0 5 2.2 5 5z"/><path class="st1" d="M502 197.4h-69v-38.8h5c12.6-.1 36-2.4 51.3-17.4 20.8-20.4 17.7-57.3 17.3-61.4v-.2c-.1-.8-.3-2-1.4-3.1-.9-.9-2-1.4-3.2-1.5-3-.3-18.4-1.4-34.8 3.5l-8.2 2.4 1.9-8.3c.8-3.5 1.2-7 1.2-10.4.3-29.2-28-53-31.2-55.7l-.1-.1c-.9-.8-2.1-1.2-3.3-1.2-1.5 0-2.6.7-3.3 1.2C421 8.9 394.3 32 394 61.6c0 3.5.3 7.2 1.1 10.9l1.8 8.2-8.1-2.4c-16.3-4.8-31.7-3.8-34.6-3.5h-.1c-.8 0-2 .3-3.1 1.4-.9.9-1.5 2-1.5 3.3v.2c-.4 4.1-3.6 41 17.3 61.5 15.3 15 38.7 17.3 51.3 17.4h5v38.8h-36c-2.8 0-5 2.2-5 5s2.2 5 5 5h43.4L261.7 499.5c-.7 1.2-.8 2.5-.5 3.8.4 1.3 1.2 2.4 2.3 3 .8.4 1.6.7 2.5.7 1.8 0 3.5-1 4.3-2.5l171.5-297.1h60c2.8 0 5-2.3 5-5 .2-2.8-2.1-5-4.8-5zm-84.1-48.9c-11.1-.1-31.5-2.1-44.2-14.5-6.4-6.2-10-14.5-12.1-22.6S359 95.3 359 89.7v-5.2l5.2.2c10.8.3 30.7 2.8 43.3 15.2 13.1 12.9 15.2 34.7 15.5 43.5l.2 5.2-5.3-.1zm9.5-41.3l-3.6-3.8c-6-6.4-20-23.3-19.8-41.7.1-8.9 3.2-17.3 7.3-24.4 4-7.1 9-13.1 12.7-17l3.5-3.8 3.7 3.7c7.8 7.9 21 23.9 20.8 41.8-.2 17.8-13.2 33.7-21 41.5l-3.6 3.7zm5.6 36.2c.3-8.8 2.3-30.6 15.4-43.5C461.1 87.4 481 85 491.8 84.7l5.2-.2v5.2c-.1 9-1.6 31.4-14.8 44.3-12.7 12.5-33.1 14.5-44.2 14.5h-5.2l.2-5.1z"/></svg>