<svg id="Capa_1" xmlns="http://www.w3.org/2000/svg" width="512" height="512" viewBox="0 0 512 512"><style>.st0{fill:#1e1d25}</style><path class="st0" d="M499.9 223.8l-.1-.5c-.4-1.7-1.7-3-3.3-3.6-1-.3-22.5-7.3-54.8-7.3-5 0-10.3.2-15.7.6-37.7 2.6-93.5 16.6-144.9 68.1-51.5 51.5-65.5 107.2-68.1 144.9-2.9 40.9 6.4 69.3 6.8 70.5.5 1.5 1.7 2.7 3.2 3.2.9.3 22.4 7.3 54.9 7.3 5.2 0 10.5-.2 15.6-.6 37.7-2.6 93.4-16.6 144.9-68.1 91-90.9 67.2-194.6 61.5-214.5zM397 227.1l4-.8c8.1-1.6 16.4-2.7 24.7-3.3 21.2-1.6 39 .4 50.3 2.3l12.1 2.1-10.2 7c-.3.2-.5.4-.7.6L397 315.4v-88.3zm-85.1 40.1c21.2-16.4 44.3-28.4 68.7-35.8l6.5-1.9v95.9l-77 77V272.1v-.5l-.3-2.8 2.1-1.6zm-86.6 208.7c-1.9-11-3.8-28.4-2.3-49.2 1.8-26.2 8.2-50.9 19.1-74.1 10.9-23.1 26.3-44.7 46-64.5 1.1-1.1 2.3-2.2 3.4-3.3l8.5-8.2V410l.1 2.2-73.2 73.2-1.6-9.5zm168.4-13.7c-30.3 20-64 31.6-100.1 34.3-5.4.4-10.6.6-15.6.6-14.3 0-26.2-1.4-34.5-2.8l-9.5-1.6 39.6-39.5h134.1l-14 9zm75.4-79.8c-10 17.3-22.7 33.8-37.8 48.9-3.6 3.6-7.3 7.1-11 10.4l-1.4 1.3H283.5l68-68h121.9l-4.3 7.4zm10.4-20.4l-1.3 3H361.5l122.9-122.9c.2-.2.4-.4.6-.7l7-10 2.1 12c3.9 22.9 7.2 68.8-14.6 118.6zM231 281.1c-51.5-51.5-107.2-65.4-145-68.1-5.5-.4-10.7-.6-15.7-.6-32.3 0-53.8 7-54.8 7.3-1.7.5-2.9 1.9-3.3 3.6l-.1.5c-5.7 19.9-29.5 123.5 61.5 214.6 28.9 28.9 62 49 98.3 59.7.5.1.9.2 1.4.2 2.2 0 4.2-1.5 4.8-3.6.4-1.3.2-2.6-.4-3.8-.6-1.2-1.7-2-3-2.4-34.7-10.2-66.4-29.5-94.1-57.2-22-22-38.8-46.7-49.8-73.2l-2.9-6.9h108.7l49.7 49.7c1 1 2.2 1.5 3.5 1.5s2.6-.5 3.5-1.5c1-.9 1.5-2.2 1.5-3.5s-.5-2.6-1.5-3.5L181 381.3V253.6l7.8 5.3c12.2 8.3 24 18.1 35.1 29.2 2 2 5.1 2 7.1 0 .9-1 1.5-2.2 1.5-3.5-.1-1.3-.6-2.6-1.5-3.5zM36 225.3c11-1.9 28.4-3.8 49.3-2.3 4.4.3 8.8.8 13.3 1.3l4.3.6v78.4l-68.9-69c-.1-.1-.2-.2-.4-.3l-8.4-7 10.8-1.7zM24.7 341.2l-1.1-3.6c-11.4-38.5-9.4-72.4-5.7-94.1l1.8-10.6 6.9 8.3.3.3 99.7 99.7H24.7zM171 371.3l-58-58v-86.7l6.2 1.4c17 4 33.6 10.2 49.2 18.5l2.7 1.4-.1 123.4z"/><path class="st0" d="M190.8 460.6c-.6 2.1-2.6 3.6-4.8 3.6-.5 0-1-.1-1.4-.2-21-6.2-40.9-16.1-59.1-29.4-1.1-.8-1.8-1.9-2-3.3-.2-1.3.1-2.6.9-3.7 1-1.3 2.5-2 4-2 1 0 2.1.3 2.9.9 8.7 6.3 17.7 11.8 27.1 16.5 9.4 4.7 19.1 8.5 29 11.4 1.3.4 2.3 1.2 3 2.4.7 1.2.8 2.5.4 3.8zM106.8 412.4c-1 .9-2.2 1.5-3.5 1.5s-2.6-.5-3.5-1.5c-2-2-2-5.1 0-7.1 1-1 2.3-1.5 3.5-1.5 1.3 0 2.5.5 3.5 1.4 1.9 2.1 1.9 5.3 0 7.2zM133.2 137c0 2.8-2.2 5-5 5H64c-2.8 0-5-2.2-5-5V10c0-2.8 2.2-5 5-5h64.1c2.8 0 5 2.3 5 5 0 2.8-2.2 5-5 5H69v53.5h42.3c2.8 0 5 2.3 5 5 0 2.8-2.3 5-5 5H69V132h59.2c2.7 0 5 2.2 5 5zM384 5c-37.8 0-68.5 30.7-68.5 68.5S346.2 142 384 142s68.5-30.7 68.5-68.5S421.8 5 384 5zm0 127c-32.3 0-58.5-26.2-58.5-58.5S351.7 15 384 15s58.5 26.3 58.5 58.5c0 32.3-26.2 58.5-58.5 58.5zM282.1 114.9c2 2 2 5.1 0 7.1-12.9 12.9-30.1 20-48.4 20s-35.5-7.1-48.4-20-20-30.1-20-48.4 7.1-35.5 20-48.4c13.4-13.4 30.9-20 48.4-20s35.1 6.7 48.4 20c2 1.9 2 5.1 0 7.1-2 1.9-5.1 1.9-7.1 0-11-11-25.7-17.1-41.4-17.1s-30.3 6.1-41.4 17.1c-11 11-17.1 25.7-17.1 41.4s6.1 30.3 17.1 41.4c11 11 25.7 17.1 41.4 17.1 15.6 0 30.3-6.1 41.4-17.1 2-2.2 5.2-2.2 7.1-.2zM261.1 180.4v28.3c0 2.8-2.2 5-5 5s-5-2.2-5-5v-28.3c0-2.8 2.2-5 5-5 2.7 0 5 2.2 5 5zM312.3 205c0 1.3-.5 2.6-1.5 3.5l-20.4 20.4c-1 .9-2.2 1.5-3.5 1.5s-2.6-.5-3.5-1.5c-2-2-2-5.1 0-7.1l20.4-20.4c.9-1 2.2-1.5 3.5-1.5s2.6.5 3.5 1.5c1 1 1.5 2.2 1.5 3.6zM230.1 225.1c0 1.3-.5 2.6-1.5 3.5-1 1-2.2 1.5-3.5 1.5s-2.6-.5-3.5-1.5l-20.4-20.4c-.9-1-1.5-2.2-1.5-3.5s.5-2.6 1.5-3.5c1-1 2.3-1.5 3.5-1.5 1.3 0 2.6.5 3.5 1.5l20.4 20.4c.9.9 1.5 2.1 1.5 3.5z"/></svg>