<svg xmlns="http://www.w3.org/2000/svg" width="512" height="512" viewBox="0 0 512 512"><path d="M477.9 102.4c-18.8 0-34.1 15.3-34.1 34.1 0 6.3 1.8 12.2 4.8 17.2l-90 90c-5.1-3-10.9-4.8-17.2-4.8-6.3 0-12.1 1.8-17.2 4.8l-38.8-38.8c3-5.1 4.8-10.9 4.8-17.2 0-18.8-15.3-34.1-34.1-34.1S222 168.9 222 187.7c0 4 .8 7.8 2.1 11.4L56.3 366.8c-6-5.2-13.7-8.4-22.2-8.4V59.7c0-14.1 11.5-25.6 25.6-25.6h392.5c14.1 0 25.6 11.5 25.6 25.6v17.1c0 4.7 3.8 8.5 8.5 8.5s8.5-3.8 8.5-8.5V59.7c0-23.5-19.1-42.7-42.7-42.7H59.7C36.2 17 17 36.1 17 59.7v303.4c-10.1 6-17 16.9-17 29.4 0 18.8 15.3 34.1 34.1 34.1s34.1-15.3 34.1-34.1c0-4-.8-7.8-2.1-11.4l167.7-167.7c6 5.2 13.7 8.4 22.2 8.4 6.3 0 12.2-1.8 17.3-4.9l38.8 38.8c-3 5.1-4.9 10.9-4.9 17.3 0 18.8 15.3 34.1 34.1 34.1s34.1-15.3 34.1-34.1c0-6.3-1.8-12.2-4.8-17.2l90-90c5.1 3 10.9 4.8 17.2 4.8v281.6c0 14.1-11.5 25.6-25.6 25.6h-25.6V247.5c0-4.7-3.8-8.5-8.5-8.5s-8.5 3.8-8.5 8.5v230.4h-51.2V332.8c0-4.7-3.8-8.5-8.5-8.5s-8.5 3.8-8.5 8.5v145.1h-51.2V264.5c0-4.7-3.8-8.5-8.5-8.5s-8.5 3.8-8.5 8.5v213.3H222V264.5c0-4.7-3.8-8.5-8.5-8.5s-8.5 3.8-8.5 8.5v213.3h-51.2v-145c0-4.7-3.8-8.5-8.5-8.5s-8.5 3.8-8.5 8.5v145.1H85.3v-34.1c0-4.7-3.8-8.5-8.5-8.5s-8.5 3.8-8.5 8.5v34.1h-8.5c-14.1 0-25.6-11.5-25.6-25.6 0-4.7-3.8-8.5-8.5-8.5s-8.5 3.8-8.5 8.5c0 23.5 19.1 42.7 42.7 42.7h392.5c23.5 0 42.7-19.1 42.7-42.7V165.9c10.2-5.9 17.1-16.8 17.1-29.4-.2-18.8-15.5-34.1-34.3-34.1zM34.1 409.6c-9.4 0-17.1-7.7-17.1-17.1 0-9.4 7.7-17.1 17.1-17.1 9.4 0 17.1 7.7 17.1 17.1 0 9.4-7.7 17.1-17.1 17.1zM256 204.8c-9.4 0-17.1-7.7-17.1-17.1 0-9.4 7.7-17.1 17.1-17.1 9.4 0 17.1 7.7 17.1 17.1s-7.7 17.1-17.1 17.1zm85.3 85.3c-9.4 0-17.1-7.7-17.1-17.1 0-9.4 7.7-17.1 17.1-17.1 9.4 0 17.1 7.7 17.1 17.1s-7.7 17.1-17.1 17.1zm136.6-136.5c-4.7 0-8.9-1.9-12-4.9 0 0 0-.1-.1-.1 0 0-.1 0-.1-.1-3-3.1-4.9-7.3-4.9-12 0-9.4 7.7-17.1 17.1-17.1s17.1 7.7 17.1 17.1-7.7 17.1-17.1 17.1z" fill="#1e1d25"/></svg>