<svg id="Слой_1" xmlns="http://www.w3.org/2000/svg" width="480" height="480" viewBox="0 0 480 480"><style>.st0{fill:#1e1d25}</style><path class="st0" d="M192 224h16v16h-16v-16zM431.9 224h16v16h-16v-16z"/><path class="st0" d="M471.9 128.1h-42.3l11.5-14c6-7.3 8.7-16.7 7.5-26.1-.1-.5-.2-.9-.3-1.3l30.5-16.5-7.6-14.1L441.9 72c-.4-.6-.8-1.2-1.3-1.8l23.7-33.5-13-9.3L427.5 61c-1.5-.6-3-1.1-4.6-1.5l8.3-33.5-15.5-3.8-9.2 37.5c-8.6 2.2-15.9 7.6-20.5 15.2l-.1.1c.3-8.9-2.9-17.5-8.9-24.1-.3-.3-.7-.6-1-.9l15.1-31-14.4-7.1L362 41.8c-.7-.2-1.4-.5-2.1-.7V.1h-16v41c-1.6.4-3.1.9-4.6 1.5l-12.7-32.1-14.9 5.9 14.2 36c-5.7 6.7-8.6 15.5-8 24.3l3.8 51.4h-25.5c0-.5.2-1 .6-1.4 9.4-10.6 9.4-26.6 0-37.2-.6-.6-.8-1.6-.4-2.4 5.4-5.9 8.1-13.8 7.3-21.8-1.9-14.7-14.6-25.5-29.4-25.2-.9 0-1.8-.4-2.4-1.1-.4-.4-.6-1-.5-1.6 2-11.9-2.9-23.9-12.6-31.1-9.7-7.2-22.6-8.2-33.4-2.8C214.7 9 208 20 208 32.1c0 1.4.1 2.7.3 4.1.2 1.1-.1 2.2-.8 3.1-.6.6-1.5 1-2.3.8-14.6-.2-27.1 10.6-29 25.1-.8 8 1.8 15.9 7.3 21.8.4.8.3 1.8-.4 2.4-9.4 10.6-9.4 26.6 0 37.2.3.4.6.9.6 1.4H168c-4.4 0-8 3.6-8 8v128c0 4.4 3.6 8 8 8h80v-16h-72v-48h287.9v48h-80v16h88c4.4 0 8-3.6 8-8V136c0-4.4-3.6-7.9-8-7.9zm-72.3-44.9c3.5-5.7 9.9-9 16.6-8.5 6.7.5 12.6 4.7 15.2 10.8 2.7 6.2 1.7 13.3-2.6 18.5l-20 24.1h-36.4l4.8-8h22.7v-16h-13l12.7-20.9zm-64.1 12.9h20.4v-16h-21.6l-.3-4.7c-.4-5 1.3-9.9 4.8-13.6 3.5-3.6 8.2-5.6 13.2-5.6s9.7 2 13.2 5.6c3.4 3.7 5.2 8.6 4.8 13.6l-2.2 29.6-14 23.1h-15.9l-2.4-32zm-140.5 20c-4-4.5-4-11.4 0-15.9 6.1-6.8 6.2-17.1.1-23.9-2.3-2.5-3.5-6-3.1-9.4 1.1-6.5 6.9-11.2 13.5-10.8 5.3 0 10.4-2.3 13.9-6.3 3.7-4.3 5.4-10 4.7-15.7-.1-.7-.1-1.3-.1-2 0-8.2 6.1-15.1 14.3-16 8.1-.9 15.6 4.5 17.4 12.5.4 2 .5 4.1.2 6.1-.9 5.2.6 10.6 4.1 14.6 3.7 4.4 9.2 6.9 15 6.8 6.4-.2 12.1 4.4 13.1 10.7.4 3.4-.8 6.9-3.1 9.4-6 6.9-6 17.1.2 23.9 4 4.5 4 11.4 0 15.9-2.9 3.3-4.6 7.6-4.6 12h-13.1l2.3-2.3-11.3-11.3-10.5 10.4v-17.4l21.7-21.7-11.3-11.3L248 84.8V56.1h-16v28.7l-10.3-10.3-11.3 11.3 21.7 21.7v17.4l-10.3-10.3-11.3 11.3 2.3 2.3h-13c-.2-4.6-1.9-8.8-4.8-12.1zm-19 76v-48h287.9v48H176z"/><path class="st0" d="M192 160.1h16v16h-16v-16zM431.9 160.1h16v16h-16v-16zM32 480h80c17.7 0 32-14.3 32-32V301.6c0-10.1-2.1-20-6.2-29.2l-25.8-58v-6.3c4.4 0 8-3.6 8-8v-24c0-8.8-7.2-16-16-16H40c-8.8 0-16 7.2-16 16v24c0 4.4 3.6 8 8 8v6.3l-25.8 58C2.1 281.6 0 291.6 0 301.6V448c0 17.7 14.3 32 32 32zm96-32c0 8.8-7.2 16-16 16H32c-8.8 0-16-7.2-16-16V301.6c0-7.8 1.6-15.6 4.8-22.7l6.1-13.7c14.7-5.1 30.7-5.3 45.6-.5 14.3 4.9 29.7 6.1 44.6 3.3l1.1-.2 4.9 11.1c3.2 7.2 4.9 14.9 4.9 22.7V448zM40 176.1h64v16H40v-16zm56 32v8c0 1.1.2 2.2.7 3.2l14.8 33.3c-11.4 1.6-23.1.5-34-3.2-13.7-4.3-28.2-5.3-42.3-2.8l12.2-27.4c.4-1 .7-2.1.7-3.2v-8H96z"/><path class="st0" d="M32 296h16v16H32v-16zM32 328h16v80H32v-80zM464.8 353.1c-9.5-7.5-21.9-10.1-33.6-7.1l-15.3 3.8V312c0-13.3-10.7-24-24-24h-13.2c-7.7-25.6-24.1-47.8-46.4-62.6-2.8-1.9-6.5-1.8-9.2.3L240 288h-56c-13.3 0-24 10.7-24 24v144c0 13.3 10.7 24 24 24h208c13.3 0 24-10.7 24-24v-37.7l15.3 3.8c18 4.6 36.7-4.1 44.9-20.8 8-16.7 3.3-36.8-11.4-48.2zm-256.8.3V336h160v80H208v-17.4c9.6-3.4 16-12.5 16-22.6s-6.4-19.2-16-22.6zm120.1-111.5c24.6 18.5 39.4 47.3 39.8 78.1H224l104.1-78.1zM455 402.3c-5.6 4.4-13 6-19.9 4.2l-25.2-6.3c-2.4-.6-4.9-.1-6.9 1.5-1.9 1.5-3.1 3.8-3.1 6.3v48c0 4.4-3.6 8-8 8H184c-4.4 0-8-3.6-8-8V312c0-4.4 3.6-8 8-8h34.7l-23.5 17.6-.5.5-.7.7c-.4.5-.8 1-1.1 1.6-.6 1.1-.9 2.3-.9 3.5V360c0 4.4 3.6 8 8 8s8 3.6 8 8-3.6 8-8 8-8 3.6-8 8v32c0 4.4 3.6 8 8 8h176c4.4 0 8-3.6 8-8V321.7c-.1-5.9-.6-11.8-1.5-17.7h9.5c4.4 0 8 3.6 8 8v48c0 2.5 1.1 4.8 3.1 6.3 1.9 1.5 4.5 2.1 6.9 1.5l25.2-6.3c10.7-2.7 21.8 2.4 26.6 12.3 4.7 9.9 1.9 21.8-6.8 28.5z"/><path class="st0" d="M431.9 376h16v16h-16v-16zM271.9 400c13.3 0 24-10.7 24-24s-10.7-24-24-24-24 10.7-24 24c.1 13.3 10.8 24 24 24zm0-32c4.4 0 8 3.6 8 8s-3.6 8-8 8-8-3.6-8-8 3.6-8 8-8zM311.9 352h16v16h-16v-16zM335.9 384h16v16h-16v-16zM56 96.1c0 24 17.7 44.3 41.6 47.6 23.8 3.2 46.3-11.6 52.7-34.8 6.4-23.2-5.3-47.5-27.4-56.9l17.9-13.5-9.6-12.8L112 40.1v-24H96v24L76.8 25.7l-9.6 12.8L85.1 52C67.5 59.5 56 76.9 56 96.1zm48-32c17.7 0 32 14.3 32 32s-14.3 32-32 32-32-14.3-32-32 14.3-32 32-32z"/></svg>