<svg id="Слой_1" xmlns="http://www.w3.org/2000/svg" width="496" height="496" viewBox="0 0 496 496"><style>.st0{fill:#1e1d25}</style><path class="st0" d="M152 168c-4.4 0-8-3.6-8-8h-16c0 13.2 10.8 24 24 24v-16zM344 344v16c13.2 0 24-10.8 24-24h-16c0 4.4-3.6 8-8 8z"/><path class="st0" d="M472 272c-12.9 0-23.4 10.3-23.9 23.1l-53.6 16.8c-7.9-16.5-23.7-28.5-42.4-31.2v-89.8c13.8-3.6 24-16 24-30.9 0-6.3-1.9-12.1-5-17l91.3-97.1c3 1.3 6.2 2.1 9.7 2.1 13.2 0 24-10.8 24-24S485.2 0 472 0s-24 10.8-24 24c0 3.9 1 7.6 2.7 10.9l-91.4 97.2c-4.6-2.5-9.7-4.1-15.3-4.1-14.9 0-27.3 10.2-30.9 24H207.4c-3.5-24.5-22.9-43.8-47.4-47.4V46.5c9.3-3.3 16-12.1 16-22.5 0-13.2-10.8-24-24-24s-24 10.8-24 24c0 10.4 6.7 19.2 16 22.5v58.1c-27.1 3.9-48 27.2-48 55.4 0 8.9 2.1 17.3 5.8 24.8L38 228.6c-3.9-2.9-8.8-4.6-14-4.6-13.2 0-24 10.8-24 24s10.8 24 24 24 24-10.8 24-24c0-2.1-.4-4.2-.9-6.2l63.8-43.9c8.5 9.2 20.1 15.5 33.1 17.4v89.8c-13.8 3.6-24 16-24 30.9 0 6.3 1.9 12.1 5 17l-91.3 97c-3-1.3-6.2-2.1-9.7-2.1-13.2 0-24 10.8-24 24s10.8 24 24 24 24-10.8 24-24c0-3.9-1-7.6-2.7-10.9l91.4-97.2c4.6 2.5 9.7 4.1 15.3 4.1 2 0 3.8-.2 5.7-.6l25.6 55.4c-4.5 4.4-7.3 10.4-7.3 17.2 0 13.2 10.8 24 24 24s24-10.8 24-24-10.8-24-24-24c-.7 0-1.4.2-2.2.2l-25.7-55.6c5.2-4.2 9-10 10.7-16.6h105.8c3.5 24.5 22.9 43.8 47.4 47.4v58.1c-9.3 3.3-16 12.1-16 22.5 0 13.2 10.8 24 24 24s24-10.8 24-24c0-10.4-6.7-19.2-16-22.5v-58.1c27.1-3.9 48-27.2 48-55.4 0-3-.3-6-.8-8.9l53.7-16.8c4.4 5.8 11.3 9.6 19.1 9.6 13.2 0 24-10.8 24-24S485.2 272 472 272zM24 256c-4.4 0-8-3.6-8-8s3.6-8 8-8 8 3.6 8 8-3.6 8-8 8zm184 184c0 4.4-3.6 8-8 8s-8-3.6-8-8 3.6-8 8-8 8 3.6 8 8zM472 16c4.4 0 8 3.6 8 8s-3.6 8-8 8-8-3.6-8-8 3.6-8 8-8zM344 144c8.8 0 16 7.2 16 16s-7.2 16-16 16-16-7.2-16-16 7.2-16 16-16zM152 16c4.4 0 8 3.6 8 8s-3.6 8-8 8-8-3.6-8-8 3.6-8 8-8zm-40 144c0-22.1 17.9-40 40-40s40 17.9 40 40-17.9 40-40 40-40-17.9-40-40zM24 480c-4.4 0-8-3.6-8-8s3.6-8 8-8 8 3.6 8 8-3.6 8-8 8zm112-144c0-8.8 7.2-16 16-16s16 7.2 16 16-7.2 16-16 16-16-7.2-16-16zm24-30.9v-89.8c24.5-3.5 43.8-22.9 47.4-47.4h105.8c2.9 11.2 11.7 20 22.9 22.9v89.8c-24.5 3.5-43.8 22.9-47.4 47.4H182.9c-2.9-11.2-11.7-20-22.9-22.9zM344 480c-4.4 0-8-3.6-8-8s3.6-8 8-8 8 3.6 8 8-3.6 8-8 8zm0-104c-22.1 0-40-17.9-40-40s17.9-40 40-40 40 17.9 40 40-17.9 40-40 40zm128-72c-4.4 0-8-3.6-8-8s3.6-8 8-8 8 3.6 8 8-3.6 8-8 8z"/></svg>