<svg id="Layer_1" xmlns="http://www.w3.org/2000/svg" width="512" height="512" viewBox="0 0 512 512"><style>.st0{fill:#1e1d25}</style><path class="st0" d="M10.6 491.1h-.1c-5.8 0-10.4 4.7-10.4 10.4S4.7 512 10.4 512h.1c5.8 0 10.4-4.7 10.4-10.4s-4.5-10.5-10.3-10.5zM501.5 491.1h-.1c-5.8 0-10.4 4.7-10.4 10.4s4.7 10.4 10.4 10.4h.1c5.8 0 10.4-4.7 10.4-10.4s-4.6-10.4-10.4-10.4zM294.1 212.1c-6.4 0-11.7 5.2-11.7 11.7 0 6.4 5.2 11.7 11.7 11.7s11.7-5.2 11.7-11.7c0-6.4-5.3-11.7-11.7-11.7zM217.9 212.1c-6.4 0-11.7 5.2-11.7 11.7 0 6.4 5.2 11.7 11.7 11.7s11.7-5.2 11.7-11.7c-.1-6.4-5.3-11.7-11.7-11.7zM266.2 261.3h-20.4c-5.8 0-10.4 4.7-10.4 10.4 0 11.4 9.3 20.7 20.7 20.7s20.7-9.3 20.7-20.7c-.1-5.7-4.8-10.4-10.6-10.4zM89.4 45c-12.9 0-24.9 5.9-34 16.4C46.3 50.9 34.4 45 21.5 45 15.7 45 11 49.6 11 55.4s4.7 10.4 10.4 10.4c9.8 0 18.9 7.1 24.5 19 1.7 3.7 5.4 6 9.5 6s7.7-2.3 9.5-6c5.6-11.9 14.7-19 24.5-19 5.8 0 10.4-4.7 10.4-10.4S95.2 45 89.4 45zM122.3 244.8c-12.9 0-24.9 5.9-34 16.4-9.1-10.5-21.1-16.4-34-16.4-5.8 0-10.4 4.7-10.4 10.4s4.7 10.4 10.4 10.4c9.8 0 18.9 7.1 24.5 19 1.7 3.7 5.4 6 9.5 6s7.7-2.4 9.5-6c5.6-11.9 14.7-19 24.5-19 5.8 0 10.4-4.7 10.4-10.4s-4.6-10.4-10.4-10.4zM501.6 0c-12.9 0-24.9 5.9-34 16.4C458.5 5.9 446.5 0 433.6 0c-5.8 0-10.4 4.7-10.4 10.4s4.7 10.4 10.4 10.4c9.8 0 18.9 7.1 24.5 19 1.7 3.7 5.4 6 9.5 6s7.7-2.3 9.5-6c5.6-11.9 14.7-19 24.5-19 5.8 0 10.4-4.7 10.4-10.4S507.3 0 501.6 0zM463.6 257c-5.8 0-10.4 4.7-10.4 10.4v22.8c0 5.8 4.7 10.4 10.4 10.4s10.4-4.7 10.4-10.4v-22.8c0-5.7-4.6-10.4-10.4-10.4zM488.8 245.6c-5.8 0-10.4 4.7-10.4 10.4v22.8c0 5.8 4.7 10.4 10.4 10.4s10.4-4.7 10.4-10.4V256c.1-5.7-4.6-10.4-10.4-10.4zM438.3 245.6c-5.8 0-10.4 4.7-10.4 10.4v22.8c0 5.8 4.7 10.4 10.4 10.4 5.8 0 10.4-4.7 10.4-10.4V256c.1-5.8-4.6-10.4-10.4-10.4z"/><path class="st0" d="M511.7 418.3c-.5-4.9-4.5-8.9-9.4-9.4-.9-.1-2.8-.3-5.5-.3 1.3-1 2.6-2.1 3.9-3.3 13.3-13.2 11.4-35.1 11-38.1-.5-4.9-4.5-8.9-9.4-9.3-.9-.1-2.8-.3-5.5-.3 1.3-1 2.6-2.1 3.8-3.3 13.3-13.2 11.4-35.1 11-38.1-.5-4.9-4.5-8.8-9.4-9.3-3.6-.4-24.9-2.2-38 10.8-.2.2-.4.5-.7.7-.2-.2-.4-.5-.7-.7-13.1-13-34.5-11.2-38-10.8-4.9.5-8.9 4.5-9.4 9.4-.3 3.1-2.2 24.9 11.1 38 1.2 1.2 2.5 2.3 3.8 3.3-2.7 0-4.7.2-5.5.3-4.9.5-8.9 4.5-9.4 9.4-.3 3.1-2.2 24.9 11.1 38 1.2 1.2 2.5 2.3 3.9 3.3-2.7 0-4.7.2-5.5.3-4.9.5-8.9 4.5-9.4 9.4-.3 3.1-2.2 24.9 11.1 38 7.8 7.8 18.4 10.3 26.6 10.9V491h-43.6v-70.6c0-20.4-12.3-39.7-29.9-47l-67.2-28c-2.4-1-3.9-3.3-3.9-5.9v-16.3l27.3-15.7.6-.3c13.7-9 22.7-25.1 24-43v-9.5c13.6-4.4 23.4-17.2 23.4-32.2 0-6.7-2-12.9-5.3-18.2 11.8-2.7 22-5.9 30.2-9.4 17.9-7.6 27-17.1 27-28.2 0-16.4-19-28.6-57.9-37.5-6.6-1.5-13.6-2.8-20.9-4.1V85.7c0-4.3-2.7-8.2-6.7-9.8-2-.8-48.8-18.4-94.2-18.4-45.4 0-92.2 17.7-94.2 18.4-4 1.5-6.7 5.4-6.7 9.8V125c-7.9 1.3-15.4 2.7-22.4 4.3-39 8.8-57.9 21.1-57.9 37.5 0 16.8 20.9 25.4 27.8 28.3 8.4 3.5 18.9 6.6 30.8 9.4-3.4 5.3-5.3 11.5-5.3 18.2 0 15 9.8 27.8 23.4 32.2v9.5c1.4 17.9 10.3 34 23.9 43 .2.1.4.2.6.4l27.5 15.7v16.2c0 2.6-1.5 4.9-3.9 5.9l-67.2 28c-17.6 7.3-29.9 26.7-29.9 47v70.6H80.5v-73.3c17.9-9.2 30.2-27.8 30.2-49.3v-31.1c0-5.8-4.7-10.4-10.4-10.4s-10.4 4.7-10.4 10.4v31.1c0 14.9-9.6 27.7-22.9 32.4-.1 0-.8.2-1.1.3v-64.9c0-5.8-4.7-10.4-10.4-10.4S45 330.7 45 336.4v64.9c-.2-.1-.9-.3-1-.3-13.4-4.7-23-17.5-23-32.5v-31.1c0-5.8-4.7-10.4-10.4-10.4S.2 331.7.2 337.4v31.1c0 21.5 12.3 40.1 30.3 49.3v83.7c0 5.8 4.7 10.4 10.4 10.4h426.8c5.8 0 10.4-4.7 10.4-10.4 0-3.3-1.5-6.2-3.9-8.2v-26.1c8.2-.7 18.7-3.2 26.5-10.9-1.8 1.8-2.8 2.8 0 0 8.3-8.2 3.1-3.1 0 0 13.2-13.2 11.4-34.9 11-38zm-70.3 23.2c-2.8-2.8-4.2-7.4-4.8-11.6 4.3.6 8.8 1.9 11.7 4.7 2.8 2.8 4.2 7.4 4.8 11.6-4.3-.6-8.9-1.9-11.7-4.7zm0-51c-2.8-2.8-4.2-7.4-4.8-11.6 4.3.6 8.8 1.9 11.7 4.7 2.8 2.8 4.2 7.4 4.8 11.6-4.3-.5-8.9-1.9-11.7-4.7zm0-50.9c-2.8-2.8-4.2-7.4-4.8-11.6 4.3.6 8.8 1.9 11.7 4.7 2.8 2.8 4.2 7.4 4.8 11.6-4.3-.6-8.9-1.9-11.7-4.7zM51.3 491.1v-67.4c1.4.1 2.7.2 4.1.2 1.4 0 2.8-.1 4.2-.2v67.4h-8.3zM176 93.1c14.1-4.7 48-14.7 80-14.7 31.9 0 65.9 10 80 14.7v29.2c-24.6-3-52.2-4.5-80.7-4.5-28 0-55 1.5-79.3 4.4V93.1zm-41.1 90.2c-25.6-6.2-37.1-13.2-39.1-16.6 1.7-2.9 12.8-11 46.1-18 30.8-6.5 71.1-10 113.4-10s82.6 3.6 113.4 10c33.5 7 44.4 15.2 46.1 18.1-1.5 2.6-11 10.1-39 16.8-2.1-15-23.8-21.7-40.2-25.4-21.5-4.9-50-7.6-80.2-7.6s-58.7 2.7-80.2 7.6c-16.5 3.7-37.9 10.3-40.3 25.1zm51.7 106.3c-8-5.4-13.3-15.3-14.2-26.6v-17c0-5.8-4.7-10.4-10.4-10.4-7.1 0-13-5.8-13-13s5.8-13 13-13c5.8 0 10.4-4.7 10.4-10.4v-18.7c3.7-1 8.1-2.1 13.4-3.1 19.3-3.7 43.9-5.8 69.5-5.8s50.2 2.1 69.5 5.8c5.9 1.1 10.8 2.3 14.8 3.5v18.3c0 5.8 4.7 10.4 10.4 10.4 7.1 0 13 5.8 13 13 0 7.1-5.8 13-13 13-5.8 0-10.4 4.7-10.4 10.4v17c-.9 11-6.4 21.2-14.4 26.6L269 321.8l-.6.3c-7.8 5.2-17.2 5.2-25 0-.2-.1-.4-.2-.6-.4l-56.2-32.1zm101 45.6V377c0 17.4-14.2 31.5-31.6 31.5-17.5 0-31.7-14.1-31.7-31.5v-41.8l7.9 4.5c7.3 4.8 15.5 7.1 23.7 7.1s16.4-2.4 23.7-7.1l8-4.5zM148.4 491.1h-25.2v-70.6c0-11.8 7.3-23.7 17-27.8l4.9-2c2.2 4.6 3.3 9.7 3.3 14.9v85.5zm164 0H199.9v-24h112.6v24zm30.2-85.6v85.6h-9.3v-34.5c0-5.8-4.7-10.4-10.4-10.4H189.4c-5.8 0-10.4 4.7-10.4 10.4v34.5h-9.7v-85.6c0-8-1.7-15.7-4.9-22.9l39-16.2V377c0 28.9 23.6 52.4 52.6 52.4s52.5-23.5 52.5-52.4v-10.6l39 16.2c-3.2 7.2-4.9 14.9-4.9 22.9zm46.1 85.6h-25.2v-85.6c0-5.2 1.1-10.2 3.3-14.9l4.9 2c9.7 4 17 16 17 27.8v70.7zm75-125.8c1.1.1 2.7.2 4.5.2-1.3 1-2.6 2-3.8 3.3-.2.2-.4.5-.7.7-.2-.2-.4-.5-.7-.7-1.2-1.2-2.5-2.3-3.9-3.3 1.9 0 3.4-.1 4.6-.2zm.6 54.4c-.2.2-.4.5-.7.7-.2-.2-.4-.5-.7-.7-1.2-1.2-2.5-2.3-3.9-3.3 1.9 0 3.4-.1 4.5-.2 1.1.1 2.7.2 4.5.2-1.1 1-2.4 2.1-3.7 3.3zm14.8-87.1c2.8-2.8 7.4-4.1 11.7-4.7-.6 4.2-1.9 8.8-4.8 11.6-2.8 2.8-7.4 4.1-11.7 4.7.6-4.2 1.9-8.7 4.8-11.6zm6.8 108.9c-2.8 2.8-7.4 4.1-11.7 4.7.6-4.3 1.9-8.8 4.8-11.6 2.8-2.8 7.4-4.1 11.7-4.7-.6 4.2-1.9 8.8-4.8 11.6zm0-51c-2.8 2.8-7.4 4.1-11.7 4.7.6-4.2 1.9-8.8 4.8-11.6 2.8-2.8 7.4-4.1 11.7-4.7-.6 4.2-1.9 8.8-4.8 11.6z"/></svg>