<svg id="Layer_1" xmlns="http://www.w3.org/2000/svg" width="480" height="480" viewBox="0 0 480 480"><style>.st0{fill:#1e1d25}</style><path class="st0" d="M196 228h8v8h-8zM435.9 228h8v8h-8z"/><path class="st0" d="M471.9 132.1h-50.8l17-20.5c5.3-6.4 7.7-14.8 6.6-23v-.2c-.1-.3-.2-.7-.2-1l-.5-2.8 29.5-16-3.8-7-28.8 15.6-2.1-2.7c-.2-.3-.4-.5-.6-.8s-.4-.5-.6-.8l-2.1-2.4 23.3-32.8-6.5-4.6L429 65.8l-2.9-1.2c-1.3-.5-2.7-1-4.1-1.3l-3.9-.9 8.3-33.5-7.8-1.9-8.9 36-2.3.6c-7.6 2-14 6.7-18.1 13.4l-.2.3-7.7 11.4.4-13.8c.3-7.9-2.6-15.4-7.9-21.2 0 0-.1 0-.1-.1-.2-.2-.5-.4-.8-.8l-2-2 14.8-30-7.2-3.5-14.5 29.4-3.3-1c-.3-.1-.6-.2-1-.3l-.9-.3-3.1-.8V4.1h-8v40.2l-3 .8c-1.4.3-2.7.8-4 1.3l-3.7 1.5-12.7-32.1-7.5 2.9 13.6 34.5L329 55c-5.1 6-7.6 13.6-7.1 21.4l4.2 55.7H292l.3-4.3c.1-1.4.7-2.7 1.6-3.8 8-9.1 8.1-22.7.1-31.8-1.8-1.9-2.2-4.7-.9-7l.2-.4.3-.4c4.6-5.1 6.9-11.8 6.2-18.7-1.7-12.6-12.6-21.9-25.3-21.6h-.1c-2 0-4-.9-5.3-2.4-1.2-1.3-1.7-3.1-1.5-4.8v-.1c1.8-10.5-2.5-20.9-11-27.2s-19.8-7.2-29.2-2.4c-9.5 4.8-15.4 14.4-15.4 25 0 1.2.1 2.4.2 3.5.4 2.2-.2 4.4-1.6 6.2l-.2.2a6.63 6.63 0 0 1-5.5 2.1h-.2c-12.4 0-23 9.2-24.6 21.6-.7 6.8 1.6 13.6 6.2 18.7l.3.4.2.4c1.3 2.3.9 5.1-.9 7-8 9.1-8 22.7 0 31.8.9 1.1 1.5 2.4 1.6 3.8l.4 4.3h-20c-2.2 0-4 1.8-4 4v128c0 2.2 1.8 4 4 4h76v-8h-72v-56h295.9v56h-80v8h84c2.2 0 4-1.8 4-4v-128c.1-2.3-1.7-4.1-3.9-4.1zm-92.1-24l16.3-27c4.3-7 12.1-11 20.3-10.4 8.2.6 15.3 5.7 18.6 13.2 3.3 7.6 2.1 16.2-3.1 22.6l-21.2 25.6h-45.4l9.6-16h20.9v-8h-16zm-44-49c4.3-4.4 10.1-6.8 16.1-6.8s11.9 2.5 16.1 6.8c4.3 4.5 6.4 10.6 5.9 16.7l-2.3 30.5-15.6 25.8h-21.9l-3-40h20.7v-8h-21.3l-.6-8.4c-.4-6.1 1.7-12.2 5.9-16.6zM188 66.4v-.2c1.4-8.5 8.9-14.6 17.5-14.1 2.1 0 4.1-.4 5.9-1.3 1.8-.8 3.5-2.1 4.9-3.6 3-3.4 4.3-8 3.7-12.5-.1-.8-.2-1.7-.2-2.5 0-10.2 7.6-18.8 17.8-19.9s19.5 5.6 21.7 15.6c.5 2.5.6 5 .2 7.6-.7 4.1.5 8.2 3.2 11.4 3 3.5 7.3 5.5 11.9 5.4 8.4-.3 15.8 5.7 17.1 14.1v.2c.5 4.6-1 9.1-4.1 12.5-4.7 5.3-4.6 13.3.2 18.5 5.4 6.1 5.4 15.2 0 21.3-2.3 2.6-3.6 5.9-3.6 9.4v4h-26.7l6.4-6.3-5.7-5.7-14.2 14.1v-28.7l20-20-5.7-5.7L244 94.4V60.1h-8v34.3L221.6 80l-5.6 5.7 20 20v28.7l-14.4-14.3-5.6 5.7 6.3 6.3h-26.7v-4c0-3.5-1.3-6.8-3.6-9.4-5.4-6-5.4-15.2 0-21.2 4.8-5.3 4.8-13.3.2-18.6-3.2-3.4-4.7-7.9-4.2-12.5zm279.9 129.7H172v-56h295.9v56z"/><path class="st0" d="M196 164.1h8v8h-8zM435.9 164.1h8v8h-8zM134.1 274L108 215.2v-11.1h4c2.2 0 4-1.8 4-4v-24c0-6.6-5.4-12-12-12H40c-6.6 0-12 5.4-12 12v24c0 2.2 1.8 4 4 4h4v11.1L9.8 274C6 282.7 4 292 4 301.6V448c0 15.4 12.6 28 28 28h80c15.4 0 28-12.6 28-28V301.6c0-9.6-2-18.8-5.9-27.6zM36 172.1h72v24H36v-24zm7.7 45.5c.2-.5.3-1 .3-1.6v-12h56v12c0 .5.1 1.1.3 1.6l17 38.1-5.2.8c-3.6.5-7.2.8-10.9.8-8.5 0-17-1.4-25-4.1-12.9-4.1-26.9-5-40.3-2.6l-7.4 1.3 15.2-34.3zM132 448c0 11-9 20-20 20H32c-11 0-20-9-20-20V301.6c0-8.4 1.7-16.6 5.1-24.4l6.8-15.3 1.7-.6c15.5-5.3 32.5-5.5 48.1-.6 13.7 4.7 28.4 5.8 42.6 3.2l4.2-.8 6.3 14.1c3.5 7.7 5.2 15.9 5.2 24.4V448z"/><path class="st0" d="M36 300h8v8h-8zM36 332h8v72h-8zM462.4 356.3c-8.5-6.7-19.8-9.1-30.2-6.4l-20.2 5V312c0-11-9-20-20-20h-16.2l-.9-2.8c-7.4-24.7-23.4-46.2-44.8-60.5-1.4-.9-3.2-.9-4.6.1L241.3 292H184c-11 0-20 9-20 20v144c0 11 9 20 20 20h208c11 0 20-9 20-20v-42.9l20.2 5c16.1 4.1 33-3.8 40.3-18.7 7.2-14.8 3-33-10.1-43.1zM328.1 236.9l2.4 1.8c25.5 19.1 41 49.4 41.5 81.2l.1 4.1H212l116.1-87.1zM206.6 357.2l-2.7-.9V332h168v88H204v-24.2l2.7-.9c8-2.8 13.3-10.4 13.3-18.9 0-8.4-5.4-16-13.4-18.8zm250.8 48.3c-6.5 5.1-15.3 7-23.4 4.9l-25.2-6.3c-1.2-.3-2.5 0-3.4.7-1 .8-1.5 1.9-1.5 3.2v48c0 6.6-5.4 12-12 12H184c-6.6 0-12-5.4-12-12V312c0-6.6 5.4-12 12-12h46.7l-32.8 24.6-.1.1-.3.3-.3.3c-.2.3-.4.5-.6.8l-.1.2c-.3.5-.4 1-.4 1.5V360c0 2.2 1.8 4 4 4 6.6 0 12 5.4 12 12s-5.4 12-12 12c-2.2 0-4 1.8-4 4v32c0 2.2 1.8 4 4 4h176c2.2 0 4-1.8 4-4V321.7c0-5.7-.5-11.4-1.5-17l-.8-4.7H392c6.6 0 12 5.4 12 12v48c0 1.2.6 2.4 1.5 3.2 1 .8 2.3 1 3.4.7l25.2-6.3c12.4-3.2 25.5 2.9 31.2 14.4 5.6 11.6 2.3 25.6-7.9 33.5z"/><path class="st0" d="M435.9 380h8v8h-8zM272 356c-11 0-20 9-20 20s9 20 20 20 20-9 20-20c-.1-11-9-20-20-20zm0 32c-6.6 0-12-5.4-12-12s5.4-12 12-12 12 5.4 12 12-5.4 12-12 12zM315.9 356h8v8h-8zM339.9 388h8v8h-8zM121.3 55.6l-6.4-2.7 20.3-15.2-4.8-6.4L108 48.1v-28h-8v28L77.6 31.3l-4.8 6.4 20.3 15.2-6.4 2.7C70.5 62.6 60 78.4 60 96.1c0 21.9 16.4 40.7 38.1 43.6s42.5-10.8 48.3-31.9c5.8-21.1-5-43.6-25.1-52.2zM104 132.1c-19.8 0-36-16.1-36-36 0-19.8 16.1-36 36-36s36 16.1 36 36c0 19.8-16.2 36-36 36z"/></svg>