<svg xmlns="http://www.w3.org/2000/svg" width="504.1" height="470" viewBox="0 0 504.1 470"><path d="M473.9 85.4c-16.6 0-30.1 13.5-30.1 30.1 0 5.3 1.4 10.4 4.3 15.2l1.6 2.7-94.4 94.4-2.7-1.6c-4.8-2.8-9.9-4.3-15.2-4.3-5.3 0-10.4 1.4-15.2 4.3l-2.7 1.6-43.2-43.2 1.6-2.7c2.8-4.8 4.3-9.9 4.3-15.2 0-16.6-13.5-30.1-30.1-30.1S222 150.1 222 166.7c0 3.3.6 6.5 1.9 10.1l.8 2.4L52.5 351.3l-2.8-2.4c-5.6-4.9-12.4-7.4-19.6-7.4h-4V38.7c0-16.3 13.3-29.6 29.6-29.6h392.5c16.3 0 29.6 13.3 29.6 29.6v17.1c0 2.5 2 4.5 4.5 4.5s4.5-2 4.5-4.5V38.7c0-21.3-17.3-38.7-38.7-38.7H55.7C34.4 0 17 17.3 17 38.7v305.7l-2 1.2c-9.4 5.5-15 15.2-15 25.9 0 16.6 13.5 30.1 30.1 30.1s30.1-13.5 30.1-30.1c0-3.3-.6-6.5-1.9-10.1l-.9-2.4 172.2-172 2.8 2.4c5.6 4.9 12.4 7.4 19.6 7.4 5.3 0 10.4-1.5 15.2-4.3l2.7-1.6 43.2 43.2-1.6 2.7c-2.8 4.8-4.3 9.9-4.3 15.2 0 16.6 13.5 30.1 30.1 30.1s30.1-13.5 30.1-30.1c0-5.3-1.4-10.4-4.3-15.2l-1.6-2.7 94.4-94.4 2.7 1.6c4.8 2.8 9.9 4.3 15.2 4.3h4v285.6c0 16.3-13.3 29.6-29.6 29.6h-29.6V226.5c0-2.5-2-4.5-4.5-4.5s-4.5 2-4.5 4.5v234.4h-59.2V311.8c0-2.5-2-4.5-4.5-4.5s-4.5 2-4.5 4.5v149.1h-59.2V243.5c0-2.5-2-4.5-4.5-4.5s-4.5 2-4.5 4.5v217.3H214V243.5c0-2.5-2-4.5-4.5-4.5s-4.5 2-4.5 4.5v217.3h-59.2v-149c0-2.5-2-4.5-4.5-4.5s-4.5 2-4.5 4.5v149.1H77.3v-38.1c0-2.5-2-4.5-4.5-4.5s-4.5 2-4.5 4.5v38.1H55.7c-16.3 0-29.6-13.3-29.6-29.6 0-2.5-2-4.5-4.5-4.5s-4.5 2-4.5 4.5c0 21.3 17.3 38.7 38.7 38.7h392.5c21.3 0 38.7-17.4 38.7-38.7V142.6l2-1.2c9.5-5.5 15.1-15.2 15.1-25.9-.1-16.6-13.6-30.1-30.2-30.1zM30.1 392.6c-11.6 0-21.1-9.5-21.1-21.1s9.5-21.1 21.1-21.1 21.1 9.5 21.1 21.1c0 11.6-9.4 21.1-21.1 21.1zM252 187.8c-11.6 0-21.1-9.5-21.1-21.1s9.5-21.1 21.1-21.1 21.1 9.5 21.1 21.1-9.5 21.1-21.1 21.1zm85.3 85.3c-11.6 0-21.1-9.5-21.1-21.1s9.4-21.1 21.1-21.1c11.6 0 21.1 9.5 21.1 21.1s-9.4 21.1-21.1 21.1zm136.6-136.5c-5.5 0-10.8-2.1-14.8-6.1l-.5-.5c-3.8-4-5.8-9.1-5.8-14.5 0-11.6 9.5-21.1 21.1-21.1s21.1 9.5 21.1 21.1c-.1 11.6-9.5 21.1-21.1 21.1z" fill="#1e1d25"/></svg>