<svg id="Layer_1" xmlns="http://www.w3.org/2000/svg" width="496" height="496" viewBox="0 0 496 496"><style>.st0{fill:#1e1d25}</style><path class="st0" d="M141.2 163.8l-.1-.3h-9.3l.1.6c1.6 8.1 7.9 14.4 16 16l.6.1V171l-.3-.1c-3.3-1.2-5.9-3.8-7-7.1zM354.8 339.8c-1.1 3.2-3.8 5.9-7 7l-.3.1v9.2l.6-.1c8.1-1.6 14.3-7.9 16-16l.1-.6H355l-.2.4z"/><path class="st0" d="M472 276c-10.8 0-19.5 8.5-19.9 19.3l-.1 2.8-59.6 18.6-1.5-3.1c-7.5-15.7-22.3-26.5-39.4-29l-3.4-.5v-96.3l3-.8c12.4-3.2 21-14.3 21-27 0-5.2-1.5-10.3-4.4-14.9l-1.7-2.6 95.4-101.4 2.6 1.1c2.6 1.2 5.3 1.7 8 1.7 11 0 20-9 20-20s-9-20-20-20-20 9-20 20c0 3.1.8 6.1 2.3 9.1l1.3 2.5L360.1 137l-2.7-1.5c-4.3-2.4-8.8-3.6-13.4-3.6-12.7 0-23.8 8.6-27 21l-.8 3H203.9l-.5-3.4c-3.3-22.6-21.3-40.7-44-44l-3.4-.5V43.7l2.7-.9C166.7 40 172 32.4 172 24c0-11-9-20-20-20s-20 9-20 20c0 8.4 5.4 15.9 13.3 18.8l2.7.9v64.4l-3.4.5c-25.4 3.7-44.6 25.8-44.6 51.4 0 8 1.8 15.7 5.4 23l1.5 3.1-69 47.4-2.3-1.7c-3.5-2.5-7.5-3.9-11.7-3.9-11 0-20 9-20 20s9 20 20 20 20-9 20-20c0-1.5-.2-3.2-.8-5.1l-.7-2.7 69-47.5 2.3 2.5c8.1 8.8 19 14.5 30.7 16.2l3.4.5v96.3l-3 .8c-12.4 3.2-21 14.3-21 27 0 5.2 1.5 10.3 4.4 14.9l1.7 2.6-95.3 101.5-2.6-1.1c-2.6-1.2-5.3-1.7-8-1.7-11 0-20 9-20 20s9 20 20 20 20-9 20-20c0-3.1-.8-6.1-2.3-9.1l-1.3-2.5L135.9 359l2.7 1.5c4.3 2.4 8.8 3.6 13.4 3.6 1.5 0 3-.2 5-.5l3-.5 28.1 60.8-2 2c-3.9 3.8-6.1 8.9-6.1 14.3 0 11 9 20 20 20s20-9 20-20-9-20-20-20c-.2 0-.5 0-.8.1-.3 0-.6.1-1 .1l-2.8.3-28.1-60.9 2.4-2c4.6-3.8 7.9-8.8 9.3-14.5l.8-3h112.3l.5 3.4c3.3 22.6 21.3 40.7 44 44l3.4.5v64.4l-2.7.9c-8 2.8-13.3 10.4-13.3 18.8 0 11 9 20 20 20s20-9 20-20c0-8.4-5.4-15.9-13.3-18.8l-2.7-.9v-64.4l3.4-.5c25.4-3.7 44.6-25.8 44.6-51.4 0-2.5-.2-5.2-.7-8.2l-.5-3.4 59.7-18.6 1.7 2.3c3.9 5.1 9.7 8 15.9 8 11 0 20-9 20-20C492 285 483 276 472 276zm0-264c6.6 0 12 5.4 12 12s-5.4 12-12 12-12-5.4-12-12 5.4-12 12-12zM24 260c-6.6 0-12-5.4-12-12s5.4-12 12-12 12 5.4 12 12-5.4 12-12 12zm0 224c-6.6 0-12-5.4-12-12s5.4-12 12-12 12 5.4 12 12-5.4 12-12 12zm176-56c6.6 0 12 5.4 12 12s-5.4 12-12 12-12-5.4-12-12 5.4-12 12-12zm144-288c11 0 20 9 20 20s-9 20-20 20-20-9-20-20 9-20 20-20zM140 24c0-6.6 5.4-12 12-12s12 5.4 12 12-5.4 12-12 12-12-5.4-12-12zm-32 136c0-24.3 19.7-44 44-44s44 19.7 44 44-19.7 44-44 44-44-19.7-44-44zm44 196c-11 0-20-9-20-20s9-20 20-20 20 9 20 20-9 20-20 20zm140.1-24H179.8l-.8-3c-2.5-9.8-10.2-17.5-20-20l-3-.8v-96.3l3.4-.5c22.6-3.3 40.7-21.3 44-44l.5-3.4h112.3l.8 3c2.5 9.8 10.2 17.5 20 20l3 .8v96.3l-3.4.5c-22.6 3.3-40.7 21.4-44 44l-.5 3.4zM356 472c0 6.6-5.4 12-12 12s-12-5.4-12-12 5.4-12 12-12 12 5.4 12 12zm-12-92c-24.3 0-44-19.7-44-44s19.7-44 44-44 44 19.7 44 44-19.7 44-44 44zm128-72c-6.6 0-12-5.4-12-12s5.4-12 12-12 12 5.4 12 12-5.4 12-12 12z"/></svg>