<svg version="1.1" id="Layer_1" xmlns="http://www.w3.org/2000/svg" x="0" y="0" width="512" height="512" xml:space="preserve"><style>.st0{fill:#1e1d25}</style><path class="st0" d="M502.5 389.1v-4.3c0-38.6-31.4-70.1-70.1-70.1-9.1 0-15 2.5-20.2 4.7-.6.2-1.1.5-1.7.7-6.4 2.6-13.4 2.6-19.8 0l-2.1-.9c-3.5-1.5-5-2-7.7-2.8l-6.9-2v-79c0-8.4-1.5-16.6-4.4-24.5l-13.2-35.1 14.4.7c12.6.6 24.9-4.2 33.8-13.1 2-2 2.2-5.1.4-7.3l-63-78.8V47.1c0-20.8-16.9-37.6-37.6-37.6h-193c-20.7 0-37.6 16.9-37.6 37.6v30.2l-63 78.8c-1.8 2.2-1.6 5.3.4 7.3 8.9 8.9 21.2 13.7 33.7 13.1l14.4-.7L46.1 211c-3 7.9-4.5 16.1-4.5 24.5v229.4c0 20.8 16.9 37.6 37.6 37.6h257c7.1 0 13.9-2 19.9-5.7l4-2.5 4.4 1.7c11.5 4.3 23.6 6.5 36 6.5 27.2 0 52.8-10.6 72-29.9 30.6-30.4 30.2-64.9 30-83.5zM45.3 165.6c-.8.1-1.6.1-2.4.1-2.5 0-5.1-.3-7.5-.9l-14.7-3.4 63-78.7c.8-1 1.2-2.2 1.2-3.4V47.1c0-14.7 12-26.6 26.6-26.6h192.8c14.7 0 26.6 11.9 26.6 26.6v32.1c0 1.2.4 2.5 1.2 3.4l63 78.7-14.7 3.4c-2.5.6-5 .9-7.5.9-.8 0-1.6 0-2.4-.1-13.6-1-20.6-8.8-26.3-15-6-6.6-11.1-12.3-24.8-13.8-10.3-1.1-20.7 2.1-28.6 8.8-27.2 23.3-44.9 7.6-55.4-1.8-1-.9-1.9-1.7-2.9-2.5-6.9-5.9-15.6-9.1-24.5-9.1s-17.6 3.3-24.5 9.1c-1 .8-1.9 1.7-2.9 2.5-6.5 5.8-15.7 14-28.2 14-7.8 0-16.8-3.2-27.3-12.2-7.9-6.7-18.3-10-28.6-8.8-13.7 1.5-18.9 7.2-24.8 13.8-5.8 6.3-12.9 14.1-26.4 15.1zm8.7 57.3c.6-2.7 1.4-5.4 2.4-8l19.9-53.1 1-1.2c6.7-8 14-12.4 21.6-13 10.6-.8 18.1 5.7 22.2 9.3l.8.7c17.2 14.8 42.2 14.8 59.4 0 1.3-1.1 2.5-2.2 3.6-3.1 7.1-6.3 12.7-11.2 22.9-11.2s15.8 4.9 22.8 11.1c1.1 1 2.3 2 3.7 3.2 17.2 14.8 42.2 14.8 59.4 0l.8-.6c4-3.5 11.6-10.1 22.2-9.3 7.6.6 14.9 5 21.6 13l1 1.2 19.9 53.1c1 2.6 1.8 5.3 2.4 8l2.5 11.5H51.5l2.5-11.6zm25.3 268.6c-14.7 0-26.6-12-26.6-26.6V245.4H363v69.1l-7.7 1.5c-32.8 6.4-56.6 35.3-56.6 68.8v4.3c-.2 19.9-.6 53.1 29.9 83.5.8.8 1.7 1.6 2.5 2.4l17.5 16.4H79.3v.1zm385.5-26.6c-8.6 8.6-18.6 15.2-29.5 19.8-10.9 4.5-22.7 6.9-34.8 6.9-24.3 0-47.1-9.5-64.3-26.6-27.6-27.6-27-58.9-26.7-75.7 0-1.6.1-3 .1-4.3 0-32.6 26.5-59.1 59.1-59.1 6.9 0 11.3 1.9 16 3.8.5.2 1.1.5 1.7.7 9.1 3.7 19.1 3.7 28.1 0 .6-.3 1.2-.5 1.8-.7 4.7-2 9.1-3.8 16-3.8 32.6 0 59 26.5 59 59.1 0 1.3 0 2.8.1 4.3.4 16.7 1 47.9-26.6 75.6z"/><path class="st0" d="M486.9 230.3h-24.1c-34 0-61.7 27.7-61.7 61.7 0 3 2.5 5.5 5.5 5.5h24.1c34 0 61.7-27.7 61.7-61.7 0-3-2.4-5.5-5.5-5.5zm-8.9 24c-7.6 19.3-26.5 32.3-47.3 32.3h-20.2l5.1-13c7.6-19.3 26.5-32.3 47.2-32.3H483l-5 13zM91.6 339.8h11v110.3h-11zM91.6 308.4h11v11h-11z"/></svg>