<svg version="1.1" id="Capa_1" xmlns="http://www.w3.org/2000/svg" x="0" y="0" width="487.2" height="487.2" xml:space="preserve"><style>.st0{fill:#1e1d25}</style><path class="st0" d="M458.7 306.1l-23.8-26.4c-21.8-24.2-37.3-53.6-44.8-85.3l-20.5-86.1c-.4-1.5-1.4-2.8-2.8-3.5l-1.9-1 22.3-71.4c.8-2.5 1.2-5 1.2-7.6C388.3 11.1 377.2 0 363.5 0h-.1c-10.9 0-20.4 7.1-23.7 17.5l-27 86.5h-63.5l22.5-71.9c.7-2.4 1.1-4.8 1.1-7.3 0-6.6-2.6-12.9-7.3-17.6-4.7-4.7-11-7.3-17.6-7.3-10.9 0-20.5 7-23.8 17.5l-27 86.5h-56.2l22.4-71.6c.8-2.5 1.2-5 1.2-7.6C164.4 11 153.3-.1 139.6-.1h-.1c-10.9 0-20.4 7.1-23.7 17.5l-27 86.5h-11c-2.3 0-4.4 1.5-5.2 3.6L11.7 277.2c-13.3 36.9-14.8 76.3-4.4 114.1 5.9 21.7 19.1 41 37 54.5l14.1 10.6c16.1 12 36 18.7 56.1 18.7h273c23 0 45.1-8.5 62.2-23.9l.1-.1 1.1-1c20.2-18.3 31.8-44.4 31.8-71.7v-9.8c0-23-8.5-45.3-24-62.5zM350.1 20.9c2.3-7.3 10.1-11.4 17.4-9.1 5.8 1.8 9.7 7.1 9.8 13.1 0 1.4-.2 2.9-.6 4.3l-23.4 75h-29l25.8-83.3zm-115.6 0c1.9-5.8 7.2-9.7 13.2-9.7 7.7 0 13.9 6.2 13.9 13.8 0 1.4-.2 2.8-.6 4.1l-23.4 75h-29.1l26-83.2zm-108.4 0c2.3-7.3 10.1-11.4 17.4-9.1 5.8 1.8 9.7 7.1 9.8 13.1 0 1.4-.2 2.9-.6 4.3l-23.4 75h-29l25.8-83.3zm49.7 443.2c-17.7 0-35.3-5.9-49.5-16.5L112 437c-16-12.1-27.7-29.5-33-49-3.2-11.6-5.2-23.6-6-35.6l-11 .6c.8 13 3 25.9 6.5 38.4 5.9 21.6 19.1 41 37 54.5l14.2 10.6c1.5 1.1 3.1 2.2 4.5 3.1l7 4.6h-16.6c-17.7 0-35.3-5.9-49.5-16.5L50.9 437c-16.1-12.1-27.8-29.5-33.1-48.9-9.7-35.5-8.3-72.5 4.2-107.2l59.5-165.8h103.7L127 277.2c-13.3 36.9-14.8 76.3-4.4 114.1 5.9 21.7 19.1 41 37 54.5l14.2 10.6c1.5 1.1 3 2.1 4.5 3.1l7 4.6h-9.5zm54.2 0c-17.7 0-35.3-5.9-49.5-16.5L166.4 437c-16.1-12.1-27.9-29.4-33.1-48.9-9.7-35.5-8.3-72.5 4.2-107.2L197 115.1h96.9l-58.2 162.1c-13.3 36.9-14.8 76.3-4.4 114.1 5.9 21.7 19.1 41 37 54.5l14.1 10.6c1.5 1.1 3.1 2.2 4.5 3.1l7 4.6H230zm241.7-85.5c0 24-10.1 47.1-27.9 63.3l-1.2 1c-15.1 13.7-34.7 21.2-55.1 21.2h-48.9c-17.7 0-35.3-5.9-49.5-16.5L274.9 437c-16.1-12.1-27.8-29.5-33.1-48.9-9.7-35.5-8.3-72.5 4.2-107.2l59.5-165.8h54.3l19.5 81.8c8 33.4 24.3 64.6 47.4 90.1l23.8 26.4c13.7 15.2 21.2 34.8 21.3 55.3l-.1 9.9z"/><path class="st0" d="M110.8 203.7L84 278.6l-10.3-3.8 26.8-74.8zM128 156.2l-6.4 17.7-10.4-3.8 6.4-17.7zM220.4 435.5l-6.6 8.8c-6.7-5.3-12.8-11.4-18-18.2l8.9-6.4c4.6 5.8 9.8 11.2 15.7 15.8zM188.6 385.8l-5.3 1.7-5.3 1.3c-9.4-36.2-8-73.8 4.2-109.2l10.4 3.7c-11.4 33.2-12.8 68.5-4 102.5zM434.5 327.5l-4.6-5c-7.4-8.2-16.9-14.3-27.5-17.7l-7.9-2.5c-13.2-4.1-27-6.2-40.9-6.2h-50.9c-7 0-13.9 1.7-20.1 4.8-16.3 7.9-26.4 24.1-26.5 42.2.2 13.7 2.2 27.3 5.9 40.5 4.1 14.5 13 27.5 25.1 36.5l14.2 10.7c10.5 7.9 23.6 12.3 36.8 12.3h49.1c15.2 0 29.8-5.6 41-15.9l.8-.8c13.6-12.3 21.4-29.8 21.4-48v-9.7c0-15.2-5.6-29.8-15.9-41.2zm4.9 51c0 15.2-6.5 29.7-17.8 39.9l-.8.8c-9.3 8.4-21.2 13-33.6 13h-49c-10.8 0-21.6-3.6-30.3-10.1l-14.2-10.6c-10.2-7.6-17.7-18.5-21.1-30.7-3.5-12.3-5.3-25-5.5-37.8.2-13.8 8.3-26.5 20.8-32.3 4.5-2.2 9.6-3.4 14.7-3.4h51c12.8 0 25.4 1.9 37.6 5.7l7.9 2.5c8.7 2.8 16.5 7.8 22.6 14.5l4.5 5c8.4 9.3 13.1 21.3 13.1 33.9l.1 9.6zM372 241.6c-5.7-12.8-10.2-26.2-13.5-39.8L345.7 148c-1.6-7-7.8-11.8-14.9-11.8h-.1c-6.4 0-12.3 4.1-14.5 10.2L282.6 240c-3.4 9.4-.7 19.7 6.8 26.3l3.4 2.9c4.4 3.9 10 6 15.9 6h41.2c13.3 0 24.1-10.9 24.1-24.2 0-3.3-.7-6.4-2-9.4zm-12.9 18.7c-2.5 2.5-5.7 3.8-9.2 3.9h-41.2c-3.2 0-6.3-1.2-8.7-3.3l-3.3-2.8c-4.1-3.6-5.5-9.2-3.7-14.3l33.6-93.5c.5-1.7 2.2-2.9 4-3 2.1-.1 4 1.3 4.4 3.4l12.8 53.8c3.4 14.3 8.2 28.3 14.2 41.8.7 1.5 1 3.2 1 4.9-.1 3.3-1.5 6.6-3.9 9.1z"/></svg>