<svg version="1.1" id="Layer_1" xmlns="http://www.w3.org/2000/svg" x="0" y="0" width="473.7" height="511" xml:space="preserve"><style>.st0{fill:#1e1d25}</style><path class="st0" d="M363.5 160.9h2.5-2.5c0-.4-.1-.8-.2-1.2l-.1-.2c-.1-.2-.1-.3-.2-.5l-.1-.1c-.1-.2-.2-.3-.3-.4l-.2-.3-69.6-97.5V19.6C292.8 8.8 284 0 273.3 0h-183C79.5 0 70.7 8.8 70.7 19.6v41.2L.9 158.5c-.1.2-.2.3-.3.5l-.1.1c-.1.1-.1.3-.2.4l-.1.3c-.1.2-.1.3-.1.5v.2c0 .2-.1.3-.1.5v332.7c0 9.6 7.8 17.4 17.4 17.4h168V501h-168c-4 0-7.3-3.3-7.3-7.3v-161H31l.4 2.1c0 .1.1.2.1.3l.3 1.2c.1.5.3 1.1.4 1.6l.2.8.6 1.8.1.3c0 .1.1.2.1.2.3.9.6 1.7 1 2.5l.2.3c.3.7.6 1.3 1 2 .1.2.1.3.2.4l.2.4c.3.5.6 1 .9 1.6.2.3.3.5.5.8l.9 1.5.6.9c.3.5.7 1 1.1 1.5l.2.3c.1.1.2.3.3.4.5.7 1.2 1.4 1.8 2.1l.1.1c.1.1.2.2.3.4.5.5 1 1.1 1.6 1.7.3.3.5.5.8.7.5.5.9.9 1.4 1.3.3.3.6.6.9.8.5.4.9.8 1.4 1.2l.3.3c.2.2.4.4.7.5.3.3.7.6 1 .8l.4.3c.4.3.7.5 1 .7.6.5 1.3.9 1.9 1.4.1.1.3.2.4.3l.3.2c11.8 7.9 26.7 13 43 14.6 3.7.4 7.6.6 11.4.6 20.5 0 39.8-5.4 54.4-15.2l.3-.2c.1-.1.3-.2.4-.3.7-.4 1.3-.9 1.9-1.3.2-.2.4-.3.6-.5l.5-.3c.5-.4.9-.7 1.4-1.1.4-.3.7-.6 1-.8.5-.4.9-.8 1.3-1.1.3-.3.7-.6 1-.9l1.2-1.2c.3-.3.6-.6.9-.8.5-.5 1-1 1.5-1.6l.3-.3.2-.2c.5-.6 1.1-1.3 1.7-2.1.2-.2.3-.4.4-.5l.2-.2c.4-.5.7-.9 1.1-1.4.2-.2.3-.4.4-.6l.2-.3c.3-.5.6-.9.9-1.4l.5-.9c.3-.5.5-1 .8-1.5l.2-.4c.1-.2.2-.3.2-.5l.9-1.8c0-.1.1-.2.2-.3 0-.1.1-.1.1-.2.4-.8.7-1.6 1-2.4.1-.3.2-.5.3-.8.2-.6.4-1.1.5-1.7l.3-.9c.2-.5.3-1.1.4-1.5v-.1c.1-.3.1-.6.2-.9l.5-2.7h22.5l13-7.5V166.4h131.3V211l-.2 38.9 10.1-5.8.1-13.8c0-7 .1-11.2.1-11.7v-57.2-.2l-.3-.3zM80.8 19.6c0-5.2 4.3-9.5 9.5-9.5h183c5.2 0 9.5 4.3 9.5 9.5v37.8h-202V19.6zm131.3 303h-25.5l-.4-2.1c-4.2-22.7-27.8-40.6-60.1-45.7-1.3-.2-2.7.1-3.7.9-1.1.8-1.8 2-2 3.3-.4 2.7 1.5 5.3 4.2 5.8 30.3 4.7 52.3 22.7 52.3 42.8 0 11.4-6.8 22.2-19.2 30.5-2.5 1.6-5.1 3.2-7.8 4.5-11.9 5.9-26.1 9-41 9-18.5 0-35.9-4.8-48.8-13.5-10.8-7.3-17.3-16.3-18.8-26.2-.2-1.4-.3-2.9-.3-4.3 0-19.7 20.6-37.2 50.1-42.4 1.3-.2 2.5-1 3.3-2.1.8-1.1 1.1-2.4.8-3.8-.5-2.7-3.1-4.6-5.8-4.1-30.9 5.5-53.6 23.3-57.7 45.3l-.4 2H10.1V166.4h202v156.2zm2.4-166.3H14.8l63.5-88.9H278l-63.5 88.9zm12.4 0L287.8 71l60.9 85.3H226.9zM337.6 446.7c-11 0-19.9 8.9-19.9 19.9 0 11 8.9 19.9 19.9 19.9 11 0 19.9-8.9 19.9-19.9.1-11-8.9-19.9-19.9-19.9zm0 31.3c-6.3 0-11.4-5.1-11.4-11.4 0-6.3 5.1-11.4 11.4-11.4 6.3 0 11.4 5.1 11.4 11.4 0 6.3-5.1 11.4-11.4 11.4zM416.6 431.5c-8.3 0-15.1 6.8-15.1 15.1s6.8 15.1 15.1 15.1 15.1-6.8 15.1-15.1-6.7-15.1-15.1-15.1zm0 21.7c-3.6 0-6.6-3-6.6-6.6 0-3.6 3-6.6 6.6-6.6 3.6 0 6.6 3 6.6 6.6 0 3.7-2.9 6.6-6.6 6.6zM289.4 408.9c-7.8 0-14.2 6.4-14.2 14.2 0 7.8 6.4 14.2 14.2 14.2 7.8 0 14.2-6.4 14.2-14.2 0-7.8-6.4-14.2-14.2-14.2zm0 19.9c-3.1 0-5.7-2.5-5.7-5.7 0-3.1 2.5-5.7 5.7-5.7 3.1 0 5.7 2.5 5.7 5.7-.1 3.1-2.6 5.7-5.7 5.7zM408.9 318.2c-7.9 0-14.4 6.4-14.4 14.4 0 7.9 6.5 14.4 14.4 14.4s14.4-6.4 14.4-14.4-6.5-14.4-14.4-14.4zm0 20.2c-3.2 0-5.8-2.6-5.8-5.8 0-3.2 2.6-5.8 5.8-5.8 3.2 0 5.8 2.6 5.8 5.8.1 3.2-2.6 5.8-5.8 5.8z"/><path class="st0" d="M473.4 361.3l-.6-3.9c-5-35.7-20.1-69-43.6-96.2-9.8-11.4-26.4-14.2-39.4-6.7l-71 41.1c-1.8 1.1-2.8 3.1-2.5 5.2.7 4.3-.7 8.6-3.8 11.7-4.9 4.9-12.7 5.4-18.1 1-1.7-1.3-3.9-1.5-5.8-.4L221.3 352c-4.3 2.5-7.9 6-10.5 10.2l-.1.2-.2.2c-.7.7-1.1 1.6-1.3 2.5l-.1.3-.1.3c-1.8 3.9-2.7 8.3-2.7 12.5v61.9c0 2.8 2.3 5.1 5.1 5.1 7.5 0 13.6 6.1 13.6 13.6s-6.1 13.6-13.6 13.6c-2.8 0-5.1 2.3-5.1 5.1v3.1c0 16.7 13.6 30.2 30.2 30.2h151.3c2.8 0 5.1-2.3 5.1-5.1 0-7.5 6.1-13.6 13.6-13.6s13.6 6.1 13.6 13.6c0 2.8 2.3 5.1 5.1 5.1h18.1c16.7 0 30.2-13.6 30.2-30.2V365.5c.2-1.4.1-2.8-.1-4.2zm-10 119.5c0 11-8.9 20-20 20H430l-.5-1.8c-3-10-12.4-17-22.9-17-10.4 0-19.8 7-22.9 17l-.5 1.8H236.6c-9.6 0-17.8-6.8-19.6-16.2l-.4-2.2 2.1-.7c9.8-3.1 16.7-12.5 16.7-22.8 0-10.4-7-19.8-17-22.9l-1.8-.5v-57.3c0-1.7.2-3.3.6-4.9l.5-1.9h35.7c2.8 0 5.1-2.3 5.1-5.1s-2.3-5.1-5.1-5.1h-27.2l64.8-37.5 1.2.6c9.2 4.6 20.3 2.8 27.6-4.5 4.1-4.1 6.6-9.7 7-15.6l.1-1.4 68.2-39.5c8.7-5.1 19.9-3.2 26.5 4.5 22 25.6 36.3 56.8 41.1 90.3l.4 2.9H298.7c-2.8 0-5.1 2.3-5.1 5.1s2.3 5.1 5.1 5.1h164.7v109.6z"/><path class="st0" d="M304.8 389.2c0 1.1-.5 2.2-1.3 3-.8.8-1.9 1.2-3 1.2s-2.2-.5-3-1.2c-.8-.8-1.3-1.9-1.3-3s.5-2.2 1.3-3c.8-.8 1.9-1.3 3-1.3s2.2.5 3 1.3c.8.8 1.3 1.9 1.3 3z"/></svg>