<svg id="Layer_1" xmlns="http://www.w3.org/2000/svg" width="512" height="512" viewBox="0 0 512 512"><style>.st0{fill:#1e1d25}</style><path class="st0" d="M432.9 186.1c-.5-1.3-1.5-2.4-2.7-3l-83-39.4 3.9-4c11-11.4 15.6-27.5 12.2-43-5.7-25.8-29.9-41.7-55.1-36.2-.6.1-1.1.3-1.6.7l-1.7 1-1.9-.7c-1.2-.5-2.2-.8-3.1-1.1-13.2-3.8-27.1-.1-38 10.4L140.5 187c-12.6 12.1-20.1 23.2-25.1 37-1.4 3.7-2.6 7.5-3.8 11.2-4.1 12.8-8 24.8-16.2 34l-2.9 3.2-10.2-10.6c-3.5-3.7-8.3-5.8-13.4-5.9h-.3c-5 0-9.8 1.9-13.4 5.3L9.9 304.9c-3.7 3.5-5.8 8.3-5.9 13.4s1.8 10 5.3 13.6l161 167.9c3.5 3.7 8.3 5.8 13.4 5.9h.4c5 0 9.7-1.9 13.2-5.3l26.4-25.3c2.1-2 2.2-5.4.2-7.5s-5.4-2.2-7.5-.2L190 492.7c-1.6 1.5-3.7 2.3-6 2.3-1.4 0-3.9-.4-6-2.6l-41.3-43.1 57.8-55.4 41.3 43.1c1 1 2.3 1.6 3.7 1.6s2.8-.5 3.8-1.5 1.6-2.3 1.6-3.7c0-1.4-.5-2.8-1.5-3.8L230.3 416l67.6-63.4c1-1 1.6-2.3 1.7-3.7 0-1.4-.5-2.8-1.4-3.8-2-2.1-5.4-2.3-7.5-.2L223 408.4 100 280.1l2.6-2.8c10.3-11 14.9-25.1 19.3-38.8v-.1c1.2-3.7 2.3-7.3 3.6-10.8 4.4-12.3 10.9-21.8 22.4-32.9L269.2 78.4c8.2-7.9 18-10.6 27.6-7.8 9.5 2.8 17.1 10.6 19.5 20.1 2.5 10.1-1.4 20.8-10.9 29.9l-85.5 82c-2.1 2-2.2 5.4-.2 7.5l6.5 6.8c6 6.3 9.2 14.5 9 23.1-.2 8.7-3.7 16.7-10 22.7L197.9 289c-1 1-1.6 2.3-1.6 3.7 0 1.4.5 2.8 1.5 3.8s2.4 1.6 3.8 1.6 2.7-.5 3.7-1.5l27.3-26.1c8.3-8 13-18.7 13.3-30.2.2-11.5-4-22.4-12-30.7l-2.9-3 74.1-71.1 120.5 57.1c.7.3 1.5.5 2.3.5 2 0 3.9-1.2 4.8-3 .6-1.3.6-2.7.2-4zM187.1 386.3l-57.8 55.4L17 324.6c-1.5-1.6-2.4-3.8-2.3-6.1 0-2.3 1-4.4 2.6-6l45.5-43.7c1.1-1 3-2.3 5.9-2.3h.2c1.3 0 3.8.4 6 2.6l112.2 117.2zm153.1-251c-.4.3-.7.6-1 1l-1.9 2.7-23.8-11.3 3.4-4c9.2-10.9 12.7-23.6 9.7-35.7-1-3.9-2.6-7.6-4.8-11.1l-5.3-8.3 9.6 2.3c13.4 3.2 23.7 13.9 26.8 28 2.9 13.6-1.9 27.6-12.7 36.4zM406.1 23.6L140.7 47.7c-1.6.1-3 .9-4 2.1-1 1.2-1.5 2.8-1.4 4.4l1.6 17.4c.1 1.4-.3 2.8-1.2 3.9s-2.2 1.8-3.6 1.9c-3 .3-5.5-1.9-5.8-4.8l-1.6-17.4c-.4-4.4.9-8.7 3.8-12.1 2.8-3.4 6.8-5.5 11.3-5.9L405.1 13h.5c1.2 0 2.4.4 3.3 1.2 1.1.9 1.8 2.2 1.9 3.6.4 2.9-1.8 5.5-4.7 5.8zM504.1 165.3c-2.9 3.4-6.8 5.5-11.3 5.9l-28.9 2.6c-.2 0-.3.1-.5 0-2.7 0-5-2.1-5.3-4.8-.1-1.4.3-2.8 1.2-3.9.9-1.1 2.2-1.8 3.6-1.9l28.8-2.6c1.6-.1 3-.9 4.1-2.2 1-1.2 1.5-2.8 1.4-4.3l-12-131.8c-.1-1.6-.9-3-2.2-4.1-1.1-.9-2.5-1.4-3.8-1.4h-.5l-22.5 2c-2.9.3-5.5-1.9-5.8-4.8-.1-1.4.3-2.8 1.2-3.9.9-1.1 2.2-1.8 3.6-1.9l22.5-2c4.4-.4 8.7.9 12.1 3.8 3.4 2.8 5.5 6.8 5.9 11.3l12 131.8c.6 4.5-.7 8.8-3.6 12.2z"/><path class="st0" d="M472.6 129.5c-.1 2.8-2.5 5.1-5.3 5.1h-.3c-22-1-40-18.3-42-40.3-2.1-22.9 13.3-43.3 35.9-47.6.3-.1.7-.1 1-.1 1 0 2.1.3 3 .9 1.2.8 2 2 2.2 3.4.3 1.4 0 2.8-.8 4s-2 2-3.4 2.2c-17.1 3.3-28.8 18.8-27.3 36.2.8 8.3 4.6 15.8 10.3 21.3 5.7 5.5 13.3 9 21.7 9.4 1.4.1 2.7.7 3.7 1.7.8 1 1.3 2.4 1.3 3.8zM216.5 86.7c-.6 1.3-1.7 2.3-3 2.7-1.3.5-2.8.4-4.1-.2l-24.2-11.6c-3-1.4-6.6-.2-8 2.8l-39.1 81.8c-.9 1.8-2.8 3-4.8 3-.8 0-1.6-.2-2.3-.5-1.3-.6-2.2-1.7-2.7-3s-.4-2.8.2-4.1l39.1-81.8c1.9-4 5.3-7 9.5-8.5 1.8-.6 3.7-1 5.5-1 2.4 0 4.9.6 7.1 1.6L214 79.6c1.3.6 2.3 1.7 2.7 3 .5 1.4.4 2.8-.2 4.1zM503.9 236.7l-57.1 119.4c-2.8 5.7-8.6 9.5-15 9.5-2.5 0-4.9-.5-7.2-1.6l-157.1-73.9c-2.7-1.2-3.8-4.4-2.5-7.1.9-1.9 2.8-3 4.8-3 .8 0 1.5.2 2.3.5l157.2 73.9c1.5.7 3.1.8 4.6.3s2.7-1.6 3.4-3l57.1-119.4c.7-1.4.8-3.1.2-4.6-.5-1.5-1.6-2.7-3.1-3.4l-20.3-9.7c-2.6-1.3-3.8-4.4-2.5-7.1.6-1.3 1.7-2.2 3-2.7s2.8-.4 4.1.2l20.4 9.7c4 1.9 7 5.3 8.5 9.5 1.3 4.1 1.1 8.6-.8 12.5z"/><path class="st0" d="M351.8 200.3c-4.2-11.9-12.8-21.5-24.2-26.9-6.4-3.1-13.3-4.6-20.4-4.6-18.1 0-34.9 10.6-42.7 26.9-11.3 23.5-1.3 51.8 22.3 63.1 6.4 3.1 13.3 4.6 20.4 4.6 18.1 0 34.9-10.5 42.7-26.9 5.4-11.5 6.1-24.3 1.9-36.2zm-11.5 31.5c-6.1 12.7-19.1 20.9-33.1 20.9-5.5 0-10.8-1.2-15.8-3.6-18.2-8.7-26-30.7-17.3-48.9 6.1-12.7 19-20.9 33.1-20.9 5.5 0 10.8 1.2 15.8 3.6 8.8 4.2 15.5 11.6 18.8 20.9 3.2 9.2 2.7 19.2-1.5 28zM464 247.3c-.5 1.3-1.5 2.4-2.8 3s-2.7.7-4.1.2c-16.4-6-34.4 1.4-41.9 17.1-7.2 15.1-2.2 33.4 11.8 42.7 2.4 1.6 3.1 4.9 1.5 7.4-1 1.5-2.7 2.4-4.4 2.4-1 0-2-.3-2.9-.9-18.3-12.1-25-36.3-15.5-56.1 7.6-15.9 23.3-25.3 39.9-25.3 2.5 0 5.1.2 7.6.7 2.5.4 5.1 1.1 7.6 2 1.3.5 2.4 1.5 3 2.8.6 1.3.7 2.7.2 4z"/></svg>