<svg id="Слой_1" xmlns="http://www.w3.org/2000/svg" viewBox="0 0 211.5 278.1"><style>.st1{fill:none;stroke:#1e1d25;stroke-width:7;stroke-miterlimit:10}</style><path d="M139.3 14.5V114c0 3.9 3.1 7 7 7h58.3v150.1H20.4c-7.4 0-13.4-6-13.4-13.4V138c0-13.1 0-21 30.8-44.1C58.5 78.4 115 33.8 139.3 14.5m7-14.5S60.5 68.3 33.7 88.3C1.3 112.4 0 122.3 0 138v119.8c0 11.2 9.2 20.4 20.4 20.4h191.1V114h-65.3V0h.1z" fill="#1e1d25"/><path class="st1" d="M143.3 118v66.1S21.5 266.4 23.4 265.8 175 216.5 175 216.5V118h-31.7zM91.4 110.6c7-8.4 17.3-11.3 22.9-6.6 5.6 4.7 4.5 15.3-2.5 23.7s-17.3 11.3-22.9 6.6-4.5-15.3 2.5-23.7"/></svg>