<svg id="Capa_1" xmlns="http://www.w3.org/2000/svg" width="465" height="465" viewBox="0 0 465 465"><style>.st0{fill:#1e1d25}</style><path class="st0" d="M418.8 36.8c-13.9-11.1-30.1-19.6-47.8-25.4-17.6-5.8-36.7-8.9-56.3-8.9-39.3 0-76.2 12.2-104.1 34.3-28.2 22.4-43.7 52.3-43.7 84.1 0 56.4 47.9 104 116.6 115.8l1.9.3.2 1.9c1.5 19.2-5.4 37.9-18.8 51.5-1.4 1.4-1.8 3.6-1.1 5.4.8 1.9 2.6 3.1 4.6 3.1 35.4 0 66.2-25.3 73.3-60.2l.3-1.7 1.7-.3c31.5-5.4 60.4-19.2 81.4-38.8 22.9-21.4 35.5-48.8 35.5-77 0-31.8-15.5-61.7-43.7-84.1zm-80.2 190.9c-2.5.3-4.3 2.5-4.3 5v1c-3.9 25-22 45.7-46.3 52.7l-6 1.7 3.2-5.4c8.7-14.8 12.2-32.2 9.8-49.1v-.6c.2-2.7-1.7-5-4.3-5.4-65.9-9.1-113.8-54-113.8-106.8 0-29 14.4-56.3 40.6-76.8 26-20.4 60.5-31.6 97.2-31.6 76 0 137.8 48.6 137.8 108.4 0 52.9-47.9 97.8-113.9 106.9z"/><circle class="st0" cx="264.4" cy="120.9" r="8"/><circle class="st0" cx="365" cy="120.9" r="8"/><circle class="st0" cx="314.7" cy="120.9" r="8"/><path class="st0" d="M358.6 417.5c-1.6 1.7-38.8 41.9-69.9 44.7-1.7.2-3.5.2-5.3.2-20.6 0-48-9.9-79.3-28.6-31.6-18.9-64.9-45.4-96.3-76.8C41.2 290.4-1.1 217.7 2.7 176.3c2.9-31.1 43-68.3 44.7-69.9 1-.9 2.2-1.3 3.4-1.3 1.1 0 2.2.4 3.1 1.1 1 .7 23.5 18.5 45.2 40.2 21.6 21.5 39.5 44.3 40.2 45.2 1.6 2 1.4 4.8-.4 6.6l-30.2 30.2 12.6 12.6c.9.9 1.5 2.2 1.5 3.5s-.5 2.6-1.5 3.5c-.9.9-2.2 1.5-3.5 1.5s-2.6-.5-3.5-1.5l-16.1-16.1c-.9-1-1.5-2.2-1.5-3.5s.5-2.6 1.5-3.5l30.6-30.6-1.4-1.8c-6.7-8.2-20.2-24.1-35.2-39.1-15.1-15.1-31-28.6-39.2-35.3l-1.8-1.5-1.6 1.6c-8.1 8.2-34.8 36.6-36.8 58.9C9.2 215.2 51.3 286.3 115 350c61.3 61.3 129.3 102.5 168.2 102.5 1.6 0 3.1-.1 4.6-.2 22.3-2 50.7-28.7 58.9-36.8l1.6-1.6-1.4-1.8c-6.7-8.2-20.2-24.1-35.3-39.2-15-15-31-28.5-39.1-35.2l-1.8-1.4-30.6 30.6c-.9.9-2.2 1.5-3.5 1.5s-2.6-.5-3.5-1.5l-97.6-97.6c-2-2-2-5.1 0-7.1s5.1-2 7.1 0l94 94 30.2-30.2c1.8-1.8 4.6-2 6.6-.4 1 .8 23.5 18.5 45.2 40.2 21.8 21.8 40 45 40.2 45.2 1.6 2 1.5 4.7-.2 6.5z"/></svg>