<svg id="Capa_1" xmlns="http://www.w3.org/2000/svg" viewBox="0 0 465 465"><style>.st0{fill:#1e1d25;stroke:#1e1d25;stroke-miterlimit:10}</style><path class="st0" d="M420.3 34.8C392 12.4 354.5 0 314.7 0s-77.3 12.4-105.6 34.8c-28.8 22.9-44.7 53.4-44.7 86.1 0 57.4 49.6 106.4 118.7 118.2 1.4 18.3-5.1 36.5-18.1 49.5-2.1 2.1-2.8 5.4-1.6 8.2s3.9 4.6 6.9 4.6c36.8 0 68.4-26.4 75.7-62.2 32-5.5 61.2-19.3 82.7-39.4 23.4-21.9 36.3-49.9 36.3-78.8 0-32.7-15.9-63.3-44.7-86.2zm-82 190.4c-3.9.5-6.7 4-6.5 7.9v.2c-3.8 24.6-21.6 44.1-44.5 50.7 8.9-15.1 12.6-33 10.2-50.8v-.1c.3-3.9-2.6-7.4-6.5-7.9-64.7-8.9-111.7-52.8-111.7-104.3C179.4 62.5 240.1 15 314.7 15S450 62.5 450 120.9c0 51.5-47 95.4-111.7 104.3z"/><path class="st0" d="M264.4 112.9c-4.4 0-8 3.6-8 8s3.6 8 8 8 8-3.6 8-8-3.6-8-8-8zM365 112.9c-4.4 0-8 3.6-8 8s3.6 8 8 8 8-3.6 8-8-3.6-8-8-8zM314.7 112.9c-4.4 0-8 3.6-8 8s3.6 8 8 8 8-3.6 8-8-3.6-8-8-8zM320.4 364.1c-21.7-21.7-44.5-39.6-45.4-40.4-3-2.3-7.3-2.1-9.9.6l-28.4 28.4-92.3-92.3c-2.9-2.9-7.7-2.9-10.6 0-2.9 2.9-2.9 7.7 0 10.6l97.6 97.6c1.4 1.4 3.3 2.2 5.3 2.2s3.9-.8 5.3-2.2l29-29c8 6.5 23.9 20 38.9 35 15.1 15.1 28.6 31.1 35.1 39-12.6 12.5-38.2 34.3-57.3 36.1-37.3 3.5-107.6-38.3-170.8-101.6C53.5 285 11.7 214.8 15.2 177.4c1.8-19.1 23.6-44.7 36.1-57.3 7.9 6.5 23.9 20 39 35.1 15 15 28.5 31 35 38.9l-29 29c-2.9 2.9-2.9 7.7 0 10.6l16.1 16.1c2.9 2.9 7.7 2.9 10.6 0 2.9-2.9 2.9-7.7 0-10.6l-10.8-10.8 28.4-28.4c2.7-2.7 2.9-7 .6-9.9-.8-1-18.7-23.7-40.4-45.4s-44.5-39.6-45.4-40.4c-2.9-2.3-7-2.1-9.7.4C44 106.3 3.1 144.2.2 176.2-3.7 218.3 38.9 291.8 106.1 359c64.4 64.2 134.5 106 177.3 106 1.9 0 3.7-.1 5.5-.2 32-3 69.9-43.8 71.5-45.5 2.5-2.7 2.6-6.8.4-9.7-.7-1-18.7-23.8-40.4-45.5z"/></svg>