<svg xmlns="http://www.w3.org/2000/svg" width="410.3" height="410.3"><path d="M196.6 211.4c-.8-.8-1.8-1.2-2.8-1.2s-2 .4-2.8 1.2L156.3 246c-.8.8-1.2 1.8-1.2 2.8s.4 2.1 1.2 2.8c.8.8 1.8 1.2 2.8 1.2 1.1 0 2.1-.4 2.8-1.2l34.6-34.6c.8-.8 1.2-1.8 1.2-2.8s-.4-2-1.1-2.8zm3.8-130.5H87c-6.7 0-12.1-5.4-12.1-12.1S80.3 56.6 87 56.6h70.4c11.1 0 20.1-9 20.1-20.1 0-2.2-1.8-4-4-4s-4 1.8-4 4c0 6.7-5.4 12.1-12.1 12.1H87c-11.1 0-20.1 9-20.1 20.1s9 20.1 20.1 20.1h113.5c6.7 0 12.1 5.4 12.1 12.1s-5.4 12.1-12.1 12.1h-64.2c-11.1 0-20.1 9-20.1 20.1v16.1c0 2.2 1.8 4 4 4s4-1.8 4-4v-16.1c0-6.7 5.4-12.1 12.1-12.1h64.2c11.1 0 20.1-9 20.1-20.1 0-11-9.1-20-20.2-20zm199.9 247.5h-19.6l2.1-7.6c1-3.5 1.4-7.1 1.4-10.7 0-22.2-18.1-40.3-40.3-40.3-2.2 0-4 1.8-4 4s1.8 4 4 4c17.8 0 32.3 14.5 32.3 32.3 0 5.4-1.3 10.5-3.8 15.2l-1.7 3.2H305l3.1-8.1c2.8-7.2 4.8-14.8 6-22.4l34.7-222.6L352 74c8.9-3.5 15.4-11.5 16.9-20.9 2.3-14.6-7.8-28.4-22.4-30.6-4.3-.7-8.8-.3-13 1.2l-3 1.1-2.6-1.9c-3.5-2.6-7.7-4.4-12-5.1-7.1-1.1-14.2.6-20 4.8s-9.6 10.5-10.7 17.5c-1.4 8.9 2 18.1 8.7 24.2l3 2.7L257 177l-35.4-5.5c-42.2-6.6-85 12.2-109 47.8-1.2 1.8-.8 4.3 1.1 5.5.9.6 2 .8 3 .6s2-.8 2.6-1.7c22.3-33.1 62-50.5 101.2-44.4l38.7 6c1.9.3 3.7-.8 4.4-2.6l26.5-73 44.3 6.9-28.1 180c-1.6 9.9-4.5 19.5-8.8 28.4l-1.6 3.4H162l2.4-7.8c1-3.2 1.5-6.5 1.5-9.8 0-18.5-15.1-33.6-33.6-33.6l-5.4.1-.9-5c-2.9-16.1-16.8-27.7-33.1-27.7-3.5 0-6.9.5-10.2 1.6l-5.2 1.7-10.2-23.7 2.7-2.9c12.6-13.3 15.4-35.6 6.8-55.4-9.8-22.9-31.7-36.5-52.1-32.5-.6.1-1.1.3-1.5.7-16.9 12-22 37.3-12.2 60.1 8.5 19.8 26.6 33.1 44.9 33.1h4l1.6 3.6 9.3 21.7-2.6 2.9c-5.7 6.2-8.9 14.3-8.9 22.7 0 2.3.2 4.5.7 6.6l.8 3.8-3.2 2.3c-8.8 6.3-14.1 16.5-14.1 27.4 0 1.2.1 2.4.2 3.5l.7 6.6H11c-2.2 0-4 1.8-4 4s1.8 4 4 4h80.1l33 54.6c.7 1.2 2 1.9 3.4 1.9h156.2c1.4 0 2.7-.7 3.4-1.9l33-54.6h80.1c2.2 0 4-1.8 4-4 .1-2.2-1.7-4-3.9-4zM292.7 102.1l13-35.9c.7-2-.2-4.1-2-5-7.5-3.5-11.8-11.7-10.5-19.9.8-5 3.4-9.3 7.5-12.3s9-4.2 14-3.4c4.7.7 8.9 3.2 11.8 6.9 1.3 1.6 3.7 2 5.4.8 4-2.6 8.7-3.7 13.4-3 5 .8 9.3 3.4 12.3 7.5s4.2 9 3.4 14c-1.3 8.2-7.9 14.7-16.2 15.8-1.8.2-3.2 1.6-3.5 3.4l-5.9 37.8-42.7-6.7zM47.2 177.6c-.9-2-3.2-3-5.3-2.1-1 .4-1.7 1.2-2.1 2.2-.4 1-.4 2.1 0 3.1L57.6 222l-13.1-4.9C33.3 213 23.6 203.3 18.3 191c-7.8-18.1-4.8-38.2 7.3-48.7l1.5-1.3 1.9-.2c16-1.6 32.6 10 40.5 28.1 5.3 12.3 5.7 26.1 1 37l-5.5 13-17.8-41.3zM53 328.5l-1-4.7c-.4-1.8-.6-3.6-.6-5.4 0-10.5 6.3-19.9 16.1-23.8 1-.4 1.8-1.2 2.2-2.3.4-1 .4-2.2-.1-3.2-1.6-3.4-2.4-7.1-2.4-10.9 0-8 3.7-15.4 10.1-20.3l.5-.4c.2-.1.3-.2.5-.3l.5-.4c4.2-2.7 9-4.2 14-4.2 14.1 0 25.6 11.5 25.6 25.6 0 1.4-.1 2.8-.3 4.2-.2 1.4.3 2.8 1.4 3.7 1.1.9 2.6 1.2 3.9.7 2.8-1 5.8-1.5 8.8-1.5 14.1 0 25.6 11.5 25.6 25.6 0 5.5-1.7 10.8-5 15.2l-1.8 2.4H53zm228.5 56.4H129.8l-29.3-48.5h210.4l-29.4 48.5zm-2.7-124.3c-1.6-1.6-4.1-1.6-5.7 0l-34.6 34.7c-1.6 1.6-1.6 4.1 0 5.7.8.8 1.8 1.2 2.8 1.2s2.1-.4 2.8-1.2l34.6-34.6c1.6-1.7 1.6-4.2.1-5.8zm-26-38.9c-1.6-1.6-4.1-1.6-5.7 0l-55.5 55.5c-1.6 1.6-1.6 4.1 0 5.7.8.8 1.8 1.2 2.8 1.2 1.1 0 2.1-.4 2.8-1.2l55.5-55.5c.8-.8 1.2-1.8 1.2-2.8s-.4-2.2-1.1-2.9z" fill="#1e1d25"/></svg>