<svg version="1.1" id="Layer_1" xmlns="http://www.w3.org/2000/svg" x="0" y="0" width="512" height="512" xml:space="preserve"><style>.st0{fill:#e5e5e5}</style><path class="st0" d="M509.5 411c0 4.1-3.4 7.5-7.5 7.5-78.9 0-156.3 32.4-212.5 88.8-1.4 1.4-3.3 2.2-5.3 2.2s-3.9-.8-5.3-2.2c-1.4-1.4-2.2-3.3-2.2-5.3s.8-3.9 2.2-5.3c58.9-59.3 140.3-93.3 223.1-93.3 4.1.1 7.5 3.4 7.5 7.6zM289.4 403.5c-40.9 27.6-75.4 62.2-102.6 102.7-1.4 2.1-3.7 3.3-6.2 3.3-1.5 0-2.9-.4-4.2-1.3-3.4-2.3-4.3-7-2-10.4 28.3-42.1 64.2-78 106.7-106.7 1.3-.8 2.7-1.3 4.2-1.3.5 0 1 0 1.4.1 2 .4 3.7 1.5 4.8 3.2 2.2 3.4 1.3 8.1-2.1 10.4zM509.5 330.5c0 4.1-3.4 7.5-7.5 7.5-42.7 0-85 7.3-125.7 21.7-.8.3-1.7.4-2.5.4-3.2 0-6-2-7.1-5-.7-1.9-.6-3.9.3-5.7s2.4-3.2 4.3-3.8c42.3-15 86.3-22.6 130.7-22.6 4.1 0 7.5 3.3 7.5 7.5z"/><path class="st0" d="M502 248.5c-28.1 0-56.4 2.6-84.2 7.7l-2.9.5v-25.8l.9-.8c35.5-30.1 55.1-69.7 55.1-111.5 0-43.4-20.9-84-58.8-114.5-2.7-2.2-6.7-2.2-9.4 0-37.9 30.5-58.8 71.2-58.8 114.5 0 41.8 19.6 81.4 55.1 111.5l.9.8v28.8l-1.9.5c-18.8 4.3-37.5 9.8-55.8 16.4l-3.3 1.2v-62.1c0-2-.8-3.9-2.2-5.3l-56-56.3c-1.4-1.4-3.3-2.2-5.3-2.2H161c-2 0-3.9.8-5.3 2.2l-56 56.3c-1.4 1.4-2.2 3.3-2.2 5.3v41.2l-3-.5c-7-1.3-14-2.4-20.9-3.3l-2.2-.3v-39l.9-.7c26.7-23 41.5-53.2 41.5-84.9 0-33.4-16-64.6-45.1-88-2.8-2.2-6.6-2.2-9.4 0-29.1 23.4-45.1 54.7-45.1 88 0 31.8 14.7 61.9 41.5 84.9l.9.8v37.2l-2.7-.3c-14.6-1.4-29.3-2.1-43.8-2.1-4.1 0-7.5 3.4-7.5 7.5s3.4 7.5 7.5 7.5c80.1 0 159.1 21.3 228.4 61.6l3.4 2-3.3 2.2c-16.3 11.1-32.2 23.4-47 36.5l-1.3 1.1-1.5-.8C133.3 338.1 71.5 323.1 10 323.1c-4.1 0-7.5 3.4-7.5 7.5s3.4 7.5 7.5 7.5c56.5 0 113.7 13.2 165.3 38.3l3.2 1.6-2.6 2.5c-15.1 14.6-29.3 30.3-42.3 46.8l-1.2 1.5-1.8-.7C92.1 411.8 51.5 403.6 10 403.6c-4.1 0-7.5 3.4-7.5 7.5s3.4 7.5 7.5 7.5c37.7 0 74.8 7.2 110.1 21.3l3 1.2-1.9 2.6c-6.9 9.6-13.5 19.5-19.5 29.4l-15.2 25c-1 1.7-1.4 3.7-.9 5.7.5 1.9 1.7 3.6 3.4 4.6 1.2.7 2.5 1.1 3.9 1.1 2.6 0 5-1.4 6.4-3.6l15.2-25c7.9-12.9 16.6-25.6 25.8-37.8l.1-.2c.3-.3.5-.6.7-1l.1-.2c66-86.1 161.1-146 267.6-168.6 30.7-6.5 62-9.8 93.1-9.8 4.1 0 7.5-3.4 7.5-7.5.1-4-3.3-7.3-7.4-7.3zm-438-136c-4.1 0-7.5 3.4-7.5 7.5v73.4l-4.4-5.2c-15-17.8-22.9-38.6-22.9-60.1 0-26 11.8-51.2 33.1-70.8l1.7-1.6 1.7 1.6C87.1 76.8 98.8 102 98.8 128c0 21.5-7.9 42.3-22.9 60.1l-4.4 5.2V120c0-4.1-3.4-7.5-7.5-7.5zm97 57.5l38 38.2h-76l38-38.2zm14.5 108.8l-3.4-1.2c-7.9-2.9-16-5.6-23.9-8.1l-1.8-.5v-12h29l.1 21.8zm34 14.4l-3.5-1.6c-4.7-2.2-9.4-4.2-13.9-6.1l-1.5-.6v-35.3c0-4.1-3.4-7.5-7.5-7.5h-44c-4.1 0-7.5 3.4-7.5 7.5v15.1l-3.1-.8c-4.8-1.2-9.5-2.4-13.9-3.4l-1.9-.4v-36.8h97v69.9h-.2zM179 166.8h93.2l41.1 41.3h-93.2L179 166.8zm144.8 116.8l-1.6.6c-17.1 7.1-33.9 15.2-49.8 24.2-5 2.8-10 5.7-15.3 9l-1.3.8-1.3-.8c-9.4-5.7-19-11.2-28.7-16.2l-1.3-.7v-77.4h99.3v60.5zm83.6-163.1c-4.1 0-7.5 3.4-7.5 7.5v82.9l-4.3-4.6c-24-25.4-36.7-55.7-36.7-87.6 0-36 16.6-70.7 46.8-97.5l1.7-1.5 1.7 1.5c30.2 26.8 46.8 61.4 46.8 97.5 0 31.9-12.7 62.2-36.7 87.6l-4.3 4.6V128c0-4.1-3.4-7.5-7.5-7.5z"/><path class="st0" d="M414.9 90c0 2-.8 3.9-2.2 5.3-1.4 1.4-3.3 2.2-5.3 2.2s-3.9-.8-5.3-2.2c-1.4-1.4-2.2-3.3-2.2-5.3s.8-3.9 2.2-5.3c1.4-1.4 3.3-2.2 5.3-2.2s3.9.8 5.3 2.2c1.4 1.4 2.2 3.3 2.2 5.3zM335.2 372.3c0 2-.8 3.9-2.2 5.3-1.4 1.4-3.3 2.2-5.3 2.2s-3.9-.8-5.3-2.2c-1.4-1.4-2.2-3.3-2.2-5.3s.8-3.9 2.2-5.3c1.4-1.4 3.3-2.2 5.3-2.2s3.9.8 5.3 2.2c1.4 1.4 2.2 3.4 2.2 5.3z"/></svg>