<svg xmlns="http://www.w3.org/2000/svg" width="76" height="100" viewBox="0 0 380 512"><linearGradient id="a" gradientUnits="userSpaceOnUse" x1="122.227" y1="208.848" x2="257.773" y2="208.848"><stop offset="0" stop-color="#7ac143"/><stop offset="1" stop-color="#46a83b"/></linearGradient><path d="M190 116.1c-7.1 7-20.2 20.6-32.9 37.6-22.8 30.5-34.9 58.8-34.9 81.9 0 18 7.1 35 19.9 47.7 9.2 9.2 20.6 15.4 32.9 18.2v-30.2l-18.6-13.8c-6.6-4.9-8-14.3-3.1-21 4.9-6.7 14.3-8 21-3.1l.7.6v-24.4c0-8.3 6.7-15 15-15s15 6.7 15 15v24.5l.8-.6c6.7-4.9 16.1-3.5 21 3.2 4.9 6.7 3.5 16.1-3.2 21L205 271.4v30.2c12.4-2.8 23.7-9 32.9-18.2 12.8-12.8 19.9-29.7 19.9-47.7 0-48.4-50.9-102.8-67.8-119.6z" fill="url(#a)"/><linearGradient id="b" gradientUnits="userSpaceOnUse" x1="190" x2="190" y2="512"><stop offset="0" stop-color="#7ac143"/><stop offset="1" stop-color="#46a83b"/></linearGradient><path d="M190 0C85.2 0 0 85 0 189.6 0 242.3 27.5 310.1 81.7 391c40.3 60.2 81 105.8 85.5 110.8 5.8 6.5 14.2 10.2 22.9 10.2s17.1-3.7 22.9-10.2c4.5-5 45.1-50.6 85.4-110.8 54.2-80.9 81.7-148.7 81.7-201.5C380 85 294.8 0 190 0zm69.1 304.6c-14.9 14.9-33.7 24.3-54.1 27.4v63.1c0 8.3-6.7 15-15 15s-15-6.7-15-15V332c-20.4-3.1-39.2-12.6-54.1-27.4-18.5-18.4-28.7-42.9-28.7-69 0-69.5 74.5-139.2 83-146.9 8.4-7.6 21.1-7.6 29.4 0 2.3 2.1 22.3 20.5 42.2 47 27.1 36.2 40.9 69.8 40.9 99.9.1 26.1-10.1 50.6-28.6 69z" fill="url(#b)"/></svg>