<svg xmlns="http://www.w3.org/2000/svg" viewBox="0 0 145.2 21"><linearGradient id="a" gradientUnits="userSpaceOnUse" y1="10.5122" x2="145.1602" y2="10.5122"><stop offset="0" stop-color="#46a83b"/><stop offset="1" stop-color="#7ac143"/></linearGradient><path d="M0 16.6V1.8h9.1v2.5H2.7v12.3H0zm7.2 0l-.6-2h.5c.7 0 1.2-.3 1.6-.8.4-.6.7-1.4.9-2.6.2-1.1.4-2.7.6-4.8l.1-.8h7.3v10.9H15V8h-2.4l-.2 1c-.1.5-.1.9-.1 1l-.1.9c-.1.5-.1.8-.2 1-.1.4-.3 1.3-.4 1.8-.2.4-.4 1-.7 1.5-.7 1.1-1.7 1.6-3 1.6-.2-.1-.4-.1-.7-.2zm14-9.5c1.1-1.1 2.5-1.7 4.2-1.7 1.7 0 3.1.6 4.2 1.7s1.6 2.4 1.6 4-.5 3-1.6 4.1c-1.1 1.1-2.5 1.6-4.2 1.6-1.7 0-3.1-.5-4.2-1.6s-1.6-2.5-1.6-4.1c0-1.6.6-2.9 1.6-4zm6.5 1.7c-.6-.6-1.4-1-2.3-1-.9 0-1.6.3-2.3 1-.6.6-.9 1.4-.9 2.3 0 .9.3 1.7.9 2.3.6.6 1.4 1 2.3 1 .9 0 1.6-.3 2.3-1 .6-.6.9-1.4.9-2.3 0-.9-.3-1.7-.9-2.3zM43 7.4c1.1 1 1.6 2.3 1.6 3.9s-.5 2.9-1.6 3.9c-1.1 1.1-2.4 1.6-4.1 1.6-4.4 0-6.2-3.9-6.2-7.4.1-1.3.3-2.4.6-3.4.7-1.9 1.7-2.8 3.3-3.6.8-.4 1.6-.7 2.3-.9.7-.2 1.5-.4 2.5-.7 1-.3 1.8-.5 2.4-.8v2.5c-.6.3-1.3.5-2.2.7l-2.2.6c-1.8.5-3.8 1.5-4.2 4 .8-1.3 2.4-2 4.1-2 1.4.1 2.7.6 3.7 1.6zm-1.8 6.1c.6-.6.9-1.4.9-2.3 0-.9-.3-1.6-.9-2.2-.6-.6-1.3-.9-2.2-.9s-1.6.3-2.2.9-.9 1.3-.9 2.2c0 .9.3 1.6.9 2.3.6.6 1.3 1 2.2 1 .9 0 1.6-.3 2.2-1zm13.9-7.8h2.5v10.9h-2.5v-1.3c-.9 1.1-2.1 1.6-3.5 1.6-1.6 0-2.8-.5-3.9-1.6-1-1.1-1.5-2.5-1.5-4.1 0-1.6.5-3 1.5-4 1-1.1 2.3-1.6 3.9-1.6 1.4 0 2.6.5 3.5 1.6V5.7zm-.9 3.1c-.6-.6-1.4-1-2.3-1-.9 0-1.7.3-2.3 1-.6.6-.9 1.4-.9 2.3 0 .9.3 1.7.9 2.4.6.6 1.4 1 2.3 1 .9 0 1.7-.3 2.3-1 .6-.6.9-1.4.9-2.4 0-.9-.3-1.7-.9-2.3zM70 18.2h-2.8v-2.4c-2.3-.1-4.1-.7-5.5-1.9-1.4-1.2-2.1-2.7-2.1-4.7s.7-3.5 2.1-4.7c1.4-1.2 3.2-1.8 5.5-1.9V.2H70v2.4c2.2.1 4.1.7 5.5 1.9 1.4 1.2 2.1 2.7 2.1 4.7s-.7 3.5-2.1 4.7C74 15 72.2 15.7 70 15.8v2.4zm-6.3-6.1c.9.7 2 1.1 3.5 1.2V5c-2.9.1-4.8 1.7-4.8 4.1 0 1.3.5 2.3 1.3 3zm6.3 1.2c1.4 0 2.6-.4 3.5-1.2.9-.8 1.3-1.8 1.3-3s-.4-2.2-1.3-2.9S71.4 5.1 70 5v8.3zm20-1.2h-8.3c.3 1.5 1.5 2.5 3.3 2.5 1.3 0 2.5-.4 3.6-1.1l1 1.9c-1.3 1-2.9 1.5-4.7 1.5-4.1 0-5.9-2.8-5.9-5.7 0-1.6.5-3 1.6-4.1 1-1.1 2.4-1.7 4.1-1.7 1.6 0 2.9.5 3.9 1.5s1.5 2.3 1.5 4c-.1.3-.1.7-.1 1.2zm-8.3-2h5.8c-.2-1.5-1.3-2.5-2.8-2.5-1.6 0-2.7 1-3 2.5zm20.3-3c1 1.1 1.5 2.4 1.5 4s-.5 3-1.5 4.1c-1 1.1-2.3 1.6-3.8 1.6-1.4 0-2.6-.5-3.5-1.6V21h-2.6V5.7h2.6v1.4c.9-1.1 2.1-1.7 3.5-1.7 1.5 0 2.8.6 3.8 1.7zm-6.5 6.4c.6.6 1.3.9 2.3.9s1.7-.3 2.3-.9c.6-.6.9-1.4.9-2.4s-.3-1.7-.9-2.3c-.6-.6-1.3-1-2.3-1s-1.7.3-2.3 1c-.6.6-.9 1.4-.9 2.3 0 1 .3 1.8.9 2.4zm10.1 3.1V5.7h1.8l4.7 6 4.6-6h1.8v10.9H116v-6.1l-3.5 4.4h-.9l-3.5-4.4v6.1h-2.5zm26-4.5h-8.3c.3 1.5 1.5 2.5 3.3 2.5 1.3 0 2.5-.4 3.6-1.1l1 1.9c-1.3 1-2.9 1.5-4.7 1.5-4.1 0-5.9-2.8-5.9-5.7 0-1.6.5-3 1.6-4.1 1.1-1.1 2.4-1.6 4.1-1.6 1.6 0 2.9.5 3.9 1.5s1.5 2.3 1.5 4c-.1.2-.1.6-.1 1.1zm-8.3-2h5.8c-.2-1.5-1.3-2.5-2.8-2.5-1.6 0-2.7 1-3 2.5zm20.3-3c1 1.1 1.5 2.4 1.5 4s-.5 3-1.5 4.1c-1 1.1-2.3 1.6-3.8 1.6-1.4 0-2.6-.5-3.5-1.6V21h-2.6V5.7h2.6v1.4c.9-1.1 2.1-1.7 3.5-1.7 1.5 0 2.8.6 3.8 1.7zm-6.5 6.4c.6.6 1.3.9 2.3.9s1.7-.3 2.3-.9c.6-.6.9-1.4.9-2.4s-.3-1.7-.9-2.3c-.6-.6-1.3-1-2.3-1s-1.7.3-2.3 1c-.6.6-.9 1.4-.9 2.3 0 1 .3 1.8.9 2.4z" fill="url(#a)"/></svg>