<svg xmlns="http://www.w3.org/2000/svg" width="360" height="392"><path d="M224.7 368.7L29.2 172c-39-39.2-39-103.4 0-142.6 46.7-47 110.5-30.6 140.8 0l172.2 173.4-11.6 11.7L159.2 41.1C135.5 16 81 1.5 39.9 41.1c-32.3 32.5-32.3 86.7 0 119.2L235.4 357c24.9 25 64.6 25 88.6 0 24.9-25 24.9-65 0-89.2L157.6 99.4c-15.8-15.8-42.2-15.8-58 0-15.8 15.8-15.8 42.5 0 58.3l145 145.9-11.6 11.7L88 169.5c-22.4-22.5-22.4-59.2 0-81.7s58.8-22.5 81.2 0l167.3 168.3c41.4 41.7 19.4 94 0 113.4-26.2 27.5-80 32.6-111.8-.8zm0 0"/></svg>