<svg xmlns="http://www.w3.org/2000/svg" width="512" height="512"><path d="M486.4 51.2h-.8c-3.9-19.7-20.9-34.1-41.8-34.1s-38 14.5-41.8 34.1h-10.2c-3.9-19.7-20.9-34.1-41.8-34.1s-38 14.5-41.8 34.1H298c-4-19.7-21-34.1-42-34.1s-38 14.5-41.8 34.1H204c-3.9-19.7-20.9-34.1-41.8-34.1s-38 14.5-41.8 34.1h-10.2c-3.9-19.7-20.9-34.1-41.8-34.1s-38 14.5-41.8 34.1h-.8C11.1 51.2 0 62.3 0 76.8v392.6C0 483.9 11.1 495 25.6 495h460.8c14.5 0 25.6-11.1 25.6-25.6V76.8c0-14.5-11.1-25.6-25.6-25.6zm-42.7-17.1c11.5 0 20.8 7 24.2 17.1h-48.4c3.4-10.1 12.7-17.1 24.2-17.1zm-93.8 0c11.5 0 20.8 7 24.2 17.1h-48.4c3.3-10.1 12.7-17.1 24.2-17.1zm-93.9 0c11.5 0 20.8 7 24.2 17.1h-48.4c3.4-10.1 12.7-17.1 24.2-17.1zm-93.9 0c11.5 0 20.8 7 24.2 17.1h-48.4c3.4-10.1 12.7-17.1 24.2-17.1zm-93.8 0c11.5 0 20.8 7 24.2 17.1H44c3.4-10.1 12.8-17.1 24.3-17.1zM17.1 76.8c0-5.1 3.4-8.5 8.5-8.5h66.9c-3.4 10.1-12.7 17.1-24.2 17.1-5.1 0-8.5 3.4-8.5 8.5s3.4 8.5 8.5 8.5c21 0 38-14.5 41.8-34.1h76.3c-3.4 10.1-12.7 17.1-24.2 17.1-5.1 0-8.5 3.4-8.5 8.5s3.4 8.5 8.5 8.5c21 0 38-14.5 41.8-34.1h76.3c-3.4 10.1-12.7 17.1-24.2 17.1-5.1 0-8.5 3.4-8.5 8.5s3.4 8.5 8.5 8.5c21 0 38-14.5 41.8-34.1h76.3c-3.4 10.1-12.7 17.1-24.2 17.1-5.1 0-8.5 3.4-8.5 8.5s3.4 8.5 8.5 8.5c21 0 38-14.5 41.8-34.1H468c-3.4 10.1-12.7 17.1-24.2 17.1-5.1 0-8.5 3.4-8.5 8.5s3.4 8.5 8.5 8.5c21 0 38-14.5 41.8-34.1h.8c5.1 0 8.5 3.4 8.5 8.5v59.7H17.1V76.8zm477.8 392.5c0 5.1-3.4 8.5-8.5 8.5H25.6c-5.1 0-8.5-3.4-8.5-8.5V153.6H495l-.1 315.7z"/><path d="M76.8 286H128c5.1 0 8.5-3.4 8.5-8.5v-51.2c0-5.1-3.4-8.5-8.5-8.5H76.8c-5.1 0-8.5 3.4-8.5 8.5v51.2c0 5.1 3.4 8.5 8.5 8.5zm8.5-51.2h34.1v34.1H85.3v-34.1zM179.2 286h51.2c5.1 0 8.5-3.4 8.5-8.5v-51.2c0-5.1-3.4-8.5-8.5-8.5h-51.2c-5.1 0-8.5 3.4-8.5 8.5v51.2c0 5.1 3.4 8.5 8.5 8.5zm8.5-51.2h34.1v34.1h-34.1v-34.1zM281.6 286h51.2c5.1 0 8.5-3.4 8.5-8.5v-51.2c0-5.1-3.4-8.5-8.5-8.5h-51.2c-5.1 0-8.5 3.4-8.5 8.5v51.2c0 5.1 3.4 8.5 8.5 8.5zm8.5-51.2h34.1v34.1h-34.1v-34.1zM384 286h51.2c5.1 0 8.5-3.4 8.5-8.5v-51.2c0-5.1-3.4-8.5-8.5-8.5H384c-5.1 0-8.5 3.4-8.5 8.5v51.2c0 5.1 3.4 8.5 8.5 8.5zm8.5-51.2h34.1v34.1h-34.1v-34.1zM76.8 413.7H128c5.1 0 8.5-3.4 8.5-8.5V354c0-5.1-3.4-8.5-8.5-8.5H76.8c-5.1 0-8.5 3.4-8.5 8.5v51.2c0 5.1 3.4 8.5 8.5 8.5zm8.5-51.2h34.1v34.1H85.3v-34.1zM179.2 413.7h51.2c5.1 0 8.5-3.4 8.5-8.5V354c0-5.1-3.4-8.5-8.5-8.5h-51.2c-5.1 0-8.5 3.4-8.5 8.5v51.2c0 5.1 3.4 8.5 8.5 8.5zm8.5-51.2h34.1v34.1h-34.1v-34.1zM281.8 413.7H333c5.1 0 8.5-3.4 8.5-8.5V354c0-5.1-3.4-8.5-8.5-8.5h-51.2c-5.1 0-8.5 3.4-8.5 8.5v51.2c0 5.1 3.4 8.5 8.5 8.5zm8.5-51.2h34.1v34.1h-34.1v-34.1zM384.2 413.7h51.2c5.1 0 8.5-3.4 8.5-8.5V354c0-5.1-3.4-8.5-8.5-8.5h-51.2c-5.1 0-8.5 3.4-8.5 8.5v51.2c0 5.1 3.4 8.5 8.5 8.5zm8.5-51.2h34.1v34.1h-34.1v-34.1z"/></svg>