<svg xmlns="http://www.w3.org/2000/svg" width="512" height="512" viewBox="0 0 512 512"><path d="M486.4 51.2h-.8c-3.9-19.7-20.9-34.1-41.8-34.1s-38 14.5-41.8 34.1h-10.2c-3.9-19.7-20.9-34.1-41.8-34.1s-38 14.5-41.8 34.1H298c-4-19.7-21-34.1-42-34.1s-38 14.5-41.8 34.1H204c-3.9-19.7-20.9-34.1-41.8-34.1s-38 14.5-41.8 34.1h-10.2c-3.9-19.7-20.9-34.1-41.8-34.1s-38 14.5-41.8 34.1h-.8C11.1 51.2 0 62.3 0 76.8v392.6C0 483.9 11.1 495 25.6 495h460.8c14.5 0 25.6-11.1 25.6-25.6V76.8c0-14.5-11.1-25.6-25.6-25.6zm-42.7-17.1c11.5 0 20.8 7 24.2 17.1h-48.4c3.4-10.1 12.7-17.1 24.2-17.1zm-93.8 0c11.5 0 20.8 7 24.2 17.1h-48.4c3.3-10.1 12.7-17.1 24.2-17.1zm-93.9 0c11.5 0 20.8 7 24.2 17.1h-48.4c3.4-10.1 12.7-17.1 24.2-17.1zm-93.9 0c11.5 0 20.8 7 24.2 17.1h-48.4c3.4-10.1 12.7-17.1 24.2-17.1zm-93.8 0c11.5 0 20.8 7 24.2 17.1H44c3.4-10.1 12.8-17.1 24.3-17.1zM17.1 76.8c0-5.1 3.4-8.5 8.5-8.5h66.9c-3.4 10.1-12.7 17.1-24.2 17.1-5.1 0-8.5 3.4-8.5 8.5s3.4 8.5 8.5 8.5c21 0 38-14.5 41.8-34.1h76.3c-3.4 10.1-12.7 17.1-24.2 17.1-5.1 0-8.5 3.4-8.5 8.5s3.4 8.5 8.5 8.5c21 0 38-14.5 41.8-34.1h76.3c-3.4 10.1-12.7 17.1-24.2 17.1-5.1 0-8.5 3.4-8.5 8.5s3.4 8.5 8.5 8.5c21 0 38-14.5 41.8-34.1h76.3c-3.4 10.1-12.7 17.1-24.2 17.1-5.1 0-8.5 3.4-8.5 8.5s3.4 8.5 8.5 8.5c21 0 38-14.5 41.8-34.1H468c-3.4 10.1-12.7 17.1-24.2 17.1-5.1 0-8.5 3.4-8.5 8.5s3.4 8.5 8.5 8.5c21 0 38-14.5 41.8-34.1h.8c5.1 0 8.5 3.4 8.5 8.5v59.7H17.1V76.8zm477.8 392.5c0 5.1-3.4 8.5-8.5 8.5H25.6c-5.1 0-8.5-3.4-8.5-8.5V153.6H495l-.1 315.7z"/><path d="M76.8 256H128c5.1 0 8.5-3.4 8.5-8.5v-51.2c0-5.1-3.4-8.5-8.5-8.5H76.8c-5.1 0-8.5 3.4-8.5 8.5v51.2c0 5.1 3.4 8.5 8.5 8.5zm8.5-51.2h34.1v34.1H85.3v-34.1zM179.2 256h51.2c5.1 0 8.5-3.4 8.5-8.5v-51.2c0-5.1-3.4-8.5-8.5-8.5h-51.2c-5.1 0-8.5 3.4-8.5 8.5v51.2c0 5.1 3.4 8.5 8.5 8.5zm8.5-51.2h34.1v34.1h-34.1v-34.1zM281.6 256h51.2c5.1 0 8.5-3.4 8.5-8.5v-51.2c0-5.1-3.4-8.5-8.5-8.5h-51.2c-5.1 0-8.5 3.4-8.5 8.5v51.2c0 5.1 3.4 8.5 8.5 8.5zm8.5-51.2h34.1v34.1h-34.1v-34.1zM384 256h51.2c5.1 0 8.5-3.4 8.5-8.5v-51.2c0-5.1-3.4-8.5-8.5-8.5H384c-5.1 0-8.5 3.4-8.5 8.5v51.2c0 5.1 3.4 8.5 8.5 8.5zm8.5-51.2h34.1v34.1h-34.1v-34.1zM76.8 349.9H128c5.1 0 8.5-3.4 8.5-8.5v-51.2c0-5.1-3.4-8.5-8.5-8.5H76.8c-5.1 0-8.5 3.4-8.5 8.5v51.2c0 5.1 3.4 8.5 8.5 8.5zm8.5-51.2h34.1v34.1H85.3v-34.1zM179.2 349.9h51.2c5.1 0 8.5-3.4 8.5-8.5v-51.2c0-5.1-3.4-8.5-8.5-8.5h-51.2c-5.1 0-8.5 3.4-8.5 8.5v51.2c0 5.1 3.4 8.5 8.5 8.5zm8.5-51.2h34.1v34.1h-34.1v-34.1zM76.8 443.7H128c5.1 0 8.5-3.4 8.5-8.5V384c0-5.1-3.4-8.5-8.5-8.5H76.8c-5.1 0-8.5 3.4-8.5 8.5v51.2c0 5.1 3.4 8.5 8.5 8.5zm8.5-51.2h34.1v34.1H85.3v-34.1zM179.2 443.7h51.2c5.1 0 8.5-3.4 8.5-8.5V384c0-5.1-3.4-8.5-8.5-8.5h-51.2c-5.1 0-8.5 3.4-8.5 8.5v51.2c0 5.1 3.4 8.5 8.5 8.5zm8.5-51.2h34.1v34.1h-34.1v-34.1zM358.4 460.8c52.1 0 93.9-41.8 93.9-93.9 0-52.1-41.8-93.9-93.9-93.9s-93.9 41.8-93.9 93.9 41.8 93.9 93.9 93.9zm0-170.7c42.7 0 76.8 34.1 76.8 76.8s-34.1 76.8-76.8 76.8-76.8-34.1-76.8-76.8c0-42.6 34.1-76.8 76.8-76.8z"/><path d="M343.9 415.6c1.7 1.7 3.4 2.6 6 2.6 3.4 0 6-1.7 6.8-4.3l51.2-76.8c2.6-4.3 1.7-9.4-2.6-11.9s-9.4-1.7-11.9 2.6l-45.2 68.3-26.5-26.5c-3.4-3.4-8.5-3.4-11.9 0-3.4 3.4-3.4 8.5 0 11.9l34.1 34.1z"/></svg>