<svg id="Слой_1" xmlns="http://www.w3.org/2000/svg" xmlns:xlink="http://www.w3.org/1999/xlink" viewBox="0 0 512 512"><style>.st0{clip-path:url(#SVGID_2_)}</style><defs><path id="SVGID_1_" d="M0 0h512v512H0z"/></defs><clipPath id="SVGID_2_"><use xlink:href="#SVGID_1_" overflow="visible"/></clipPath><path class="st0" d="M498.4 175.7L336.3 13.6C327.5 4.8 315.9 0 303.4 0c-12.4 0-24.1 4.8-32.9 13.6l-257 257C4.8 279.3 0 291 0 303.4c0 12.4 4.8 24.1 13.6 32.9l20 20L168 490.7h-18.6c-5.9 0-10.7 4.8-10.7 10.7 0 5.9 4.8 10.7 10.7 10.7h213.3c5.9 0 10.7-4.8 10.7-10.7 0-5.9-4.8-10.7-10.7-10.7H249.2l249.2-249.2c18.1-18.2 18.1-47.7 0-65.8m-15.1 50.6l-257 257c-4.7 4.7-11 7.3-17.7 7.3h-.1c-6.7 0-13-2.6-17.7-7.3L56.2 348.7 303 101.9c4.2-4.2 4.2-10.9 0-15.1-4.2-4.2-10.9-4.2-15.1 0L41.1 333.7l-12.5-12.5c-4.7-4.7-7.3-11-7.3-17.8 0-6.7 2.6-13.1 7.3-17.8l257-257c4.7-4.7 11-7.3 17.8-7.3 6.7 0 13.1 2.6 17.8 7.3l57.7 57.7-246.8 246.9c-4.2 4.2-4.2 10.9 0 15.1 2.1 2.1 4.8 3.1 7.5 3.1s5.5-1 7.5-3.1L394 101.4l89.3 89.3c9.8 9.9 9.8 25.8 0 35.6"/><path class="st0" d="M262.8 308.1c-4.2-4.2-10.9-4.2-15.1 0L163.8 392c-4.2 4.2-4.2 10.9 0 15.1 2.1 2.1 4.8 3.1 7.5 3.1s5.5-1 7.5-3.1l83.9-83.9c4.3-4.2 4.3-11 .1-15.1M228.4 387.7L194 422.1c-4.2 4.2-4.2 10.9 0 15.1 2.1 2.1 4.8 3.1 7.5 3.1s5.5-1 7.5-3.1l34.4-34.4c4.2-4.2 4.2-10.9 0-15.1-4.1-4.1-10.9-4.1-15 0M260.1 356.1l-4.5 4.5c-4.2 4.2-4.2 10.9 0 15.1 2.1 2.1 4.8 3.1 7.5 3.1s5.5-1 7.5-3.1l4.5-4.5c4.2-4.2 4.2-10.9 0-15.1-4.1-4.2-10.9-4.2-15 0M407.1 163.8c-2-2-4.7-3.1-7.5-3.1s-5.5 1.1-7.5 3.1L346.7 209c-2 2-3.1 4.7-3.1 7.5s1.1 5.5 3.1 7.5l30.2 30.2c2.1 2.1 4.8 3.1 7.5 3.1s5.5-1 7.5-3.1l45.3-45.3c4.2-4.2 4.2-10.9 0-15.1l-30.1-30zm-22.7 67.9l-15.1-15.1 30.2-30.2 15.1 15.1-30.2 30.2zM320.3 80.2c2.7 0 5.5-1 7.5-3.1l4.5-4.5c4.2-4.2 4.2-10.9 0-15.1-4.2-4.2-10.9-4.2-15.1 0l-4.5 4.5c-4.2 4.2-4.2 10.9 0 15.1 2.2 2 4.9 3.1 7.6 3.1M107.2 358l-4.5 4.5c-4.2 4.2-4.2 10.9 0 15.1 2.1 2.1 4.8 3.1 7.5 3.1s5.5-1 7.5-3.1l4.5-4.5c4.2-4.2 4.2-10.9 0-15.1-4.1-4.1-10.8-4.1-15 0"/></svg>