<?xml version="1.0" encoding="utf-8"?>
<!-- Generator: Adobe Illustrator 22.1.0, SVG Export Plug-In . SVG Version: 6.00 Build 0)  -->
<svg version="1.1" id="Capa_1" xmlns="http://www.w3.org/2000/svg" xmlns:xlink="http://www.w3.org/1999/xlink" x="0px" y="0px"
	 width="512px" height="512px" viewBox="0 0 512 512" style="enable-background:new 0 0 512 512;" xml:space="preserve">
<g>
	<g>
		<path d="M473.7,232H473l-0.3-0.2h-19.4l-0.7-1.3L371.1,76.9c-1.6-2.9-4.2-5.1-7.4-6.1s-6.6-0.7-9.5,0.9
			c-6.1,3.3-8.4,10.9-5.2,16.9l75.9,143.2H89.2l75.9-143.2c1.6-3,1.9-6.3,0.9-9.5s-3.1-5.8-6.1-7.4c-6.1-3.2-13.7-0.9-16.9,5.2
			L60.9,231.8H39.3L39,232h-0.7c-8.9,0.3-12.9,6.4-12.9,12.4s4,12.1,12.9,12.4H39l0.3,0.2H42l0.4,1.9c0,0.2,0.1,0.4,0.1,0.7
			l31.3,175.3c5.7,31.8,33.2,54.8,65.5,54.8h235.5c32.3,0,59.9-23.1,65.5-54.8l31.3-175.3c0-0.2,0.1-0.4,0.1-0.5v-2.3l2.4-0.1
			c8.8-0.2,12.8-6.2,12.8-12C487.1,238.8,482.9,232.3,473.7,232z M415.8,430.5c-1.8,9.9-6.9,18.5-14.2,24.6
			c-7.3,6.1-16.6,9.7-26.7,9.7H139.3c-20.2,0-37.4-14.4-40.9-34.3L67.5,257h379.2L415.8,430.5z"/>
	</g>
	<g>
		<path d="M267.9,295.1v131.4c0,6.9-5.6,12.5-12.5,12.5s-12.5-5.6-12.5-12.5V295.1c0-6.9,5.6-12.5,12.5-12.5
			S267.9,288.2,267.9,295.1z"/>
	</g>
	<g>
		<path d="M191.5,438.8c-0.7,0.1-1.5,0.2-2.1,0.2c-6.1,0-11.4-4.5-12.3-10.4l-22.2-131.4c-1.1-6.8,3.5-13.3,10.3-14.4
			c0.7-0.1,1.4-0.2,2.1-0.2c2.6,0,5.1,0.8,7.2,2.3c2.7,1.9,4.5,4.8,5.1,8.1l22.2,131.4C202.8,431.2,198.3,437.6,191.5,438.8z"/>
	</g>
	<g>
		<path d="M354.7,297.2l-22.1,131.4c-1.1,6-6.3,10.4-12.3,10.4c-0.6,0-1.4-0.1-2.1-0.2c-3.3-0.6-6.2-2.4-8.1-5.1s-2.7-6-2.1-9.3
			L330.1,293c0.6-3.3,2.4-6.2,5.1-8.1s6-2.7,9.3-2.1C351.3,283.9,355.9,290.4,354.7,297.2z"/>
	</g>
</g>
</svg>
