<svg xmlns="http://www.w3.org/2000/svg" viewBox="0 0 464 372"><path d="M232 312c30.9 0 56-30.5 56-68s-25.1-68-56-68-56 30.5-56 68 25.1 68 56 68zm0-120c22.1 0 40 23.3 40 52s-17.9 52-40 52-40-23.3-40-52 18-52 40-52zM48 164h16v-16H40c-4.4 0-8 3.6-8 8v24h16v-16zM48 308H32v24c0 4.4 3.6 8 8 8h24v-16H48v-16z"/><path d="M464 124c0-4.4-3.6-8-8-8h-30.8l-11.6-57.8c-.9-4.3-5.1-7.1-9.4-6.3L380 56.8 358.7 5C357 .9 352.4-1 348.3.6L65.9 116H8c-4.4 0-8 3.6-8 8v240c0 4.4 3.6 8 8 8h448c4.4 0 8-3.6 8-8V124zm-55.1-8h-16.3l-4-20.1c-.9-4.3-5.1-7.1-9.4-6.3l-23.5 4.7 3.2 15.7 15.7-3.2 1.8 9.1H166.8l232.6-46.8 9.5 46.9zm-45-56l-16 3.2-6.8-16.6c-1.7-4.1-6.3-6-10.4-4.4l-22.2 9.1 6.1 14.8 14.8-6.1 2.6 6.3-202 40.6 216.9-88.7 17 41.8zM448 356H16V132h71v.1l.3-.1H448v224z"/><path d="M40 204c-4.4 0-8 3.6-8 8v64c0 4.4 3.6 8 8 8 26.5 0 48 21.5 48 48 0 4.4 3.6 8 8 8h272c4.4 0 8-3.6 8-8 0-26.5 21.5-48 48-48 4.4 0 8-3.6 8-8v-64c0-4.4-3.6-8-8-8-26.5 0-48-21.5-48-48 0-4.4-3.6-8-8-8H96c-4.4 0-8 3.6-8 8 0 26.5-21.5 48-48 48zm63.5-40h257c3.7 29 26.5 51.8 55.5 55.5v49c-29 3.7-51.8 26.5-55.5 55.5h-257C99.8 295 77 272.2 48 268.5v-49c29-3.7 51.8-26.5 55.5-55.5zM416 180h16v-24c0-4.4-3.6-8-8-8h-24v16h16v16zM416 324h-16v16h24c4.4 0 8-3.6 8-8v-24h-16v16z"/><path d="M320 232h16v16h-16v-16zM128 232h16v16h-16v-16z"/></svg>