<svg xmlns="http://www.w3.org/2000/svg" width="48" height="44.1"><path d="M43.3.1L15.9 0c-2.6 0-4.7 2.1-4.7 4.7v4.1H4.7C2.1 8.9 0 11 0 13.6v16.9c0 2.6 2.1 4.7 4.7 4.7h4.9v8c0 .3.2.6.5.7.1 0 .2.1.3.1.2 0 .4-.1.6-.3l7.8-8.5 13.3-.1c2.6 0 4.7-2.1 4.7-4.7v-.1L41 35c.2.2.4.3.6.3.1 0 .2 0 .3-.1.3-.1.5-.4.5-.7v-8h.9c2.6 0 4.7-2.1 4.7-4.7v-17C48 2.2 45.9.1 43.3.1zm-8.1 30.4c0 1.7-1.4 3.1-3.1 3.1l-13.7.1c-.2 0-.4.1-.6.3l-6.6 7.3v-6.7c0-.4-.4-.8-.8-.8H4.7c-1.7 0-3.1-1.4-3.1-3.1V13.6c0-1.7 1.4-3.1 3.1-3.1h27.4c1.7 0 3.1 1.4 3.1 3.1v16.9zm11.2-8.8c0 1.7-1.4 3.1-3.1 3.1h-1.7c-.4 0-.8.4-.8.8v6.7l-4-4.4V13.5c0-2.6-2.1-4.7-4.7-4.7H12.8V4.7c0-1.7 1.4-3.1 3.1-3.1l27.3.1c1.7 0 3.1 1.4 3.1 3.1l.1 16.9zm0 0"/><path d="M9.6 19.2c-1.8 0-3.2 1.4-3.2 3.2 0 1.8 1.4 3.2 3.2 3.2 1.8 0 3.2-1.4 3.2-3.2 0-1.8-1.4-3.2-3.2-3.2zm0 4.8c-.9 0-1.6-.7-1.6-1.6 0-.9.7-1.6 1.6-1.6.9 0 1.6.7 1.6 1.6 0 .9-.7 1.6-1.6 1.6zm0 0M18.4 19.2c-1.8 0-3.2 1.4-3.2 3.2 0 1.8 1.4 3.2 3.2 3.2 1.8 0 3.2-1.4 3.2-3.2 0-1.8-1.4-3.2-3.2-3.2zm0 4.8c-.9 0-1.6-.7-1.6-1.6 0-.9.7-1.6 1.6-1.6.9 0 1.6.7 1.6 1.6 0 .9-.7 1.6-1.6 1.6zm0 0M27.2 19.2c-1.8 0-3.2 1.4-3.2 3.2 0 1.8 1.4 3.2 3.2 3.2 1.8 0 3.2-1.4 3.2-3.2 0-1.8-1.4-3.2-3.2-3.2zm0 4.8c-.9 0-1.6-.7-1.6-1.6 0-.9.7-1.6 1.6-1.6.9 0 1.6.7 1.6 1.6 0 .9-.7 1.6-1.6 1.6zm0 0"/></svg>