<svg version="1.1" id="Capa_1" xmlns="http://www.w3.org/2000/svg" x="0" y="0" viewBox="0 0 55.7 55.7" xml:space="preserve"><style>.st0{fill:#010002}</style><path class="st0" d="M27.9 0C12.5 0 0 12.5 0 27.9s12.5 27.9 27.9 27.9 27.9-12.5 27.9-27.9C55.7 12.5 43.2 0 27.9 0zm0 51.2C15 51.2 4.5 40.7 4.5 27.9 4.5 15 15 4.5 27.9 4.5S51.2 15 51.2 27.9 40.7 51.2 27.9 51.2z"/><path class="st0" d="M36.7 19l-13 13-4.7-4.8c-.9-.9-2.3-.9-3.2 0-.9.9-.9 2.3 0 3.2l6.3 6.3c.4.4 1 .7 1.6.7s1.1-.2 1.6-.7l14.6-14.6c.9-.9.9-2.3 0-3.2-.9-.8-2.3-.8-3.2.1z"/></svg>