<svg id="Слой_1" xmlns="http://www.w3.org/2000/svg" xmlns:xlink="http://www.w3.org/1999/xlink" viewBox="0 0 512.9 409.6"><style>.st0{clip-path:url(#SVGID_2_)}</style><defs><path id="SVGID_1_" d="M0 0h512.9v409.6H0z"/></defs><clipPath id="SVGID_2_"><use xlink:href="#SVGID_1_" overflow="visible"/></clipPath><path class="st0" d="M505.2 142.5L431 60.6c-6-6-13.7-9.4-21.3-9.4h-85.3V33.3C324.4 14.5 309.9 0 292 0H33.3C14.5 0 0 14.5 0 33.3v295.2c0 16.2 13.7 29.9 29.9 29.9h13.4c4.1 29.2 28.8 51.2 59.1 51.2 30.4 0 55.1-22 59.1-51.2H350.5c4.1 29.2 28.8 51.2 59.1 51.2 30.4 0 55.1-22 59.1-51.2H512.9V162.1c0-7.6-2.6-14.5-7.7-19.6m-13.7 11.1c2.6 1.7 3.4 5.1 3.4 7.7v26.5h-128v-85.3h77.7l46.9 51.1zM17.1 179.2h119.5c5.1 0 8.5-3.4 8.5-8.5s-3.4-8.5-8.5-8.5H17.1v-25.6h85.3c5.1 0 8.5-3.4 8.5-8.5s-3.4-8.5-8.5-8.5H17.1V33.3c0-9.4 6.8-16.2 16.2-16.2H291c9.4 0 16.2 7.7 16.2 16.2v205.6H17.1v-59.7zm85.3 213.3c-23.9 0-42.7-18.8-42.7-42.7 0-23.9 18.8-42.7 42.7-42.7s42.7 18.8 42.7 42.7c0 24-18.8 42.7-42.7 42.7m204.8-51.2H161.5c-3.8-27.3-25.8-48.4-53.5-50.9h-.6c-.7-.1-1.4-.1-2.1-.1-1 0-1.9-.1-2.9-.1s-1.9 0-2.9.1c-.7 0-1.4.1-2.1.1h-.6C69 292.9 47.1 314 43.3 341.3H29.9c-6.8 0-12.8-6-12.8-12.8V256h290.1v85.3zm102.4 51.2c-23.9 0-42.7-18.8-42.7-42.7 0-23.9 18.8-42.7 42.7-42.7 23.9 0 42.7 18.8 42.7 42.7 0 24-18.8 42.7-42.7 42.7m59.1-51.2c-3.8-27.3-25.8-48.4-53.5-50.9h-.6c-.7-.1-1.4-.1-2.1-.1-1 0-1.9-.1-2.9-.1s-1.9 0-2.9.1c-.7 0-1.4.1-2.1.1h-.6c-27.8 2.5-49.7 23.6-53.5 50.9h-26.2v-273h85.3c2.6 0 6 1.7 8.5 3.4l12.2 13.7h-66c-7.7 0-14.5 6.8-14.5 14.5v90.5c0 7.7 6.8 14.5 14.5 14.5h130.6v42.7h-42.7c-5.1 0-8.5 3.4-8.5 8.5s3.4 8.5 8.5 8.5h42.7v76.8l-26.2-.1z"/><path class="st0" d="M102.4 332.8c-9.4 0-17.1 7.7-17.1 17.1 0 9.4 7.7 17.1 17.1 17.1s17.1-7.7 17.1-17.1c0-9.4-7.7-17.1-17.1-17.1M409.6 332.8c-9.4 0-17.1 7.7-17.1 17.1 0 9.4 7.7 17.1 17.1 17.1 9.4 0 17.1-7.7 17.1-17.1 0-9.4-7.7-17.1-17.1-17.1"/></svg>