<svg xmlns="http://www.w3.org/2000/svg" xmlns:xlink="http://www.w3.org/1999/xlink" viewBox="0 0 297.6 171.8"><defs><path id="a" d="M0 0h297.6v171.8H0z"/></defs><clipPath id="b"><use xlink:href="#a" overflow="visible"/></clipPath><path d="M168.1 170.1c30.4 5.1 60.6-1.7 89.7-20.2l23.3-3.1c9.4-1.2 16.5-9.3 16.5-18.8l.1-78.6c0-9.9-7.7-18.2-17.6-18.9L258 28.8c-5.5-3.7-17.6-11.6-31.4-18.1-21-9.9-37.4-12.9-50.2-9.1-8.3 2.4-14.7 7.7-18.8 15.3h-36.1l-50.8-.1c-8 0-15 2.8-20.2 8-3.5 3.5-6 7.9-7.2 12.8-11.9 1.4-20.4 5.5-25.6 12.2-6 7.7-7.3 18.7-3.8 32.5 5.7 22.5 2.8 33.3-10.9 41.4-2.9 1.7-3.8 5.4-2.1 8.2 1.7 2.9 5.4 3.8 8.2 2.1 23.2-13.6 21.6-34.3 16.5-54.7-2.6-10.1-2-17.6 1.6-22.2 2.9-3.7 8.1-6.2 15.5-7.4.8 5.5 3.2 10.6 6.8 14.6 5.2 5.9 12.8 9.2 21.2 9.2h36.8v.6c0 10.1 4.1 19.1 11.5 25.6-.5 2.5-.7 4.9-.7 7.4 0 11 4.8 20.6 13.7 27.2.6 5.1 2.2 11.7 6.4 18.1 4.5 6.6 13.1 14.9 29.7 17.7m84.1-30.9c-32.5 21-60.9 22.7-82.1 19.1-22.9-3.9-26-20.3-26.2-27.4-.1-2-1.1-3.8-2.8-4.9-8.5-5.4-10.7-12.6-10.7-18.8 0-2.8.5-5.4 1-7.5.2-.6.2-1.2.2-1.8 0-2.2-1-4.3-2.8-5.6-7.3-5.3-9.3-12.2-9.3-18.1 0-1.6.1-3.1.4-4.5.1-.4.1-.7.1-1.1 0-3.8-3.1-7-7-7l-42.3-.1c-10.9 0-16.4-8.2-16.4-16.4s5.5-16.4 16.4-16.4c18.4 0 73.5.1 90.1.1 2.8 0 5.4-1.7 6.4-4.3 13.6-32.5 74.6 7.6 85.1 14.8 1 .7 2.2 1.1 3.5 1.2l23.5 1.8c3.6.3 6.6 3.3 6.6 7l-.2 78.6c0 3.5-2.7 6.5-6.2 6.9l-24.4 3.2c-1.1.3-2 .6-2.9 1.2" clip-path="url(#b)"/></svg>