<svg xmlns="http://www.w3.org/2000/svg" width="236.8" height="236.8"><path d="M118.4 0C53.1 0 0 53.1 0 118.4c0 65.3 53.1 118.4 118.4 118.4 65.3 0 118.4-53.1 118.4-118.4C236.8 53.1 183.7 0 118.4 0zm0 224c-29 0-55.3-11.8-74.4-30.8-7.6-7.6-14.1-16.3-19.1-25.9-7.7-14.6-12-31.3-12-48.9 0-58.2 47.4-105.6 105.6-105.6 27.6 0 52.8 10.7 71.6 28.1 9.8 9 17.8 19.9 23.6 32 6.6 13.8 10.3 29.2 10.3 45.5 0 58.2-47.4 105.6-105.6 105.6zm0 0"/><path d="M92.5 92c0 7.1-5.7 12.8-12.8 12.8-7.1 0-12.8-5.7-12.8-12.8 0-7.1 5.7-12.8 12.8-12.8 7.1 0 12.8 5.7 12.8 12.8zm0 0M171.7 92c0 7.1-5.7 12.8-12.8 12.8-7.1 0-12.8-5.7-12.8-12.8 0-7.1 5.7-12.8 12.8-12.8 7.1 0 12.8 5.7 12.8 12.8zm0 0M118.2 184c24.8 0 48.5-12.7 62.1-33.7l-10.8-6.9c-12.5 19.3-35.3 30.1-58.2 27.4-17.8-2.1-34.3-12.3-44.1-27.4l-10.8 6.9c11.8 18.3 31.8 30.7 53.3 33.2 3 .3 5.7.5 8.5.5zm0 0"/></svg>