<?xml version="1.0" encoding="utf-8"?>
<!-- Generator: Adobe Illustrator 22.1.0, SVG Export Plug-In . SVG Version: 6.00 Build 0)  -->
<svg version="1.1" id="Layer_1" xmlns="http://www.w3.org/2000/svg" xmlns:xlink="http://www.w3.org/1999/xlink" x="0px" y="0px"
	 width="512px" height="512px" viewBox="0 0 512 512" style="enable-background:new 0 0 512 512;" xml:space="preserve">
<g>
	<g>
		<path d="M464,79H48c-18.2,0-33,14.8-33,33v288c0,18.2,14.8,33,33,33h416c18.2,0,33-14.8,33-33V112C497,93.8,482.2,79,464,79z
			 M479,415H33V183.3l24.3,19.4c23.7,18.9,57,45.1,104.8,82.6c3.5,2.7,7.4,6,10.8,8.8c20.5,17.1,51.5,42.9,82.7,42.9h0.8
			c31,0,60.7-24.7,82.4-42.8l0.3-0.2c3.8-3.1,7.3-6.1,10.7-8.7c47.6-37.3,80.9-63.5,104.9-82.6l24.3-19.4V415z M479,159.9l-5.5,4.5
			c-24.6,20-64.9,51.9-134.8,106.7c-2.5,2-5.6,4.5-9.4,7.7c-20.3,17-48.2,40.2-72.9,40.2c-0.1,0-0.2,0-0.3,0c-0.1,0-0.3,0-0.5,0
			c-24.7,0-52.5-23.2-72.9-40.2c-3.3-2.8-6.7-5.6-9.4-7.7c-69.7-54.5-110-86.4-134.8-106.6l-5.5-4.5V97h446V159.9z"/>
	</g>
</g>
</svg>
