<svg id="Capa_1" xmlns="http://www.w3.org/2000/svg" viewBox="0 0 56 56"><style>.st0{stroke:#000;stroke-width:.75;stroke-miterlimit:10}</style><path class="st0" d="M8 14c3.5 0 6.4-2.6 6.9-6H54c.6 0 1-.4 1-1s-.4-1-1-1H14.9c-.5-3.4-3.4-6-6.9-6-3.9 0-7 3.1-7 7s3.1 7 7 7zM8 2c2.8 0 5 2.2 5 5s-2.2 5-5 5-5-2.2-5-5 2.2-5 5-5zM48 42c-3.5 0-6.4 2.6-6.9 6H2c-.6 0-1 .4-1 1s.4 1 1 1h39.1c.5 3.4 3.4 6 6.9 6 3.9 0 7-3.1 7-7s-3.1-7-7-7zm0 12c-2.8 0-5-2.2-5-5s2.2-5 5-5 5 2.2 5 5-2.2 5-5 5zM54 27H35.4c-.4-3.6-3.5-6.4-7.2-6.4S21.4 23.4 21 27H2c-.6 0-1 .4-1 1s.4 1 1 1h19.1c.6 3.4 3.5 6 7.1 6s6.5-2.6 7.1-6H54c.6 0 1-.4 1-1s-.4-1-1-1zm-25.8 6c-2.9 0-5.2-2.3-5.2-5.2s2.3-5.2 5.2-5.2 5.2 2.3 5.2 5.2-2.3 5.2-5.2 5.2z"/></svg>