<svg xmlns="http://www.w3.org/2000/svg" viewBox="0 0 480 480"><path d="M440 8H104C81.9 8 64 25.9 64 48v312H8c-4.4 0-8 3.6-8 8v16c0 22.1 17.9 40 40 40h248.2v40c0 3 1.7 5.8 4.4 7.2s6 1.1 8.4-.8l27.2-20.4 27.2 20.4c1.4 1 3.1 1.6 4.8 1.6 1.2 0 2.5-.3 3.6-.8 2.7-1.4 4.4-4.2 4.4-7.2v-40h7.8c22.1 0 40-17.9 40-40V72h56c4.4 0 8-3.6 8-8V48c0-22.1-17.9-40-40-40zM288.2 408H40c-13.3 0-24-10.7-24-24v-8h272.2v32zm64 40L333 433.6c-2.8-2.1-6.8-2.1-9.6 0L304.2 448v-89.4c1.5.1 3.1.1 4.6-.1 4.6 6 11.7 9.4 19.3 9.4s14.6-3.5 19.3-9.4c1.6.2 3.2.2 4.8.1V448zm10.3-128.2c-2.1.8-3.8 2.4-4.7 4.5-.9 2.1-.8 4.5.2 6.5 1.5 3.2.9 7-1.6 9.4-2.5 2.5-6.3 3.2-9.4 1.7-2-1-4.4-1-6.5-.2-2.1.9-3.7 2.6-4.5 4.7-1.2 3.3-4.3 5.5-7.8 5.5s-6.6-2.2-7.8-5.5c-.8-2.1-2.4-3.9-4.5-4.7-2.1-.9-4.5-.8-6.5.2-3.2 1.5-7 .8-9.4-1.7-2.5-2.5-3.1-6.3-1.6-9.4 1-2 1-4.4.2-6.5-.9-2.1-2.6-3.7-4.7-4.5-3.3-1.2-5.5-4.3-5.5-7.8s2.2-6.7 5.5-7.8c2.1-.8 3.8-2.4 4.7-4.5.9-2.1.8-4.4-.2-6.5-1.5-3.2-.9-7 1.6-9.5s6.3-3.2 9.4-1.7c2 1 4.4 1 6.5.2 2.1-.9 3.7-2.6 4.5-4.7 1.2-3.3 4.3-5.5 7.8-5.5s6.6 2.2 7.8 5.5c.8 2.1 2.4 3.9 4.5 4.7 2.1.9 4.5.8 6.5-.2 3.2-1.5 7-.8 9.4 1.7 2.5 2.5 3.1 6.3 1.6 9.4-1 2-1 4.4-.2 6.5.9 2.1 2.6 3.7 4.7 4.5 3.3 1.2 5.5 4.3 5.5 7.8s-2.2 6.8-5.5 7.9zM407.4 25c-.5.6-.9 1.3-1.3 2-.9 1.4-1.6 2.8-2.3 4.2-.4.8-.7 1.5-1 2.3-.6 1.6-1.1 3.2-1.5 4.8-.2.7-.4 1.5-.6 2.2-.5 2.4-.7 4.9-.8 7.4v336c0 13.3-10.7 24-24 24-2.7-.1-5.3-.5-7.8-1.5v-55.6c5-5.2 7.3-12.4 6.4-19.6 5.9-4.6 9.4-11.7 9.4-19.3s-3.5-14.7-9.4-19.3c.9-7.5-1.6-15-6.9-20.3-5.3-5.3-12.8-7.9-20.3-7-4.6-6-11.7-9.4-19.3-9.4s-14.6 3.5-19.3 9.4c-7.5-.9-15 1.7-20.3 7-5.3 5.3-7.9 12.8-6.9 20.3-5.9 4.6-9.4 11.7-9.4 19.3s3.5 14.7 9.4 19.3c-.9 7.3 1.5 14.6 6.6 19.8v8.9H80V48c0-13.3 10.7-24 24-24h304c-.2.3-.4.7-.6 1zM464 56h-48v-8c0-13.3 10.7-24 24-24s24 10.7 24 24v8z"/><path d="M264 72h32v16h-32V72zM184 72h64v16h-64V72zM160 112h160v16H160v-16zM120 160h40v16h-40v-16zM120 200h88v16h-88v-16zM176 160h184v16H176v-16zM224 200h136v16H224v-16zM120 240h160v16H120v-16zM120 280h136v16H120v-16z"/></svg>