<svg xmlns="http://www.w3.org/2000/svg" width="512" height="512" viewBox="0 0 512 512"><path d="M504.8 77.8c-9.4-4-19.2-6.5-29.1-7.4 6.1-3.6 12.3-7.1 18.6-10.3 5.9-3 8.3-10.2 5.3-16.1-3-5.9-10.2-8.3-16.1-5.3-11.6 5.9-22.9 12.5-33.8 19.8 2.4-14.9 1.3-30.3-3.5-45-2.1-6.3-8.8-9.7-15.1-7.7-6.3 2.1-9.7 8.8-7.7 15.1 5.1 15.7 4.6 32.5-1.1 47.7-9.9-6.4-21.1-10.3-32.8-11.3-18.3-1.5-35.7 4.3-48.8 16.3-33.6 30.6-64.8 67.4-89.3 104.8.9-10.2.6-20.7-.9-31.2-3.7-26.3-14.3-50.1-30-67.2-16.8-18.3-37.3-26.7-57.8-23.8-14.1 2-26.8 9.2-37.1 20.9-.4-3.6-.2-7.3.6-10.9 1.9-8.6 7-15.9 14.5-20.6 5.6-3.6 7.2-11 3.7-16.6-3.6-5.6-11-7.2-16.6-3.7-3 1.9-5.9 4.1-8.4 6.5-6.4-9.5-15.2-17.2-25.8-21.8-18.8-8.3-40.9-5.8-57.5 6.4-3.5 2.5-5.3 6.7-4.8 11C33.6 47.9 46.8 65.7 65.6 74c7.4 3.2 15.3 4.8 23.1 4.8 4.2 0 8.5-.5 12.6-1.4.2 2.9.6 5.8 1.3 8.6-15.4-1.6-29.6 1.7-41.3 9.8-14.8 10.3-24 27.4-25.9 48.2-1.3 13.7.7 28.7 5.6 43.5H12c-6.6 0-12 5.4-12 12V495c0 6.6 5.4 12 12 12h449.3c6.6 0 12-5.4 12-12V298v-98.5c0-6.6-5.4-12-12-12h-37.4c3.9-3.3 7.7-6.7 11.4-10.1 13.2-12 20.5-28.8 20.7-47.2.1-11.8-2.8-23.3-8.2-33.7 15.6-4.3 32.4-3.3 47.6 3.2 6.1 2.6 13.1-.2 15.8-6.3 2.4-5.9-.4-13-6.4-15.6zM75.2 51.9c-8.7-3.8-15.3-11.1-18.4-20 8.6-3.7 18.4-3.8 27.2 0 8.7 3.8 15.4 11.1 18.4 20-8.6 3.7-18.5 3.8-27.2 0zm-.3 63.6c9.9-6.9 21.5-6.5 29.4-5.1 13.9 2.6 27.9-2.9 36.3-14.2 4.8-6.5 13.1-14.6 25.1-16.3 12.5-1.7 25.5 4 36.8 16.3 12.4 13.5 20.9 32.8 23.9 54.3 1.8 12.7 1.5 25.3-.8 36.9H66.5c-12.6-30-9.5-59.5 8.4-71.9zm374.4 96V483H24V298v-86.6H252l197.3.1zm-30.2-51.8c-9.7 8.8-19.9 17.5-30.5 25.7l-11.8-12.9c-4.5-4.9-12.1-5.2-17-.8-4.5 4.1-5.2 10.9-1.7 15.8H274c5.3-8 11-15.9 16.9-23.7l9.8 10.7c2.4 2.6 5.6 3.9 8.9 3.9 2.9 0 5.8-1 8.1-3.1 4.9-4.5 5.2-12.1.8-17L306 144.7c9.2-11.1 18.9-21.9 28.9-32.2l10.6 11.6c2.4 2.6 5.6 3.9 8.9 3.9 2.9 0 5.8-1 8.1-3.1 4.9-4.5 5.2-12.1.8-17l-11.2-12.3c1.5-1.4 3.1-2.9 4.6-4.3 8.2-7.5 19.1-11.1 30.7-10.1 11.9 1 23.2 6.6 31.6 15.9 8.4 9.2 13 20.9 12.9 32.9-.1 11.7-4.7 22.2-12.8 29.7z"/><circle cx="81.1" cy="248.7" r="13"/><circle cx="390.7" cy="248.7" r="13"/><circle cx="81.1" cy="347.2" r="13"/><circle cx="390.7" cy="347.2" r="13"/><circle cx="81.1" cy="445.6" r="13"/><circle cx="390.7" cy="445.6" r="13"/><path d="M417.1 285.9H56.2c-6.6 0-12 5.4-12 12s5.4 12 12 12h360.9c6.6 0 12-5.4 12-12s-5.4-12-12-12zM417.1 384.4H56.2c-6.6 0-12 5.4-12 12s5.4 12 12 12h360.9c6.6 0 12-5.4 12-12s-5.4-12-12-12z"/></svg>