<svg xmlns="http://www.w3.org/2000/svg" width="512" height="512"><path d="M256 31.1h64.1c4.2 0 7.5-3.4 7.5-7.5 0-4.2-3.4-7.5-7.5-7.5H256c-4.2 0-7.5 3.4-7.5 7.5s3.3 7.5 7.5 7.5zM344.2 31.1h32.1c4.2 0 7.5-3.4 7.5-7.5 0-4.2-3.4-7.5-7.5-7.5h-32.1c-4.2 0-7.5 3.4-7.5 7.5s3.3 7.5 7.5 7.5zM256 63.1h32.1c4.2 0 7.5-3.4 7.5-7.5 0-4.2-3.4-7.5-7.5-7.5H256c-4.2 0-7.5 3.4-7.5 7.5 0 4.2 3.3 7.5 7.5 7.5zM376.2 48.1h-56.1c-4.2 0-7.5 3.4-7.5 7.5s3.4 7.5 7.5 7.5h56.1c4.2 0 7.5-3.4 7.5-7.5.1-4.1-3.3-7.5-7.5-7.5zM256 95.2h120.2c4.2 0 7.5-3.4 7.5-7.5 0-4.2-3.4-7.5-7.5-7.5H256c-4.2 0-7.5 3.4-7.5 7.5s3.3 7.5 7.5 7.5z"/><path d="M472.4 88.2c-19.3 0-35.3 13.8-38.9 32.1h-73.4c-3.2 0-6.1 2.1-7.1 5.1l-28.6 85.8c-30.9-43.3-60.2-77.3-62.8-80.3-3-3.4-8.4-3.4-11.4 0-1.3 1.6-9.9 11.5-22.2 26.8L182.9 36.9c-1.1-2.9-3.9-4.9-7-4.9H78.4C74.9 13.8 58.8 0 39.6 0 17.8 0 0 17.8 0 39.6s17.8 39.6 39.6 39.6c19.3 0 35.3-13.8 38.9-32.1h92.2L217 170.5c.1.3.3.6.4.8-11.9 15.2-25.7 33.6-39.3 53.4-.7-.2-1.4-.3-2.1-.3H79.7c-2.4 0-4.7 1.2-6.1 3.1l-38 53.2c-20 2.1-35.6 19-35.6 39.4 0 21.8 17.8 39.6 39.6 39.6s39.6-17.8 39.6-39.6c0-17.3-11.1-32-26.6-37.4l30.9-43.3H168c-29.6 44.9-55.8 94.4-55.8 128.8 0 79.3 64.5 143.8 143.8 143.8 47.4 0 91.7-23.3 118.5-62.4 2.4-3.4 1.5-8.1-1.9-10.4-3.4-2.4-8.1-1.5-10.4 1.9-22.6 32.9-59.1 53.3-98.6 55.6v-51.6l99.8-46.1c3.8-1.7 5.4-6.2 3.7-10s-6.2-5.4-10-3.7l-93.5 43.2v-63.8l76-38c3.7-1.9 5.2-6.4 3.4-10.1-1.9-3.7-6.4-5.2-10.1-3.4L263.5 348v-55.3l43.9-22c3.7-1.9 5.2-6.4 3.4-10.1s-6.4-5.2-10.1-3.4l-37.2 18.6V232c0-4.1-3.4-7.5-7.5-7.5s-7.5 3.4-7.5 7.5v43.9l-37.2-18.6c-3.7-1.9-8.2-.4-10.1 3.4-1.9 3.7-.4 8.2 3.4 10.1l43.9 22V348l-69.3-34.6c-3.7-1.9-8.2-.4-10.1 3.4-1.9 3.7-.4 8.2 3.4 10.1l76 38v63.8L155 385.5c-3.8-1.7-8.2-.1-10 3.7s-.1 8.2 3.7 10l99.8 46.1v51.6C181 493 127.3 436.8 127.3 368.4c0-63 103.2-190.3 128.8-220.8 25.6 30.6 128.8 157.8 128.8 220.8 0 15.6-2.8 30.9-8.2 45.4-1.5 3.9.5 8.2 4.4 9.7 3.9 1.5 8.2-.5 9.7-4.4 6.1-16.2 9.2-33.3 9.2-50.8 0-37.7-31.6-93.6-64.6-141.8 0-.1 0-.1.1-.2l30.3-91h68c3.5 18.2 19.6 32.1 38.9 32.1 21.8 0 39.6-17.8 39.6-39.6-.3-21.9-18.1-39.6-39.9-39.6zM39.6 64.1C26 64.1 15 53.1 15 39.6S26 15 39.6 15c13.5 0 24.5 11 24.5 24.5s-11 24.6-24.5 24.6zm24.5 256c0 13.5-11 24.5-24.5 24.5s-24.5-11-24.5-24.5 11-24.5 24.5-24.5 24.5 11 24.5 24.5zm408.3-167.8c-13.5 0-24.5-11-24.5-24.5s11-24.5 24.5-24.5 24.5 11 24.5 24.5-10.9 24.5-24.5 24.5z"/></svg>