<?xml version="1.0" encoding="utf-8"?>
<!-- Generator: Adobe Illustrator 22.1.0, SVG Export Plug-In . SVG Version: 6.00 Build 0)  -->
<svg version="1.1" id="Layer_1" xmlns="http://www.w3.org/2000/svg" xmlns:xlink="http://www.w3.org/1999/xlink" x="0px" y="0px"
	 width="479px" height="479px" viewBox="0 0 479 479" style="enable-background:new 0 0 479 479;" xml:space="preserve">
<path d="M372.8,49.3C337.2,13.7,289.9-5.9,239.5-6l0,0c-50.4,0.1-97.7,19.7-133.3,55.3s-55.3,83-55.3,133.3
	c0,42.3,29.3,104.1,87.1,183.5c43.4,59.7,87.1,107.4,92,112.7c2.4,2.7,5.9,4.2,9.5,4.2s7.1-1.5,9.5-4.2c4.8-5.2,48.5-53,92-112.7
	c57.8-79.5,87.1-141.2,87.1-183.5C428.1,132.3,408.4,84.9,372.8,49.3z M239.5,20c89.7,0,162.7,73,162.7,162.6
	c0,78.4-128,228.7-162.7,267.9C204.9,411.4,76.9,261,76.9,182.6C76.9,92.9,149.8,20,239.5,20z"/>
<path d="M282.3,182.6c0,23.6-19.2,42.8-42.8,42.8c-23.7,0-42.8-19.2-42.8-42.8c0-23.7,19.2-42.8,42.8-42.8
	C263.2,139.8,282.3,159,282.3,182.6z"/>
</svg>
