<svg xmlns="http://www.w3.org/2000/svg" viewBox="0 0 512 512"><path d="M255.9 0c-81.1 0-147.1 66-147.1 147.1 0 33.7 11.7 66.6 32.9 92.7.2.2.3.5.5.7L248 376.1c1.9 2.4 4.8 3.8 7.9 3.8 3.1 0 6-1.4 7.9-3.8l106.3-136.3.1-.1c21.1-26.1 32.8-58.9 32.8-92.6C403 66 337 0 255.9 0zm98.6 227.3c-.1.2-.2.3-.4.5l-98.2 125.9-97.2-124.6c-.2-.4-.5-.8-.8-1.1-18.7-22.7-29.1-51.4-29.1-80.9C128.8 77 185.8 20 255.9 20S383 77 383 147.1c0 29.2-10.2 57.7-28.5 80.2z"/><path d="M342.2 123.8c-1.6-5.3-7.1-8.3-12.4-6.8-5.3 1.6-8.3 7.1-6.8 12.4 7.3 24.6.5 51.2-17.6 69.4-13.2 13.2-30.8 20.5-49.5 20.5s-36.3-7.3-49.5-20.5c-13.2-13.2-20.5-30.8-20.5-49.5s7.3-36.3 20.5-49.5c18.2-18.2 44.8-24.9 69.4-17.6 5.3 1.6 10.9-1.5 12.4-6.7 1.6-5.3-1.5-10.9-6.7-12.4-31.7-9.4-65.9-.7-89.2 22.7-17 17-26.4 39.6-26.4 63.6s9.4 46.6 26.4 63.6 39.6 26.4 63.6 26.4 46.6-9.4 63.6-26.4c23.3-23.4 32-57.6 22.7-89.2z"/><path d="M319.7 85.8l-.2-.2c-3.9-3.9-10.2-3.9-14.1 0-3.9 3.9-3.9 10.2 0 14.1l.2.2c2 2 4.5 2.9 7.1 2.9s5.1-1 7.1-2.9c3.8-3.8 3.8-10.2-.1-14.1zM409.6 305.3c-5.2-1.7-10.9 1.1-12.6 6.4-1.7 5.2 1.1 10.9 6.4 12.6 55.5 18.3 88.6 45.6 88.6 73.2 0 23.3-24 46.9-66 64.7-45.2 19.2-105.6 29.8-170 29.8s-124.8-10.6-170-29.8c-41.9-17.8-66-41.4-66-64.7 0-19.5 16.8-39.3 47.4-55.8 32.3-17.4 78-30 128.8-35.5 5.5-.6 9.5-5.5 8.9-11-.6-5.5-5.5-9.5-11-8.9-53.3 5.8-101.6 19.2-136.1 37.8-37.9 20.4-58 45.8-58 73.4 0 32.2 27.7 61.7 78.1 83.1C125.8 500.8 189 512 256 512s130.2-11.2 177.8-31.4c50.4-21.4 78.1-50.9 78.1-83.1.1-37.2-37.2-70.8-102.3-92.2z"/><path d="M363.9 293.3l-.3-.1c-5.4-1.1-10.7 2.4-11.8 7.8-1.1 5.4 2.4 10.7 7.8 11.8l.3.1c.7.1 1.3.2 2 .2 4.7 0 8.8-3.3 9.8-8 1.1-5.4-2.4-10.7-7.8-11.8zM180.4 337c-1.1-5.4-6.4-8.9-11.8-7.8-.2 0-.5.1-.7.2-5.3 1.5-8.5 6.9-7 12.3 1.2 4.4 5.2 7.4 9.6 7.4.8 0 1.6-.1 2.4-.3 5.2-1.4 8.6-6.5 7.5-11.8z"/><path d="M289.4 320.7c-5.5-.4-10.3 3.7-10.7 9.2-.4 5.5 3.7 10.3 9.2 10.7 65.3 5.1 100.1 24.2 100.1 36 0 5.7-9.1 15.4-34.7 23.9-25.8 8.6-60.3 13.3-97.1 13.3s-71.3-4.7-97.1-13.3c-25.6-8.5-34.7-18.2-34.7-23.9 0-5.2 7.1-11.8 18.9-17.6 5-2.4 7-8.4 4.6-13.4s-8.4-7-13.4-4.6c-24.9 12.2-30.1 26-30.1 35.5 0 37.6 76.4 57.2 151.9 57.2s151.9-19.7 151.9-57.2c-.3-34.3-64.2-51.5-118.8-55.8z"/></svg>