<svg xmlns="http://www.w3.org/2000/svg" width="512" height="512" viewBox="0 0 512 512"><path d="M512 87.8v-.2-.7-.2c0-.2-.1-.4-.1-.6 0-.1 0-.2-.1-.2-.1-.2-.1-.4-.2-.6v-.1l-20.3-52.1c-2.1-5.2-7-8.6-12.7-8.6h-37c-4 0-7.3 3.3-7.3 7.3s3.3 7.3 7.3 7.3h36.3L494 80.5H340.9l-9.6-41.4h56.5c4 0 7.3-3.3 7.3-7.3s-3.3-7.3-7.3-7.3H92.1c-5.6 0-10.6 3.4-12.7 8.6L59.1 85.2v.1c-.1.2-.1.4-.2.6 0 .1 0 .2-.1.2 0 .2-.1.4-.1.6v108.5c0 4 3.3 7.3 7.3 7.3s7.3-3.3 7.3-7.3V95.1h155v111.1c0 4.3 2.6 8.3 6.5 10.1 1.5.7 3 1 4.5 1 2.7 0 5.3-1 7.3-2.8l38.7-34.3 38.7 34.3c3.3 2.9 7.9 3.6 11.9 1.8s6.5-5.7 6.5-10.1V95.1h155V423c0 5.2-4.3 9.5-9.5 9.5H353.8v-.2c0-.7 0-1.3-.1-2 12.6 3.3 26-3.1 31.1-15.5 2.7-6.5 2.6-13.7-.1-20.1-.3-.6-.5-1.2-.8-1.8-.1-.1-.1-.2-.2-.3-.3-.6-.6-1.1-.9-1.6-.1-.1-.1-.2-.2-.3-.3-.5-.7-1.1-1.1-1.6l-1.2-1.5c-.1-.1-.2-.2-.2-.3-.4-.5-.8-.9-1.3-1.3-.1-.1-.2-.2-.3-.2-.5-.4-.9-.9-1.4-1.3h-.1c-.5-.4-1-.8-1.5-1.1-.1-.1-.2-.1-.3-.2-.5-.3-1-.7-1.6-1l-.1-.1c3.1-2.7 5.5-6.1 7.1-10 2.7-6.5 2.6-13.7-.1-20.1-2.4-5.7-6.6-10.2-11.9-13.1-.8-.4-1.6-.8-2.4-1.1l-113.8-46.4 53-16.4c12.6-3.9 19.7-17.3 15.8-30-1.4-4.7-4.3-8.7-8-11.6-5.5-4.3-12.9-6.3-20.2-4.7h-.1c-.4.1-41 9.2-83.4 17.5-1.9.4-3.7.7-5.5 1.1-1.4.3-2.9.6-4.3.8-.4.1-.8.2-1.2.2-2.5.5-4.9.9-7.2 1.4-.9.2-1.9.3-2.8.5-53.3 9.8-68.2 10-72.4 9.4h-.2-.1-.1c-.3 0-.5-.1-.6-.1l-1.2-.5 1.5-3.7c1.5-3.6 1.4-7.6-.1-11.1-.4-.9-.8-1.7-1.4-2.5-1.6-2.4-3.9-4.2-6.6-5.3l-39.3-16c-3.6-1.5-7.6-1.4-11.1.1-3.6 1.5-6.4 4.3-7.8 7.9l-48 117.8c-3 7.4.6 15.9 8 19l39.3 16c1.8.7 3.6 1.1 5.5 1.1 5.7 0 11.2-3.4 13.5-9.1l.4-.9 9.1 3.7c8.7 3.5 16.6 8.6 23.5 14.8 1.3 1.1 2.5 2.3 3.7 3.5s2.3 2.5 3.4 3.8c.6.6 1.1 1.3 1.6 2 10.1 12.5 23.3 22.4 38.1 28.5l10.2 4.2H82.7c-5.2 0-9.5-4.3-9.5-9.5v-18.5c0-4-3.3-7.3-7.3-7.3s-7.3 3.3-7.3 7.3v18.5c0 13.3 10.8 24.1 24.1 24.1h110.5l94.2 38.4c3.2 1.3 6.6 1.9 9.9 1.9 10.4 0 20.2-6.2 24.4-16.4 1.7-4.2 2.3-8.5 1.8-12.7 4.9.7 10 .1 14.6-1.9 4.7-2 8.6-5.2 11.3-9.3h138.5c13.3 0 24.1-10.8 24.1-24.1V87.8zM254.3 39.1h62l9.6 41.4h-81.2l9.6-41.4zm-24.6 41.4H76.6l16.2-41.4h146.5l-9.6 41.4zm98.1 117.9l-35.2-31.1c-2.1-1.9-4.7-2.8-7.3-2.8-2.6 0-5.2.9-7.3 2.8l-35.2 31.1V95.1h85v103.3zm-274 169.1l-39.1-16 48-117.6 39.1 16-48 117.6zm292.1 44.1l-8.4-3.4-87.4-35.6c-3.7-1.5-8 .3-9.5 4s.3 8 4 9.5l87.4 35.6c.4.1.7.3 1.1.5.1.1.2.1.3.2.2.1.5.3.7.4.1.1.2.2.3.2.2.1.4.3.6.4l.3.3.5.5.3.3c.1.2.3.3.4.5.1.1.2.3.3.4.1.2.3.3.4.5.1.1.2.3.3.4.1.2.2.3.3.5.1.2.2.3.2.5.1.2.2.3.3.5.1.2.1.3.2.5s.1.3.2.5.1.4.2.5c0 .2.1.4.1.5 0 .2.1.4.1.5s.1.4.1.5v2.4c0 .2 0 .4-.1.5 0 .2 0 .4-.1.6 0 .2-.1.4-.1.5 0 .2-.1.4-.1.6 0 .2-.1.3-.2.5s-.1.4-.2.6c-.1.1-.1.3-.2.4v.1c-1.1 2.6-3.3 4.7-6 5.9-3 1.3-6.5 1.4-9.5.1l-15.5-6.3c-.1 0-.1 0-.2-.1-.1 0-.1-.1-.2-.1l-71.1-29c-3.7-1.5-8 .3-9.5 4s.3 8 4 9.5l71.1 29c.1 0 .2.1.2.1.1 0 .1.1.2.1 6 2.4 8.8 9.3 6.4 15.2-2.4 6-9.3 8.8-15.2 6.4l-95.5-38.9-44.7-18.2c-7.9-3.2-15.2-7.7-21.6-13.1-3.9-3.3-7.4-6.9-10.6-10.9-3.1-3.9-6.6-7.6-10.3-10.9-8.2-7.4-17.6-13.4-27.8-17.5l-9.1-3.7 18.1-44.3 17.1-41.8 1.3.5c1.2.5 2.9 1.2 7.4 1.3 5.7.3 15.1-.3 31.9-2.7 11.5-1.6 25.5-4 41.9-7 .4-.1.8-.1 1.2-.2.8-.1 1.5-.3 2.3-.4l1.8-.3c.7-.1 1.4-.3 2.1-.4.7-.1 1.5-.3 2.3-.4l1.8-.3c.9-.2 1.9-.4 2.8-.5l1.5-.3c1.5-.3 2.9-.6 4.4-.9 42.3-8.2 83.1-17.4 84.9-17.8.2 0 .4-.1.5-.1 4.7-.7 9.3 2 10.6 6.4.5 1.5.5 3.1.2 4.6-.7 3.3-3 6.1-6.4 7.1l-72.5 22.4c-3 .9-5 3.6-5.1 6.7-.1 3.1 1.7 5.9 4.5 7.1l132.7 54.1c2.9 1.2 5.1 3.4 6.4 6.3 1.2 2.9 1.2 6.1 0 8.9-1.2 2.9-3.4 5.1-6.3 6.4-1.4.6-3 .9-4.5.9H354.7c-.3 0-.5-.1-.8-.1-.2 0-.3-.1-.5-.1s-.4-.1-.6-.1c-.2-.1-.4-.1-.6-.2-.2-.1-.3-.1-.5-.2l-87.4-35.6c-3.7-1.5-8 .3-9.5 4s.3 8 4 9.5l106 43.2c.7.3 1.4.7 2 1.1 1.9 1.3 3.4 3.1 4.3 5.2 1.1 2.5 1.2 5.3.4 7.8-.1.4-.2.7-.4 1.1-.2.4-.3.7-.5 1.1-.4.8-1 1.5-1.5 2.2l-1.2 1.2-.2.2c-2.7 2.2-6.2 3.1-9.7 2.4-.7-.1-1.4-.3-2.1-.6l-10-4.4z"/></svg>