<svg id="Слой_1" xmlns="http://www.w3.org/2000/svg" xmlns:xlink="http://www.w3.org/1999/xlink" viewBox="0 0 479.9 512"><style>.st0{clip-path:url(#SVGID_2_)}</style><defs><path id="SVGID_1_" d="M0 0h479.9v512H0z"/></defs><clipPath id="SVGID_2_"><use xlink:href="#SVGID_1_" overflow="visible"/></clipPath><path class="st0" d="M475.7 113L243.2.7c-2.1-1-4.5-1-6.5 0L4.2 113c-2.6 1.3-4.2 3.9-4.2 6.8v272.5c0 2.9 1.6 5.5 4.2 6.8l232.5 112.2c1 .5 2.1.7 3.3.7 1.1 0 2.2-.2 3.3-.7L475.7 399c2.6-1.3 4.2-3.9 4.2-6.8V119.7c0-2.9-1.6-5.5-4.2-6.7M240 15.8l215.2 103.9-62.4 30.1c-.4-.3-.8-.6-1.3-.8L177.8 45.9 240 15.8zm-79.2 38.5L375.7 158l-44 21.2L116.9 75.6l43.9-21.3zm220 118v78.5l-41.1 19.8v-78.5l41.1-19.8zm84.1 215.3l-217.5 105V236.7l51.9-25c3.7-1.8 5.3-6.3 3.5-10-1.8-3.7-6.3-5.3-10-3.5L240 223.6l-20.8-10c-3.7-1.8-8.2-.2-10 3.5-1.8 3.7-.2 8.2 3.5 10l19.8 9.6v255.9L15 387.6V131.7l165.6 79.9c1.1.5 2.2.7 3.3.7 2.8 0 5.5-1.6 6.8-4.2 1.8-3.7.2-8.2-3.5-10L24.8 119.7l74.5-36 225.3 108.8.1.1v90c0 2.6 1.3 5 3.5 6.4 1.2.8 2.6 1.1 4 1.1 1.1 0 2.2-.2 3.3-.7l56.1-27.1c2.6-1.3 4.2-3.9 4.2-6.8V165l69.2-33.4v256z"/><path class="st0" d="M76.9 358.5L42.8 342c-3.7-1.8-8.2-.2-10 3.5-1.8 3.7-.2 8.2 3.5 10L70.4 372c1.1.5 2.2.7 3.3.7 2.8 0 5.5-1.6 6.8-4.2 1.7-3.7.1-8.2-3.6-10M108.3 338l-65.5-31.6c-3.7-1.8-8.2-.2-10 3.5-1.8 3.7-.2 8.2 3.5 10l65.5 31.6c1.1.5 2.2.7 3.3.7 2.8 0 5.5-1.6 6.8-4.2 1.7-3.7.1-8.2-3.6-10"/></svg>