<svg xmlns="http://www.w3.org/2000/svg" width="480" height="480" viewBox="0 0 480 480"><path d="M472 384h-32v-64c0-4.4-3.6-8-8-8s-8 3.6-8 8v64H248V208h56v56c0 4.4 3.6 8 8 8h48c4.4 0 8-3.6 8-8v-56h56v80c0 4.4 3.6 8 8 8s8-3.6 8-8v-88c0-4.4-3.6-8-8-8h-88V8c0-4.4-3.6-8-8-8H144c-4.4 0-8 3.6-8 8v72c0 4.4 3.6 8 8 8s8-3.6 8-8V16h56v56c0 4.4 3.6 8 8 8h48c4.4 0 8-3.6 8-8V16h56v176H152v-80c0-4.4-3.6-8-8-8s-8 3.6-8 8v80H96c-4.4 0-8 3.6-8 8s3.6 8 8 8h16v56c0 4.4 3.6 8 8 8h48c4.4 0 8-3.6 8-8v-56h56v176H56V208h8c4.4 0 8-3.6 8-8s-3.6-8-8-8H48c-4.4 0-8 3.6-8 8v184H8c-4.4 0-8 3.6-8 8v80c0 4.4 3.6 8 8 8h48c4.4 0 8-3.6 8-8v-40h144v40c0 4.4 3.6 8 8 8h48c4.4 0 8-3.6 8-8v-40h56c4.4 0 8-3.6 8-8s-3.6-8-8-8H16v-16h448v16h-64c-4.4 0-8 3.6-8 8s3.6 8 8 8h16v40c0 4.4 3.6 8 8 8h48c4.4 0 8-3.6 8-8v-80c0-4.4-3.6-8-8-8zM256 64h-32V16h32v48zm64 144h32v48h-32v-48zm-160 48h-32v-48h32v48zm64 176h32v32h-32v-32zm-176 0v32H16v-32h32zm416 32h-32v-32h32v32z"/><path d="M304 344c-4.4 0-8 3.6-8 8v8c0 4.4 3.6 8 8 8s8-3.6 8-8v-8c0-4.4-3.6-8-8-8zM272 344c-4.4 0-8 3.6-8 8v8c0 4.4 3.6 8 8 8s8-3.6 8-8v-8c0-4.4-3.6-8-8-8zM112 344c-4.4 0-8 3.6-8 8v8c0 4.4 3.6 8 8 8s8-3.6 8-8v-8c0-4.4-3.6-8-8-8zM80 344c-4.4 0-8 3.6-8 8v8c0 4.4 3.6 8 8 8s8-3.6 8-8v-8c0-4.4-3.6-8-8-8zM208 152c-4.4 0-8 3.6-8 8v8c0 4.4 3.6 8 8 8s8-3.6 8-8v-8c0-4.4-3.6-8-8-8zM176 152c-4.4 0-8 3.6-8 8v8c0 4.4 3.6 8 8 8s8-3.6 8-8v-8c0-4.4-3.6-8-8-8zM368 416h-8c-4.4 0-8 3.6-8 8s3.6 8 8 8h8c4.4 0 8-3.6 8-8s-3.6-8-8-8z"/></svg>