<svg xmlns="http://www.w3.org/2000/svg" width="512" height="512" viewBox="0 0 512 512"><path d="M470.7 300.5h-226c-22.8 0-41.3 18.5-41.3 41.3v128.1c0 22.8 18.5 41.3 41.3 41.3h174.6c4.2 0 7.6-3.4 7.6-7.6s-3.4-7.6-7.6-7.6H244.6c-14.4 0-26.1-11.7-26.1-26.1v-69.3h278.3v69.3c0 14.4-11.7 26.1-26.1 26.1h-26.1c-4.2 0-7.6 3.4-7.6 7.6s3.4 7.6 7.6 7.6h26.1c22.8 0 41.3-18.5 41.3-41.3V341.8c0-22.8-18.5-41.3-41.3-41.3zm-226.1 15.2h226c14.4 0 26.1 11.7 26.1 26.1v2.7H218.5v-2.7c0-14.4 11.7-26.1 26.1-26.1zm-26.1 69.7v-25.7h278.3v25.7H218.5z"/><path d="M334.5 421.4c-4.2 0-7.6 3.4-7.6 7.6s3.4 7.6 7.6 7.6h46.3c4.2 0 7.6-3.4 7.6-7.6s-3.4-7.6-7.6-7.6h-46.3zM462.2 429c0-4.2-3.4-7.6-7.6-7.6h-46.3c-4.2 0-7.6 3.4-7.6 7.6s3.4 7.6 7.6 7.6h46.3c4.2 0 7.6-3.4 7.6-7.6zM260.8 421.4c-4.2 0-7.6 3.4-7.6 7.6s3.4 7.6 7.6 7.6h46.3c4.2 0 7.6-3.4 7.6-7.6s-3.4-7.6-7.6-7.6h-46.3zM373.1 227.5c4.2 0 7.6-3.4 7.6-7.6V7.6c0-4.2-3.4-7.6-7.6-7.6H7.6C3.4 0 0 3.4 0 7.6V63c0 4.2 3.4 7.6 7.6 7.6s7.6-3.4 7.6-7.6V15.2h350.2v197.1H15.2v-124c0-4.2-3.4-7.6-7.6-7.6S0 84.1 0 88.3v131.6c0 4.2 3.4 7.6 7.6 7.6h365.5z"/><path d="M277.4 195.6h24.5c4.2 0 7.6-3.4 7.6-7.6 0-17.4 14.2-31.6 31.6-31.6 4.2 0 7.6-3.4 7.6-7.6v-70c0-4.2-3.4-7.6-7.6-7.6-17.4 0-31.6-14.2-31.6-31.6 0-4.2-3.4-7.6-7.6-7.6H78.8c-4.2 0-7.6 3.4-7.6 7.6C71.2 57 57 71.2 39.5 71.2c-4.2 0-7.6 3.4-7.6 7.6v70c0 4.2 3.4 7.6 7.6 7.6 17.4 0 31.6 14.2 31.6 31.6 0 4.2 3.4 7.6 7.6 7.6H252c4.2 0 7.6-3.4 7.6-7.6s-3.4-7.6-7.6-7.6H85.8c-3.2-19.8-18.9-35.4-38.6-38.6v-56C67 82.6 82.6 66.9 85.8 47.2h209.1c3.2 19.8 18.9 35.4 38.6 38.6v56c-19.8 3.2-35.4 18.9-38.6 38.6h-17.5c-4.2 0-7.6 3.4-7.6 7.6s3.4 7.6 7.6 7.6z"/><path d="M143.2 113.8c0 26 21.2 47.1 47.1 47.1 26 0 47.1-21.1 47.1-47.1s-21.1-47.1-47.1-47.1c-26-.1-47.1 21.1-47.1 47.1zm79.1 0c0 17.6-14.3 31.9-31.9 31.9-17.6 0-31.9-14.3-31.9-31.9 0-17.6 14.3-31.9 31.9-31.9 17.5-.1 31.9 14.3 31.9 31.9zM297.9 121.4c4.2 0 7.6-3.4 7.6-7.6 0-4.2-3.4-7.6-7.6-7.6h-24.3c-4.2 0-7.6 3.4-7.6 7.6 0 4.2 3.4 7.6 7.6 7.6h24.3zM82.8 106.2c-4.2 0-7.6 3.4-7.6 7.6 0 4.2 3.4 7.6 7.6 7.6h24.3c4.2 0 7.6-3.4 7.6-7.6 0-4.2-3.4-7.6-7.6-7.6H82.8zM389.5 94.3c48 39.9 75.6 98.5 75.6 160.9 0 2.5-.1 4.9-.1 7.4l-18-18.7c-2.9-3-7.7-3.1-10.8-.2-3 2.9-3.1 7.7-.2 10.8l29.4 30.6c1.3 1.3 3 2.1 4.8 2.3h.2c.3 0 .6.1.9.1 2.7 0 5.2-1.5 6.5-3.7l29-27.9c3-2.9 3.1-7.7.2-10.8-2.9-3-7.7-3.1-10.8-.2l-16 15.4c0-1.7.1-3.4.1-5.1 0-66.9-29.5-129.8-81-172.6-3.2-2.7-8-2.2-10.7 1s-2.3 8 .9 10.7zM185.1 451.9c-40.1-14.4-74.4-40.5-99.3-75.3-22.1-31-35.2-66.8-38.2-104.6l18.6 16.3c3.2 2.8 8 2.5 10.7-.7 2.8-3.2 2.5-8-.7-10.7l-31.9-28c-3.2-2.8-8-2.5-10.7.7l-28 31.9c-2.8 3.2-2.5 8 .7 10.7 1.4 1.3 3.2 1.9 5 1.9 2.1 0 4.2-.9 5.7-2.6l15.5-17.6c3.3 40.2 17.3 78.4 40.9 111.5 26.7 37.3 63.5 65.3 106.5 80.8.9.3 1.7.5 2.6.5 3.1 0 6-1.9 7.2-5 1.4-4-.7-8.4-4.6-9.8zM341.1 47.1c-3.3 0-6.3-2.2-7.3-5.4-.9-2.9.1-6.2 2.4-8.1 5.3-4.3 13.4.3 12.3 7-.4 3.7-3.6 6.5-7.4 6.5zM341.1 195.6c-3.1 0-6-2-7.1-4.9-1.2-3.1-.2-6.7 2.4-8.7 5.4-4.3 13.6.7 12.2 7.5-.7 3.5-3.9 6.1-7.5 6.1zM39.5 47.1c-3.3 0-6.3-2.2-7.3-5.4-.9-3 .2-6.5 2.8-8.4 5.5-3.9 13.2 1 11.9 7.6-.6 3.6-3.8 6.2-7.4 6.2zM39.5 195.6c-3.3 0-6.3-2.2-7.3-5.4s.4-6.8 3.2-8.6c5.7-3.6 13.1 1.8 11.4 8.3-.7 3.3-3.8 5.7-7.3 5.7z"/></svg>