<svg xmlns="http://www.w3.org/2000/svg" viewBox="0 0 58 46"><path d="M57 0H1C.4 0 0 .4 0 1v44c0 .6.4 1 1 1h56c.6 0 1-.4 1-1V1c0-.6-.4-1-1-1zm-1 44H2V2h54v42z"/><path d="M16 22.1c3.1 0 5.6-2.5 5.6-5.6 0-3.1-2.5-5.6-5.6-5.6s-5.6 2.5-5.6 5.6 2.5 5.6 5.6 5.6zm0-9.1c2 0 3.6 1.6 3.6 3.6S18 20.1 16 20.1s-3.6-1.6-3.6-3.6S14 13 16 13zM7 40c.2 0 .5-.1.7-.2L24 25.4l10.3 10.3c.4.4 1 .4 1.4 0s.4-1 0-1.4l-4.8-4.8 9.2-10.1 11.3 10.3c.4.4 1 .3 1.4-.1.4-.4.3-1-.1-1.4l-12-11c-.2-.1-.5-.2-.7-.2-.3 0-.5.1-.7.3L29.5 28l-4.7-4.7c-.4-.4-1-.4-1.4 0l-17 15c-.4.4-.5 1-.1 1.4.1.2.4.3.7.3z"/></svg>