<svg xmlns="http://www.w3.org/2000/svg" width="511" height="511"><path d="M444.1 4.4c-5.8-5.8-15.3-5.8-21.2 0L307.5 119.8H45.9C21.1 119.8 1 139.9 1 164.7v209.6c0 24.8 20.1 44.9 44.9 44.9h16V496c0 6.1 3.7 11.6 9.3 13.9 5.7 2.3 12.2.9 16.4-3.4l85.4-87.3h174.4c24.8 0 44.9-20.1 44.9-44.9V204.5L507.6 89.1c5.8-5.8 5.8-15.3 0-21.2L444.1 4.4zM306.5 247.9l-42.3-42.3 127-127 42.3 42.3-127 127zm-58.3-16l31.9 31.9-54.7 22.8 22.8-54.7zm114.1 142.4c0 8.3-6.7 15-15 15H166.7c-4 0-7.9 1.6-10.7 4.5l-64.2 65.6v-55.1c0-8.3-6.7-15-15-15H45.9c-8.3 0-15-6.7-15-15V164.7c0-8.3 6.7-15 15-15h231.7l-45.2 45.2c-1.2 1.2-2.5 3-3.3 5l-41.4 99.5h-80.8c-8.3 0-15 6.7-15 15s6.7 15 15 15h90.8c1.9 0 4-.4 5.9-1.2L312.2 283c1.8-.7 3.6-1.9 5-3.3l45.2-45.2v139.8zm92.4-274.6l-42.3-42.3 21.2-21.2 42.3 42.3-21.2 21.2z"/></svg>